<?xml version="1.0" encoding="UTF-8"?>
<svg width="6px" height="12px" viewBox="0 0 6 12" version="1.1" xmlns="http://www.w3.org/2000/svg" xmlns:xlink="http://www.w3.org/1999/xlink">
    <!-- Generator: Sketch 43.1 (39012) - http://www.bohemiancoding.com/sketch -->
    <title>附件 (1)</title>
    <desc>Created with Sketch.</desc>
    <defs></defs>
    <g id="app邮件" stroke="none" stroke-width="1" fill="none" fill-rule="evenodd">
        <g id="1-收件箱" transform="translate(-354.000000, -181.000000)" fill-rule="nonzero" fill="#2095F2">
            <g id="2" transform="translate(0.000000, 144.000000)">
                <g id="附件-(1)" transform="translate(354.000000, 37.000000)">
                    <path d="M2.25,0 C3.4906875,0 4.5,1.0093125 4.5,2.25 L4.5,7.875 C4.5,8.701875 3.826875,9.375 3,9.375 C2.173125,9.375 1.5,8.701875 1.5,7.875 L1.5,3.375 C1.5,3.16771875 1.66771875,3 1.875,3 C2.08228125,3 2.25,3.16771875 2.25,3.375 L2.25,7.875 C2.25,8.2888125 2.5861875,8.625 3,8.625 C3.4138125,8.625 3.75,8.2888125 3.75,7.875 L3.75,2.25 C3.75,1.423125 3.076875,0.75 2.25,0.75 C1.423125,0.75 0.75,1.423125 0.75,2.25 L0.75,9 C0.75,10.2406875 1.7593125,11.25 3,11.25 C4.2406875,11.25 5.25,10.2406875 5.25,9 L5.25,3.375 C5.25,3.16771875 5.41771875,3 5.625,3 C5.83228125,3 6,3.16771875 6,3.375 L6,9 C6,10.6545 4.6545,12 3,12 C1.3455,12 0,10.6545 0,9 L0,2.25 C0,1.0093125 1.0093125,0 2.25,0 Z" id="Shape"></path>
                </g>
            </g>
        </g>
    </g>
</svg>