<?xml version="1.0" encoding="UTF-8"?>
<svg width="20px" height="20px" viewBox="0 0 20 20" version="1.1" xmlns="http://www.w3.org/2000/svg" xmlns:xlink="http://www.w3.org/1999/xlink">
    <!-- Generator: Sketch 43.1 (39012) - http://www.bohemiancoding.com/sketch -->
    <title>Group 8</title>
    <desc>Created with Sketch.</desc>
    <defs></defs>
    <g id="app邮件" stroke="none" stroke-width="1" fill="none" fill-rule="evenodd">
        <g id="1-收件箱-copy" transform="translate(-100.000000, -254.000000)">
            <g id="Group-4" transform="translate(80.000000, 0.000000)">
                <g id="line" transform="translate(0.000000, 241.000000)">
                    <g id="Pin" transform="translate(19.000000, 11.000000)">
                        <g id="Group-8">
                            <rect id="Rectangle" x="0" y="0" width="22" height="22"></rect>
                            <g id="审核-(1)" transform="translate(2.000000, 3.000000)" stroke="#2095F2" stroke-width="0.5" fill="#2095F2" fill-rule="nonzero">
                                <path d="M12.377231,2.95565908 L2.81506908,2.95565908 C2.58334084,2.95565908 2.39534261,3.12322271 2.39534261,3.33002076 C2.39534261,3.53681881 2.58334084,3.70438244 2.81506908,3.70438244 L12.3776397,3.70438244 C12.609368,3.70438244 12.7973662,3.53681881 12.7973662,3.33002076 C12.7973662,3.12322271 12.6089593,2.95565908 12.377231,2.95565908" id="Shape"></path>
                                <path d="M12.7965488,6.01308239 C12.7965488,5.80628434 12.6085506,5.63872071 12.3768224,5.63872071 L2.8146604,5.63872071 C2.58334084,5.63872071 2.39534262,5.80628434 2.39534262,6.01308239 C2.39534262,6.21988044 2.58334086,6.38744407 2.8146604,6.38744407 L12.3776397,6.38744407 C12.6085506,6.38744409 12.7965488,6.21988044 12.7965488,6.01308239" id="Shape"></path>
                                <path d="M2.81425171,8.32219103 C2.58252347,8.32219103 2.39452523,8.48975467 2.39452523,8.69655272 C2.39452523,8.90335076 2.58252347,9.0709144 2.81425171,9.0709144 L8.95116772,9.0709144 C9.18248728,9.0709144 9.3704855,8.90335076 9.3704855,8.69655272 C9.3704855,8.48975467 9.18248727,8.32219103 8.95116772,8.32219103 L2.81425171,8.32219103 Z" id="Shape"></path>
                                <path d="M7.622102,11.0056614 L2.8146604,11.0056614 C2.58293216,11.0056614 2.39493393,11.1736337 2.39493393,11.3800231 C2.39493393,11.5868211 2.58293216,11.7543847 2.8146604,11.7543847 L7.622102,11.7543847 C7.85383024,11.7543847 8.04182848,11.5868211 8.04182848,11.3800231 C8.04182848,11.1736337 7.85383024,11.0056614 7.622102,11.0056614" id="Shape"></path>
                                <path d="M17.0040309,14.8281557 L15.9299888,14.8281557 L13.8338086,12.2104848 C14.696557,11.9395221 15.3194033,11.2124594 15.3194033,10.3513458 C15.3194033,9.26013872 14.3254648,8.37246015 13.102659,8.37246015 C11.8798531,8.37246015 10.885506,9.26013874 10.885506,10.3513458 C10.885506,11.2124594 11.5091697,11.9395221 12.3715094,12.2104848 L10.2749205,14.8281557 L9.2012871,14.8281557 C8.66140523,14.8281557 8.22247024,15.2196825 8.22247024,15.7015301 L8.22247024,17.1090647 C8.22247024,17.5909123 8.66140523,17.9828477 9.2012871,17.9828477 L17.0032135,17.9828477 C17.5430953,17.982439 17.982439,17.5909123 17.982439,17.108656 L17.982439,15.7011214 C17.9828477,15.2196825 17.5439127,14.8281557 17.0040309,14.8281557 L17.0040309,14.8281557 Z M11.7249589,10.3513458 C11.7249589,9.67332611 12.3424922,9.1211835 13.102659,9.1211835 C13.8628257,9.1211835 14.480359,9.67291743 14.480359,10.3513458 C14.480359,11.0252786 13.8697735,11.5733343 13.1153284,11.5798733 L13.0895809,11.5798733 C12.3363619,11.5733343 11.7249589,11.0256873 11.7249589,10.3513458 L11.7249589,10.3513458 Z M12.9739211,12.7470971 L13.2207709,12.7332016 L14.8984507,14.8281557 L11.3068672,14.8281557 L12.9739211,12.7470971 Z M17.1438035,17.1090647 C17.1438035,17.1769075 17.0800476,17.2337157 17.0040309,17.2337157 L9.2016958,17.2337157 C9.12567913,17.2337157 9.0619232,17.1769075 9.0619232,17.1090647 L9.0619232,15.7019388 C9.0619232,15.634096 9.12567911,15.5772878 9.2016958,15.5772878 L10.4919358,15.5772878 L15.7146083,15.5772878 L15.7256429,15.5772878 L17.0044396,15.5772878 C17.0804562,15.5772878 17.1446209,15.634096 17.1446209,15.7019388 L17.1446209,17.1094734 L17.1438035,17.1094734 L17.1438035,17.1090647 Z" id="Shape"></path>
                                <path d="M0.839044256,15.5388708 L0.839044256,0.873783061 C0.839044256,0.805940219 0.902800168,0.74913206 0.978816855,0.74913206 L14.3348647,0.74913206 C14.4112901,0.74913206 14.475046,0.805940219 14.475046,0.873783061 L14.475046,7.91758617 C14.7897387,8.05940222 15.0729621,8.24821783 15.3140903,8.47422441 L15.3140903,0.873783061 C15.3140903,0.391935424 14.8747466,0 14.3348647,0 L0.978816855,0 C0.438934987,0 0,0.391935424 0,0.873783061 L0,15.5388708 C0,16.0207184 0.438934987,16.4126538 0.978816855,16.4126538 L7.38301729,16.4126538 L7.38301729,15.7015301 C7.38301729,15.688452 7.3871042,15.6765999 7.3875129,15.6635218 L0.978816855,15.6635218 C0.903208864,15.6635218 0.839044256,15.6067136 0.839044256,15.5388708" id="Shape"></path>
                            </g>
                        </g>
                    </g>
                </g>
            </g>
        </g>
    </g>
</svg>