<?xml version="1.0" encoding="UTF-8"?>
<svg width="18px" height="18px" viewBox="0 0 18 18" version="1.1" xmlns="http://www.w3.org/2000/svg" xmlns:xlink="http://www.w3.org/1999/xlink">

    <title>Group 24</title>
    <desc>Created with Sketch.</desc>
    <defs></defs>
    <g id="sid" stroke="none" stroke-width="1" fill="none" fill-rule="evenodd">
        <g id="3_ERP" transform="translate(-17.000000, -310.000000)">
            <g id="Group-6" transform="translate(0.000000, 297.000000)">
                <g id="Group-24" transform="translate(15.000000, 10.000000)">
                    <rect id="Rectangle-12" x="0" y="0" width="22" height="22"></rect>
                    <g id="Page-1" transform="translate(2.000000, 3.000000)" fill="#2095F2">
                        <path d="M11.5714286,7.52142857 L5.97857143,7.52142857 C5.65714286,7.52142857 5.46428571,7.32857143 5.46428571,7.00714286 C5.46428571,6.68571429 5.65714286,6.49285714 5.97857143,6.49285714 L11.5071429,6.49285714 C11.8285714,6.49285714 12.0214286,6.68571429 12.0214286,7.00714286 C12.0214286,7.32857143 11.8285714,7.52142857 11.5714286,7.52142857" id="Fill-1"></path>
                        <path d="M11.5714286,10.1571429 L5.97857143,10.1571429 C5.65714286,10.1571429 5.46428571,9.96428571 5.46428571,9.64285714 C5.46428571,9.32142857 5.65714286,9.12857143 5.97857143,9.12857143 L11.5071429,9.12857143 C11.8285714,9.12857143 12.0214286,9.32142857 12.0214286,9.64285714 C12.0857143,9.96428571 11.8285714,10.1571429 11.5714286,10.1571429" id="Fill-3"></path>
                        <path d="M8.22857143,12.4071429 L8.22857143,6.87857143 C8.22857143,6.55714286 8.42142857,6.36428571 8.74285714,6.36428571 C9.06428571,6.36428571 9.25714286,6.55714286 9.25714286,6.87857143 L9.25714286,12.4071429 C9.25714286,12.7285714 9.06428571,12.9214286 8.74285714,12.9214286 C8.42142857,12.9214286 8.22857143,12.7285714 8.22857143,12.4071429 Z" id="Fill-5"></path>
                        <path d="M8.74285714,7.52142857 C8.61428571,7.52142857 8.42142857,7.39285714 8.35714286,7.39285714 L6.42857143,5.52857143 C6.23571429,5.33571429 6.23571429,5.01428571 6.42857143,4.82142857 C6.62142857,4.62857143 6.94285714,4.62857143 7.13571429,4.82142857 L8.67857143,6.36428571 L10.2214286,4.82142857 C10.4142857,4.62857143 10.7357143,4.62857143 10.9285714,4.82142857 C11.1214286,5.01428571 11.1214286,5.33571429 10.9285714,5.52857143 L9,7.45714286 C9.06428571,7.39285714 8.87142857,7.52142857 8.74285714,7.52142857" id="Fill-7"></path>
                        <path d="M8.74285714,1.02857143 C4.5,1.02857143 1.02857143,4.5 1.02857143,8.74285714 C1.02857143,12.9857143 4.5,16.4571429 8.74285714,16.4571429 C12.9857143,16.4571429 16.4571429,12.9857143 16.4571429,8.74285714 C16.4571429,4.5 12.9857143,1.02857143 8.74285714,1.02857143 M8.74285714,17.4857143 C3.92142857,17.4857143 0,13.5642857 0,8.74285714 C0,3.92142857 3.92142857,0 8.74285714,0 C13.5642857,0 17.4857143,3.92142857 17.4857143,8.74285714 C17.4857143,13.5642857 13.6285714,17.4857143 8.74285714,17.4857143" id="Fill-9"></path>
                        <path d="M14.8790903,5.14784 C14.7629613,5.14784 14.7048968,5.14784 14.5887677,5.02784 L12.0919935,2.74784 C11.9178,2.56784 11.9178,2.26784 12.0919935,2.08784 C12.2661871,1.90784 12.5565097,1.90784 12.7307032,2.08784 L14.8790903,4.12784 L16.8532839,1.90784 C17.0274774,1.72784 17.3178,1.72784 17.4919935,1.90784 C17.6661871,2.08784 17.6661871,2.38784 17.4919935,2.56784 L15.2855419,5.14784 C15.0532839,5.02784 14.9952194,5.14784 14.8790903,5.14784" id="Fill-1" transform="translate(14.791994, 3.460340) rotate(-32.000000) translate(-14.791994, -3.460340) "></path>
                    </g>
                </g>
            </g>
        </g>
    </g>
</svg>