<?xml version="1.0" encoding="UTF-8"?>
<svg width="18px" height="17px" viewBox="0 0 18 17" version="1.1" xmlns="http://www.w3.org/2000/svg" xmlns:xlink="http://www.w3.org/1999/xlink">

    <title>Group 22</title>
    <desc>Created with Sketch.</desc>
    <defs></defs>
    <g id="sid" stroke="none" stroke-width="1" fill="none" fill-rule="evenodd">
        <g id="3_ERP" transform="translate(-17.000000, -213.000000)">
            <g id="Group-5" transform="translate(0.000000, 199.000000)">
                <g id="Group-22" transform="translate(15.000000, 11.000000)">
                    <rect id="Rectangle-12" x="0" y="0" width="22" height="22"></rect>
                    <g id="5" transform="translate(2.000000, 3.000000)" fill="#2095F2">
                        <polygon id="Fill-4" points="0.514285714 9.41538462 16.9714286 9.41538462 16.9714286 8.36923077 0.514285714 8.36923077"></polygon>
                        <path d="M5.14279286,9.93846154 L5.14279286,7.84615385 C5.14279286,7.51923077 5.33565,7.32307692 5.65707857,7.32307692 C5.97850714,7.32307692 6.17136429,7.51923077 6.17136429,7.84615385 L6.17136429,9.93846154 C6.17136429,10.2653846 5.97850714,10.4615385 5.65707857,10.4615385 C5.33565,10.4615385 5.14279286,10.2653846 5.14279286,9.93846154 Z" id="Fill-6"></path>
                        <path d="M11.3142214,9.93846154 L11.3142214,7.84615385 C11.3142214,7.51923077 11.5070786,7.32307692 11.8285071,7.32307692 C12.1499357,7.32307692 12.3427929,7.51923077 12.3427929,7.84615385 L12.3427929,9.93846154 C12.3427929,10.2653846 12.1499357,10.4615385 11.8285071,10.4615385 C11.5070786,10.4615385 11.3142214,10.2653846 11.3142214,9.93846154 Z" id="Fill-7"></path>
                        <path d="M5.14279286,3.66153846 L5.14279286,1.89615385 C5.14279286,0.85 5.97850714,0 7.00707857,0 L10.6070786,0 C11.63565,0 12.4713643,0.85 12.4713643,1.89615385 L12.4713643,3.66153846 L11.4427929,3.66153846 L11.4427929,1.89615385 C11.4427929,1.50384615 11.1213643,1.04615385 10.6070786,1.04615385 L7.00707857,1.04615385 C6.62136429,1.04615385 6.17136429,1.37307692 6.17136429,1.89615385 L6.17136429,3.66153846 L5.14279286,3.66153846 Z" id="Fill-8"></path>
                        <path d="M2.57136429,4.18461538 C1.73565,4.18461538 1.02850714,4.90384615 1.02850714,5.75384615 L1.02850714,14.1230769 C1.02850714,14.9730769 1.73565,15.6923077 2.57136429,15.6923077 L14.9142214,15.6923077 C15.7499357,15.6923077 16.4570786,14.9730769 16.4570786,14.1230769 L16.4570786,5.75384615 C16.4570786,4.90384615 15.7499357,4.18461538 14.9142214,4.18461538 L2.57136429,4.18461538 Z M14.9142214,16.7384615 L2.57136429,16.7384615 C1.15707857,16.7384615 -6.42857143e-05,15.5615385 -6.42857143e-05,14.1230769 L-6.42857143e-05,5.75384615 C-6.42857143e-05,4.31538462 1.15707857,3.13846154 2.57136429,3.13846154 L14.9142214,3.13846154 C16.3285071,3.13846154 17.48565,4.31538462 17.48565,5.75384615 L17.48565,14.1230769 C17.48565,15.5615385 16.3927929,16.7384615 14.9142214,16.7384615 L14.9142214,16.7384615 Z" id="Fill-1"></path>
                    </g>
                </g>
            </g>
        </g>
    </g>
</svg>