<?xml version="1.0" encoding="UTF-8"?>
<svg width="19px" height="17px" viewBox="0 0 19 17" version="1.1" xmlns="http://www.w3.org/2000/svg" xmlns:xlink="http://www.w3.org/1999/xlink">

    <title>Group 28</title>
    <desc>Created with Sketch.</desc>
    <defs></defs>
    <g id="sid" stroke="none" stroke-width="1" fill="none" fill-rule="evenodd">
        <g id="3_ERP" transform="translate(-16.000000, -550.000000)">
            <g id="Group-9" transform="translate(0.000000, 536.000000)">
                <g id="Group-28" transform="translate(15.000000, 11.000000)">
                    <rect id="Rectangle-12" x="0" y="0" width="22" height="22"></rect>
                    <g id="公司" transform="translate(1.000000, 3.000000)" fill-rule="nonzero" fill="#2095F2">
                        <path d="M16.3386855,3.12713219 L13.7120446,3.12713219 C13.7515349,2.98658791 13.7731406,2.83855427 13.7731406,2.6854724 L13.7731406,1.64584768 C13.7731406,0.748876589 13.0475002,0.0191602738 12.1555493,0.0191602738 L6.84447391,0.0191602738 C5.95252302,0.0191602738 5.22688264,0.748900282 5.22688264,1.64584768 L5.22688264,2.6854724 C5.22688264,2.83855427 5.24848834,2.98658791 5.28797866,3.12713219 L2.6613377,3.12713219 C1.19805636,3.12713219 0.00760238636,4.3207868 0.00760238636,5.78801689 L0.00760238636,14.3200024 C0.00760238636,15.7872088 1.19807961,16.9808871 2.6613377,16.9808871 L16.3387088,16.9808871 C17.8019902,16.9808871 18.9924441,15.7872325 18.9924441,14.3200024 L18.9924441,5.78801691 C18.9924209,4.32078682 17.8019669,3.12713219 16.3386855,3.12713219 Z M6.38973059,2.6854724 L6.38973059,1.64584768 C6.38973059,1.40642471 6.59797341,1.20418789 6.84447391,1.20418789 L12.1555494,1.20418789 C12.4020499,1.20418789 12.6102927,1.4064484 12.6102927,1.64584768 L12.6102927,2.6854724 C12.6102927,2.92489537 12.4020499,3.12713219 12.1555494,3.12713219 L6.84447391,3.12713219 C6.59797339,3.12713219 6.38973059,2.92487168 6.38973059,2.6854724 Z M2.66131445,4.31215981 L6.84447391,4.31215981 L12.1555494,4.31215981 L16.3386856,4.31215981 C17.1607726,4.31215981 17.8295729,4.97423474 17.8295729,5.78801689 L17.8295729,6.9083183 L1.17042709,6.9083183 L1.17042709,5.78801689 C1.17042709,4.97423474 1.8392507,4.31215981 2.66131445,4.31215981 Z M11.4182805,8.09332222 C11.1601515,8.9591508 10.3514838,9.59273767 9.39639025,9.59273767 C8.44127345,9.59273767 7.63260573,8.9591508 7.37447675,8.09332222 L11.4182805,8.09332222 Z M16.3386855,15.7958358 L2.66131445,15.7958358 C1.83922745,15.7958358 1.17042709,15.1337609 1.17042709,14.3199787 L1.17042709,8.09332222 L6.1790923,8.09332222 C6.45824557,9.61838166 7.7946602,10.7777653 9.39639025,10.7777653 C10.9981203,10.7777653 12.3345349,9.61838166 12.6136882,8.09332222 L17.8295729,8.09332222 L17.8295729,14.3199787 C17.8295729,15.1337609 17.1607493,15.7958358 16.3386855,15.7958358 Z" id="Shape"></path>
                    </g>
                </g>
            </g>
        </g>
    </g>
</svg>