<?xml version="1.0" encoding="UTF-8"?>
<svg width="18px" height="16px" viewBox="0 0 18 16" version="1.1" xmlns="http://www.w3.org/2000/svg" xmlns:xlink="http://www.w3.org/1999/xlink">
    <!-- Generator: Sketch 43.1 (39012) - http://www.bohemiancoding.com/sketch -->
    <title>Group 11</title>
    <desc>Created with Sketch.</desc>
    <defs></defs>
    <g id="app邮件" stroke="none" stroke-width="1" fill="none" fill-rule="evenodd">
        <g id="1-收件箱-copy" transform="translate(-101.000000, -388.000000)">
            <g id="Group-4" transform="translate(80.000000, 0.000000)">
                <g id="line" transform="translate(0.000000, 373.000000)">
                    <g id="Pin" transform="translate(19.000000, 11.000000)">
                        <g id="Group-11">
                            <rect id="Rectangle" x="0" y="0" width="22" height="22"></rect>
                            <g id="通讯录" transform="translate(2.000000, 4.000000)" fill-rule="nonzero" fill="#2095F2">
                                <path d="M13.4053778,15.3665282 L1.98624795,15.3665282 C0.848416063,15.3665282 0.019558619,14.6056892 0.019558619,13.5569707 L0.019558619,13.2243287 C0.019558619,12.318274 0.658499571,11.4514044 1.57509151,11.1175894 L4.37063826,9.87494122 C4.73334828,9.75707692 5.08161083,9.60651028 5.16280075,9.5332027 L5.16280075,9.5332027 C5.13534642,9.5332027 5.14182926,9.30533585 5.07638339,9.17963041 C5.05279818,9.13377715 4.99387632,9.04869752 4.91663785,8.93348811 C4.4256704,8.18186913 3.40041363,6.61845393 3.40041363,5.14676582 C3.40041363,2.31195154 5.31865655,0.00482025922 7.67684796,0.00482025922 C10.0376325,0.00482025922 11.9584686,2.31195156 11.9584686,5.14676582 C11.9584686,6.50071311 11.0485241,7.87159812 10.506476,8.69127669 C10.3544893,8.91784697 10.228825,9.09195766 10.1855648,9.19936707 C10.0913681,9.52272726 10.1162498,9.64713614 10.1162498,9.64849445 C10.148911,9.60004804 10.4618987,9.79373076 10.6844763,9.88154757 L13.8243548,11.1057968 C14.7291335,11.4304536 15.3720671,12.3038677 15.3720671,13.2256253 L15.3720671,13.5582879 C15.3720877,14.6056892 14.5432303,15.3665282 13.4053778,15.3665282 L13.4053778,15.3665282 Z M7.67666279,1.08780516 C5.93629679,1.08780516 4.51729466,2.89699222 4.51729466,5.12136949 C4.51729466,6.26132116 5.45753355,7.69754914 5.86093115,8.31121729 C5.96401868,8.47125095 6.05842124,8.58259124 6.09377846,8.64941599 C6.36476139,9.17444409 6.31314559,9.97088732 5.99307828,10.3345852 C5.69828377,10.6599623 5.02246263,10.8952792 4.74600532,10.9799473 L1.94903849,12.227082 C1.44382935,12.4122032 1.10260535,12.8485707 1.10260535,13.2797313 L1.10260535,13.6156662 C1.10260535,14.1089592 1.54693748,14.2835433 1.92915778,14.2835433 L13.4625298,14.2835433 C13.8447089,14.2835433 14.2890617,14.1089592 14.2890617,13.6156662 L14.2890617,13.2797313 C14.2890617,12.8353786 13.9478376,12.3923225 13.4809493,12.2231099 L10.2964318,10.9826021 C10.1311707,10.919132 9.55991892,10.6837533 9.2636632,10.3888147 C8.94623018,10.0845738 8.89465555,9.58605329 9.10624326,8.86927704 C9.16971339,8.66032363 9.31914813,8.43420612 9.5664635,8.05988872 C10.0425719,7.34179531 10.8399618,6.13973182 10.8399618,5.12136949 C10.8399618,2.89699224 9.4222768,1.08780516 7.67666279,1.08780516 L7.67666279,1.08780516 Z" id="Shape"></path>
                                <path d="M13.0754319,6.3604984 C12.7480585,6.3604984 12.4849168,6.19427003 12.4849168,5.84205605 C12.4849168,5.49373177 12.7480585,5.32748281 13.0754319,5.32748281 L17.4078245,5.32748281 C17.7351773,5.32748281 17.9813196,5.49373175 17.9813196,5.84205605 C17.9813196,6.19556661 17.6972064,6.3604984 17.3724467,6.3604984 L13.0754319,6.3604984 L13.0754319,6.3604984 L13.0754319,6.3604984 Z" id="Shape"></path>
                                <path d="M13.9553083,8.72402016 C13.6305692,8.72402016 13.3648343,8.5576683 13.3648343,8.2068332 C13.3648343,7.85593635 13.6305692,7.68958449 13.9553083,7.68958449 L17.4157274,7.68958449 C17.7429773,7.68958449 17.9708236,7.85593635 17.9708236,8.2068332 C17.9708236,8.5576683 17.7234053,8.72402016 17.3973491,8.72402016 L13.9553083,8.72402016 L13.9553083,8.72402016 L13.9553083,8.72402016 Z" id="Shape"></path>
                                <path d="M15.044735,10.9512375 C14.7200576,10.9512375 14.4568335,10.7849886 14.4568335,10.43403 C14.4568335,10.0831126 14.7200576,9.91943618 15.044735,9.91943618 L17.4261206,9.91943618 C17.7534733,9.91943618 17.9995951,10.0831126 17.9995951,10.43403 C17.9995951,10.7849886 17.7364533,10.9512375 17.406528,10.9512375 L15.044735,10.9512375 L15.044735,10.9512375 L15.044735,10.9512375 Z" id="Shape"></path>
                            </g>
                        </g>
                    </g>
                </g>
            </g>
        </g>
    </g>
</svg>