<?xml version="1.0" encoding="UTF-8"?>
<svg width="15px" height="18px" viewBox="0 0 15 18" version="1.1" xmlns="http://www.w3.org/2000/svg" xmlns:xlink="http://www.w3.org/1999/xlink">

    <title>Group 30</title>
    <desc>Created with Sketch.</desc>
    <defs>
        <polygon id="path-1" points="0 17.4214286 14.6086957 17.4214286 14.6086957 0 0 0"></polygon>
    </defs>
    <g id="sid" stroke="none" stroke-width="1" fill="none" fill-rule="evenodd">
        <g id="3_ERP" transform="translate(-18.000000, -638.000000)">
            <g id="Group-11" transform="translate(0.000000, 625.000000)">
                <g id="Group-30" transform="translate(15.000000, 11.000000)">
                    <rect id="Rectangle-12" x="0" y="0" width="22" height="22"></rect>
                    <g id="Page-1" transform="translate(3.000000, 2.000000)">
                        <path d="M3.58695652,0.964285714 C2.73913043,0.964285714 2.15217391,1.60714286 2.15217391,2.37857143 L2.15217391,14.9142857 C2.15217391,15.75 2.80434783,16.3285714 3.58695652,16.3285714 L12.1304348,16.3285714 C12.9782609,16.3285714 13.5652174,15.6857143 13.5652174,14.9142857 L13.5652174,2.37857143 C13.5652174,1.54285714 12.9130435,0.964285714 12.1304348,0.964285714 L3.58695652,0.964285714 L3.58695652,0.964285714 Z M12.1304348,17.4214286 L3.58695652,17.4214286 C2.2173913,17.4214286 1.10869565,16.2642857 1.10869565,14.9785714 L1.10869565,2.44285714 C1.10869565,1.09285714 2.2826087,0 3.58695652,0 L12.1304348,0 C13.5,0 14.6086957,1.15714286 14.6086957,2.44285714 L14.6086957,14.9785714 C14.6086957,16.2642857 13.5,17.4214286 12.1304348,17.4214286 L12.1304348,17.4214286 Z" id="Fill-1" fill="#2095F2"></path>
                        <path d="M2.60869565,5.07857143 L0.52173913,5.07857143 C0.195652174,5.07857143 0,4.88571429 0,4.56428571 C0,4.24285714 0.195652174,4.05 0.52173913,4.05 L2.60869565,4.05 C2.93478261,4.05 3.13043478,4.24285714 3.13043478,4.56428571 C3.13043478,4.88571429 2.93478261,5.07857143 2.60869565,5.07857143" id="Fill-3" fill="#2095F2"></path>
                        <path d="M2.60869565,10.5428571 L0.52173913,10.5428571 C0.195652174,10.5428571 0,10.35 0,10.0285714 C0,9.70714286 0.195652174,9.51428571 0.52173913,9.51428571 L2.60869565,9.51428571 C2.93478261,9.51428571 3.13043478,9.70714286 3.13043478,10.0285714 C3.13043478,10.2857143 2.93478261,10.5428571 2.60869565,10.5428571" id="Fill-5" fill="#2095F2"></path>
                        <path d="M2.60869565,13.3071429 L0.52173913,13.3071429 C0.195652174,13.3071429 0,13.1142857 0,12.7928571 C0,12.4714286 0.195652174,12.2785714 0.52173913,12.2785714 L2.60869565,12.2785714 C2.93478261,12.2785714 3.13043478,12.4714286 3.13043478,12.7928571 C3.13043478,13.1142857 2.93478261,13.3071429 2.60869565,13.3071429" id="Fill-7" fill="#2095F2"></path>
                        <path d="M2.60869565,7.84285714 L0.52173913,7.84285714 C0.195652174,7.84285714 0,7.65 0,7.32857143 C0,7.00714286 0.195652174,6.81428571 0.52173913,6.81428571 L2.60869565,6.81428571 C2.93478261,6.81428571 3.13043478,7.00714286 3.13043478,7.32857143 C3.13043478,7.65 2.93478261,7.84285714 2.60869565,7.84285714" id="Fill-9" fill="#2095F2"></path>
                        <path d="M8.80434783,6.42857143 C8.41304348,6.42857143 7.95652174,6.81428571 7.95652174,7.45714286 C7.95652174,8.1 8.34782609,8.48571429 8.80434783,8.48571429 C9.19565217,8.48571429 9.65217391,8.1 9.65217391,7.45714286 C9.65217391,6.81428571 9.32608696,6.42857143 8.80434783,6.42857143 M8.80434783,9.38571429 C7.76086957,9.38571429 6.91304348,8.48571429 6.91304348,7.32857143 C6.91304348,6.17142857 7.76086957,5.27142857 8.80434783,5.27142857 C9.84782609,5.27142857 10.6956522,6.17142857 10.6956522,7.32857143 C10.6956522,8.48571429 9.84782609,9.38571429 8.80434783,9.38571429" id="Fill-11" fill="#2095F2"></path>
                        <path d="M9.52173913,8.22857143 L9.65217391,8.22857143 C10.826087,8.22857143 11.6086957,9.12857143 11.6086957,10.1571429 L11.6086957,11.3785714 C11.6086957,11.7 11.4130435,11.8928571 11.0869565,11.8928571 C10.7608696,11.8928571 10.5652174,11.7 10.5652174,11.3785714 L10.5652174,10.1571429 C10.5652174,9.64285714 10.173913,9.25714286 9.65217391,9.25714286 L9.52173913,9.25714286 L9.52173913,8.22857143 L9.52173913,8.22857143 Z" id="Fill-13" fill="#2095F2"></path>
                        <path d="M8.15217391,9.25714286 L8.02173913,9.25714286 C7.5,9.25714286 7.10869565,9.64285714 7.10869565,10.1571429 L7.10869565,11.3785714 C7.10869565,11.7 6.91304348,11.8928571 6.58695652,11.8928571 C6.26086957,11.8928571 6.06521739,11.7 6.06521739,11.3785714 L6.06521739,10.1571429 C6.06521739,9 6.97826087,8.22857143 8.02173913,8.22857143 L8.15217391,8.22857143 L8.15217391,9.25714286 L8.15217391,9.25714286 Z" id="Fill-15" fill="#2095F2"></path>
                        <mask id="mask-2" fill="white">
                            <use xlink:href="#path-1"></use>
                        </mask>
                        <g id="Clip-18"></g>
                        <polygon id="Fill-17" fill="#2095F2" mask="url(#mask-2)" points="3.58695652 16.9071429 4.63043478 16.9071429 4.63043478 0.45 3.58695652 0.45"></polygon>
                    </g>
                </g>
            </g>
        </g>
    </g>
</svg>