<?xml version="1.0" encoding="UTF-8"?>
<svg width="18px" height="18px" viewBox="0 0 18 18" version="1.1" xmlns="http://www.w3.org/2000/svg" xmlns:xlink="http://www.w3.org/1999/xlink">

    <title>Group 20</title>
    <desc>Created with Sketch.</desc>
    <defs></defs>
    <g id="sid" stroke="none" stroke-width="1" fill="none" fill-rule="evenodd">
        <g id="3_ERP" transform="translate(-16.000000, -114.000000)">
            <g id="Group-2" transform="translate(0.000000, 100.000000)">
                <g id="Group-20" transform="translate(13.000000, 12.000000)">
                    <rect id="Rectangle-12" x="0" y="0" width="22" height="22"></rect>
                    <g id="Page-1" transform="translate(3.000000, 2.000000)" fill="#2095F2">
                        <path d="M16.9714286,17.4857786 L0.514285714,17.4857786 C0.192857143,17.4857786 0,17.2929214 0,16.9714929 L0,0.51435 C0,0.192921429 0.192857143,6.42857143e-05 0.514285714,6.42857143e-05 C0.835714286,6.42857143e-05 1.02857143,0.192921429 1.02857143,0.51435 L1.02857143,16.4572071 L16.9714286,16.4572071 C17.2928571,16.4572071 17.4857143,16.6500643 17.4857143,16.9714929 C17.4857143,17.2929214 17.2928571,17.4857786 16.9714286,17.4857786" id="Fill-1"></path>
                        <path d="M0.514285714,11.31435 C0.321428571,11.31435 0.192857143,11.1857786 0.128571429,11.1214929 C-0.0642857143,10.9286357 -2.56322741e-14,10.6072071 0.257142857,10.41435 L4.24285714,7.45720714 C4.43571429,7.32863571 4.62857143,7.32863571 4.88571429,7.45720714 L8.80714286,9.83577857 L15.6214286,3.47149286 C15.8142857,3.27863571 16.1357143,3.27863571 16.3285714,3.47149286 C16.5214286,3.66435 16.5214286,3.98577857 16.3285714,4.17863571 L9.25714286,10.86435 C9.06428571,11.0572071 8.87142857,11.0572071 8.61428571,10.9929214 L4.69285714,8.61435 L0.964285714,11.3786357 C0.771428571,11.31435 0.642857143,11.31435 0.514285714,11.31435" id="Fill-3"></path>
                        <path d="M5.07857143,16.9714929 L5.07857143,12.4714929 L4.05,12.4714929 L4.05,16.9714929 L3.02142857,16.9714929 L3.02142857,11.9572071 C3.02142857,11.6357786 3.21428571,11.4429214 3.53571429,11.4429214 L5.59285714,11.4429214 C5.91428571,11.4429214 6.10714286,11.6357786 6.10714286,11.9572071 L6.10714286,16.9714929 L5.07857143,16.9714929 Z" id="Fill-5"></path>
                        <path d="M9.70714286,16.9714929 L9.70714286,14.2072071 L8.67857143,14.2072071 L8.67857143,16.9714929 L7.65,16.9714929 L7.65,13.6929214 C7.65,13.3714929 7.84285714,13.1786357 8.16428571,13.1786357 L10.2214286,13.1786357 C10.5428571,13.1786357 10.7357143,13.3714929 10.7357143,13.6929214 L10.7357143,16.9714929 L9.70714286,16.9714929 Z" id="Fill-7"></path>
                        <path d="M14.3357143,16.9714929 L14.3357143,10.9286357 L13.3071429,10.9286357 L13.3071429,16.9714929 L12.2785714,16.9714929 L12.2785714,10.41435 C12.2785714,10.0929214 12.4714286,9.90006429 12.7928571,9.90006429 L14.85,9.90006429 C15.1714286,9.90006429 15.3642857,10.0929214 15.3642857,10.41435 L15.3642857,16.9714929 L14.3357143,16.9714929 Z" id="Fill-9"></path>
                    </g>
                </g>
            </g>
        </g>
    </g>
</svg>