<?xml version="1.0" encoding="UTF-8"?>
<svg width="18px" height="18px" viewBox="0 0 18 18" version="1.1" xmlns="http://www.w3.org/2000/svg" xmlns:xlink="http://www.w3.org/1999/xlink">
    <!-- Generator: Sketch 43.1 (39012) - http://www.bohemiancoding.com/sketch -->
    <title>Group 7</title>
    <desc>Created with Sketch.</desc>
    <defs></defs>
    <g id="app邮件" stroke="none" stroke-width="1" fill="none" fill-rule="evenodd">
        <g id="1-收件箱-copy" transform="translate(-101.000000, -210.000000)">
            <g id="Group-4" transform="translate(80.000000, 0.000000)">
                <g id="line" transform="translate(0.000000, 197.000000)">
                    <g id="Pin" transform="translate(19.000000, 11.000000)">
                        <g id="Group-7">
                            <rect id="Rectangle" x="0" y="0" width="22" height="22"></rect>
                            <g id="删除-(1)" transform="translate(2.000000, 2.000000)" fill-rule="nonzero" fill="#2095F2">
                                <g id="Group">
                                    <path d="M9.00040519,17.9891863 C6.59915215,17.9891863 4.34171655,17.0532512 2.64409081,15.3556255 C0.946465071,13.6579997 0.011214,11.4012482 0.011214,8.99999514 C0.011214,6.59874209 0.94646509,4.3413065 2.64409081,2.64368076 C4.34171653,0.946055023 6.59915215,0.0108039517 9.00040519,0.0108039517 C11.4016582,0.0108039517 13.6584098,0.946055023 15.3560355,2.64368076 L15.3560355,2.64368076 L15.3560355,2.64368076 C17.0536612,4.3413065 17.9895827,6.59872842 17.9895964,8.99999514 C17.98961,11.4012619 17.0536749,13.6580134 15.3560492,15.3556391 C13.6584234,17.0532649 11.4016582,17.9891863 9.00040519,17.9891863 Z M9.00040519,1.39376067 C6.96851887,1.39376067 5.05884725,2.18449658 3.62187694,3.62146689 C2.18490663,5.0584372 1.39415703,6.96809515 1.39417071,8.99999514 C1.39417071,11.0311974 2.18490663,12.940869 3.62187694,14.3778393 C5.05884725,15.8148097 6.96851887,16.6062296 9.00040519,16.6062296 C11.0316075,16.6062296 12.9412791,15.8148097 14.3782494,14.3778393 C15.8152197,12.940869 16.6066397,11.0311974 16.6066397,8.99999514 C16.6066397,6.96810882 15.8152197,5.05843722 14.3782494,3.62146689 L14.3782494,3.62146689 C12.9412791,2.18449656 11.0316075,1.39376067 9.00040519,1.39376067 Z" id="Shape"></path>
                                    <path d="M11.9337772,12.6248455 C11.7568512,12.6248455 11.5799388,12.5573285 11.4448773,12.4222671 L5.57813324,6.55552301 C5.30802408,6.28541386 5.30802408,5.84783236 5.57813324,5.57772321 C5.84824239,5.30761405 6.28582388,5.30761405 6.55593304,5.57772321 L12.4226771,11.4444673 C12.6927863,11.7145764 12.6927863,12.1521579 12.4226771,12.4222671 C12.287602,12.5573148 12.1106896,12.6248319 11.9337772,12.6248455 Z" id="Shape"></path>
                                    <path d="M6.06703315,12.6248455 C5.89010706,12.6248455 5.71319467,12.5573285 5.57813324,12.4222671 C5.30802408,12.1521579 5.30802408,11.7145764 5.57813324,11.4444673 L11.4448773,5.57772319 C11.7149865,5.30761404 12.152568,5.30761404 12.4226771,5.57772319 C12.6927863,5.84783234 12.6927863,6.28541384 12.4226771,6.55552299 L6.55593304,12.4222671 C6.42085796,12.5573148 6.24394554,12.6248319 6.06703315,12.6248455 Z" id="Shape"></path>
                                </g>
                            </g>
                        </g>
                    </g>
                </g>
            </g>
        </g>
    </g>
</svg>