<?xml version="1.0" encoding="UTF-8"?>
<svg width="17px" height="16px" viewBox="0 0 17 16" version="1.1" xmlns="http://www.w3.org/2000/svg" xmlns:xlink="http://www.w3.org/1999/xlink">
    <!-- Generator: Sketch 43.1 (39012) - http://www.bohemiancoding.com/sketch -->
    <title>Group 10</title>
    <desc>Created with Sketch.</desc>
    <defs></defs>
    <g id="app邮件" stroke="none" stroke-width="1" fill="none" fill-rule="evenodd">
        <g id="1-收件箱-copy" transform="translate(-101.000000, -343.000000)">
            <g id="Group-4" transform="translate(80.000000, 0.000000)">
                <g id="line" transform="translate(0.000000, 329.000000)">
                    <g id="Pin" transform="translate(19.000000, 11.000000)">
                        <g id="Group-10">
                            <rect id="Rectangle" x="0" y="0" width="22" height="22"></rect>
                            <g id="草稿箱-(1)" transform="translate(2.000000, 3.000000)" fill-rule="nonzero" fill="#2095F2">
                                <g id="Group">
                                    <path d="M5.12416464,0.00407545151 L5.12416464,2.49466149 L11.5445533,2.49466149 L11.5445533,0.00407545151 L5.12416464,0.00407545151 Z M11.1160487,2.05790894 L5.48804424,2.05790894 L5.48804424,0.46498961 L11.1160487,0.46498961 L11.1160487,2.05790894 Z" id="Shape"></path>
                                    <path d="M4.30742475,2.06605984 L4.30742475,4.55664589 L12.3612932,4.55664589 L12.3612932,2.06605984 L4.30742475,2.06605984 Z M11.8238188,4.11989333 L4.76387532,4.11989333 L4.76387532,2.526974 L11.8238188,2.526974 L11.8238188,4.11989333 Z" id="Shape"></path>
                                    <path d="M3.58927197,4.10029235 L3.58927197,8.7306845 L5.56819478,8.7306845 C5.56819478,8.7306845 5.56887402,10.2963371 5.56887402,10.4949669 C5.57343465,10.6981572 5.76595122,10.8118817 5.89335759,10.8103292 C6.02076397,10.8087766 11.0659789,10.8093588 11.1275958,10.8068359 C11.1892128,10.804313 11.4394649,10.7482271 11.4409204,10.4904062 C11.4423759,10.2325854 11.4385916,8.73078154 11.4385916,8.73078154 L13.0743031,8.73116968 L13.0743031,4.10029235 L3.58927197,4.10029235 Z M11.4455781,8.73427478 L11.4394649,10.1463217 L5.56858292,10.1432166 L5.57178506,8.7301023 L4.21427157,8.73999982 L4.21427157,4.7554697 L12.5288719,4.7554697 L12.5312007,8.73165485 L11.4455781,8.73427478 Z" id="Shape"></path>
                                    <path d="M16.8837829,7.65078689 L13.1193272,2.68096785 C13.0158883,2.54385802 12.8530643,2.46331933 12.6801488,2.46331933 L12.3336384,2.46331933 L12.3336384,3.56485565 L12.4069965,3.56485565 L15.8942245,8.16798109 L15.8942245,14.8855866 L1.11818988,14.8855866 L1.11818988,8.16788406 L4.60512678,3.56475862 L4.33090711,2.4632223 C4.15857373,2.4632223 3.99613788,2.54376098 3.89163166,2.68125895 L0.128146265,7.65078689 C0.055273311,7.74646297 0.0166535563,7.86309851 0.0166535563,7.98322729 L0.0166535563,15.4360637 C0.0166535563,15.7409463 0.263315407,15.9878992 0.566742475,15.9878992 L16.4446045,15.9878992 C16.749099,15.9878992 16.9953727,15.7409463 16.9953727,15.4360637 L16.9953727,7.98322729 C16.9953727,7.86300147 16.9567529,7.74646297 16.8837829,7.65078689 Z" id="Shape"></path>
                                    <path d="M3.76558377,7.19084308 L3.68067853,6.19623884 L2.18731666,8.20640678 C2.11240598,8.30722569 2.10114997,8.44064821 2.15772111,8.55214091 C2.21332192,8.66334252 2.32743456,8.73417775 2.452221,8.73417775 L5.57071768,8.73417775 L5.57071768,10.4775006 C5.57091175,10.6602167 5.71927759,10.8085826 5.90170256,10.8085826 L11.1104207,10.8085826 C11.2927486,10.8085826 11.4411145,10.6602167 11.4411145,10.4775006 L11.4411145,8.73427478 L14.55932,8.73427478 C14.6843976,8.73427478 14.7984132,8.66353659 14.8549843,8.55223795 C14.9108763,8.44074524 14.8996202,8.30732272 14.8248066,8.20650381 L12.9750368,5.71688812 L12.9148754,6.74526038 L13.9017168,8.0733724 L11.1103237,8.0733724 C10.9276076,8.0733724 10.7794358,8.22096196 10.7794358,8.40367804 L10.7794358,10.147292 L6.23239634,10.147292 L6.23239634,8.40367804 C6.23239634,8.22096196 6.08470974,8.07327536 5.90160553,8.07327536 L3.10992125,8.07327536 L3.76558377,7.19084308 Z" id="Shape"></path>
                                </g>
                            </g>
                        </g>
                    </g>
                </g>
            </g>
        </g>
    </g>
</svg>