<?xml version="1.0" encoding="UTF-8"?>
<svg width="18px" height="18px" viewBox="0 0 18 18" version="1.1" xmlns="http://www.w3.org/2000/svg" xmlns:xlink="http://www.w3.org/1999/xlink">
    <!-- Generator: Sketch 43.1 (39012) - http://www.bohemiancoding.com/sketch -->
    <title>Group 2</title>
    <desc>Created with Sketch.</desc>
    <defs></defs>
    <g id="app邮件" stroke="none" stroke-width="1" fill="none" fill-rule="evenodd">
        <g id="1-收件箱" transform="translate(-342.000000, -31.000000)">
            <g id="Group">
                <g id="Group-2" transform="translate(340.000000, 29.000000)">
                    <rect id="Rectangle" x="0" y="0" width="22" height="22"></rect>
                    <g id="Icons_Write-letters" transform="translate(2.000000, 2.000000)" fill="#FFFFFF">
                        <path d="M7.8066552,2.57142857 L1.65423765,2.57142857 C0.741075257,2.57142857 0,3.31083227 0,4.2228393 L0,16.3485893 C0,17.260507 0.739720526,18 1.65141073,18 L13.7771607,18 C14.6884988,18 15.4285714,17.2597138 15.4285714,16.349765 L15.4285714,8.91262984 C15.4285714,8.60830968 15.1818712,8.36160944 14.877551,8.36160944 C14.5732309,8.36160944 14.3265306,8.60830968 14.3265306,8.91262984 L14.3265306,16.349765 C14.3265306,16.6511446 14.0797873,16.8979592 13.7771607,16.8979592 L1.65141073,16.8979592 C1.34828499,16.8979592 1.10204082,16.6517907 1.10204082,16.3485893 L1.10204082,4.2228393 C1.10204082,3.92003039 1.34915921,3.67346939 1.65423765,3.67346939 L7.8066552,3.67346939 L8.90779868,3.67346939 C9.21211885,3.67346939 9.45881909,3.42676915 9.45881909,3.12244898 C9.45881909,2.81812881 9.21211885,2.57142857 8.90779868,2.57142857 L7.8066552,2.57142857 Z" id="Rectangle-344" fill-rule="nonzero"></path>
                        <path d="M9.53056386,6.73376773 C9.35557255,6.55877642 9.07265667,6.55797533 8.89592047,6.73471153 L8.89592047,6.73471153 C8.72040791,6.91022409 8.72209891,7.19647716 8.89497667,7.36935492 L10.8036258,9.2780041 C10.9786172,9.45299541 11.261533,9.4537965 11.4382692,9.2770603 L11.4382692,9.2770603 C11.6137818,9.10154774 11.6120908,8.81529466 11.439213,8.64241691 L9.53056386,6.73376773 L9.53056386,6.73376773 Z" id="Rectangle-938"></path>
                        <path d="M13.9777234,1.01732146 L8.20881596,6.78622885 C7.9669617,7.02808311 7.73147486,7.65704735 7.41725909,8.720914 C7.38910085,8.81625173 7.36071483,8.91405759 7.33214561,9.01409181 C7.21978836,9.40750716 7.10922468,9.81869804 7.00509104,10.2234041 C6.96865518,10.3650088 6.93561156,10.4957427 6.90655027,10.6125446 C6.88905214,10.6828723 6.87672591,10.7331107 6.870164,10.7601918 C6.79094044,11.0871485 7.08583229,11.3820403 7.41278896,11.3028168 C7.43987003,11.2962549 7.49010847,11.2839286 7.56043618,11.2664305 C7.67723805,11.2373692 7.80797193,11.2043256 7.94957664,11.1678897 C8.35428272,11.0637561 8.7654736,10.9531924 9.15888896,10.8408352 C9.25892318,10.8122659 9.35672904,10.7838799 9.45206677,10.7557217 C10.5159334,10.4415059 11.1448977,10.2060191 11.3867519,9.96416481 L17.1556593,4.19525741 C18.0342201,3.3166966 18.0352883,1.89116113 17.158554,1.0144268 C16.280407,0.13627982 14.8576789,0.137365871 13.9777234,1.01732146 L13.9777234,1.01732146 Z M16.5200721,3.55967022 L10.7511647,9.32857762 C10.6707783,9.40896404 10.0437624,9.64372139 9.19746021,9.89367895 C9.10477456,9.9210539 9.00955185,9.94869022 8.91204997,9.97653621 C8.52700161,10.0865039 8.12318498,10.1950847 7.72559071,10.2973885 C7.58639029,10.3332057 7.45796495,10.3656658 7.34340988,10.3941681 C7.27492341,10.4112081 7.22646271,10.4230981 7.20111602,10.4292398 L7.74374097,10.9718647 C7.74988263,10.9465181 7.76177268,10.8980574 7.77881269,10.8295709 C7.80731497,10.7150158 7.83977509,10.5865905 7.87559231,10.4473901 C7.97789604,10.0497958 8.08647688,9.64597915 8.19644455,9.2609308 C8.22429055,9.16342892 8.25192687,9.06820621 8.27930181,8.97552055 C8.52925937,8.12921833 8.76401673,7.50220247 8.84440315,7.42181604 L14.6133105,1.65290865 C15.1424581,1.12376114 15.9960623,1.12310953 16.5229668,1.650014 C17.0484626,2.17550981 17.0478209,3.03192147 16.5200721,3.55967022 L16.5200721,3.55967022 Z" id="Rectangle-937" fill-rule="nonzero"></path>
                    </g>
                </g>
            </g>
        </g>
    </g>
</svg>