<?xml version="1.0" encoding="UTF-8"?>
<svg width="18px" height="13px" viewBox="0 0 18 13" version="1.1" xmlns="http://www.w3.org/2000/svg" xmlns:xlink="http://www.w3.org/1999/xlink">
    <!-- Generator: Sketch 43.1 (39012) - http://www.bohemiancoding.com/sketch -->
    <title>Group 5</title>
    <desc>Created with Sketch.</desc>
    <defs></defs>
    <g id="app邮件" stroke="none" stroke-width="1" fill="none" fill-rule="evenodd">
        <g id="1-收件箱-copy" transform="translate(-101.000000, -124.000000)">
            <g id="Group-4" transform="translate(80.000000, 0.000000)">
                <g id="line" transform="translate(0.000000, 109.000000)">
                    <g id="Pin" transform="translate(19.000000, 10.000000)">
                        <g id="Group-5">
                            <rect id="Rectangle" x="0" y="0" width="22" height="22"></rect>
                            <g id="收件箱" transform="translate(2.000000, 5.000000)" fill-rule="nonzero" fill="#2095F2">
                                <path d="M15.7520661,12.7066116 L2.26446281,12.7066116 C1.02254545,12.7066116 0.0165289277,11.7598347 0.0165289277,10.5909091 L0.0165289277,2.12809917 C0.0165289277,0.95917355 1.02254545,0.0123967004 2.26446281,0.0123967004 L15.7520661,0.0123967004 C16.9939835,0.0123967004 18,0.95917355 18,2.12809917 L18,10.5909091 C18,11.7598347 16.9939835,12.7066116 15.7520661,12.7066116 Z M16.0609587,11.6201983 L10.8626777,6.52558679 L9.00826445,7.90185124 L7.07028099,6.53404959 L1.95557024,11.6201983 C2.0370248,11.6381818 15.9795041,11.6381818 16.0609587,11.6201983 Z M1.07438017,10.5909091 C1.07438017,10.6977521 1.09659503,10.7993058 1.12833058,10.8966281 L6.17428099,5.83057852 L1.07438017,2.12809917 L1.07438017,10.5909091 Z M1.64138843,1.07024794 L9.00826445,6.35950413 L16.3751405,1.07024794 L1.64138843,1.07024794 Z M16.9421488,2.12809917 L11.8422479,5.83057852 L16.8881984,10.8966281 C16.9199339,10.7993058 16.9421488,10.6977521 16.9421488,10.5909091 L16.9421488,2.12809917 Z" id="Shape"></path>
                            </g>
                        </g>
                    </g>
                </g>
            </g>
        </g>
    </g>
</svg>