<?xml version="1.0" encoding="UTF-8"?>
<svg width="19px" height="17px" viewBox="0 0 19 17" version="1.1" xmlns="http://www.w3.org/2000/svg" xmlns:xlink="http://www.w3.org/1999/xlink">
    <!-- Generator: Sketch 43.1 (39012) - http://www.bohemiancoding.com/sketch -->
    <title>Page 1</title>
    <desc>Created with Sketch.</desc>
    <defs></defs>
    <g id="app邮件" stroke="none" stroke-width="1" fill="none" fill-rule="evenodd">
        <g id="16-移动到文件夹" transform="translate(-21.000000, -77.000000)" stroke="#B8B8B8">
            <g id="list-2" transform="translate(0.000000, 64.000000)">
                <g id="Page-1" transform="translate(21.000000, 13.000000)">
                    <path d="M0.782608696,5.4137931 L0.782608696,15.6863711 C0.782608696,16.0174056 1.01217391,16.2380952 1.35652174,16.2380952 L17.426087,16.2380952 C17.7704348,16.2380952 18,16.0174056 18,15.6863711 L18,5.4137931 C18,5.08275862 17.7704348,4.86206897 17.426087,4.86206897 L8.24347826,4.86206897" id="Stroke-1"></path>
                    <path d="M0.782608696,6.51724138 L0.782608696,1.49655172 C0.782608696,1.22068966 1.06956522,1 1.41391304,1 L7.61217391,1 C7.95652174,1 8.24347826,1.22068966 8.24347826,1.49655172 L8.24347826,4.86206897" id="Stroke-3" stroke-linecap="round"></path>
                    <path d="M7.88865711,2.65517241 L17.426087,2.65517241 C17.7704348,2.65517241 18,2.87586207 18,3.20689655 L18,7.62068966" id="Stroke-5"></path>
                </g>
            </g>
        </g>
    </g>
</svg>