<?xml version="1.0" encoding="UTF-8"?>
<svg width="28px" height="27px" viewBox="0 0 28 27" version="1.1" xmlns="http://www.w3.org/2000/svg" xmlns:xlink="http://www.w3.org/1999/xlink">

    <title>1</title>
    <desc>Created with Sketch.</desc>
    <defs></defs>
    <g id="sid" stroke="none" stroke-width="1" fill="none" fill-rule="evenodd">
        <g id="1_Home-有消息" transform="translate(-33.000000, -200.000000)">
            <g id="Group-4" transform="translate(0.000000, 184.000000)">
                <g id="1" transform="translate(33.000000, 15.000000)">
                    <path d="M10.5,25.8 L0.8,25.8 C0.3,25.8 0,26.1 0,26.6 C0,27.1 0.3,27.4 0.8,27.4 L10.5,27.4 C10.8,27.4 11.3,27.1 11.3,26.6 C11.3,26.1 11,25.8 10.5,25.8" id="Fill-1" fill="#3C4859"></path>
                    <path d="M16.8,13.3 C16.6,13.3 14.2,11.8 11,11.8 C9.2,11.8 7.5,12.3 6.4,12.8 L6.4,3.9 C7.2,3.6 8.9,2.7 11,2.7 C13.8,2.7 15.9,4 15.9,4 C16.1,4 18.5,5.5 21.7,5.5 C23.2,5.5 24.3,5.2 25.3,4.8 L23.3,9.2 C23.1,9.5 23.1,9.9 23.3,10 L25.8,13.6 C25,14.1 23.5,14.6 21.7,14.6 C18.9,14.6 16.8,13.3 16.8,13.3 Z" id="Fill-3" fill="#2095F2"></path>
                    <path d="M16.8,13.3 C16.6,13.3 14.2,11.8 11,11.8 C9.2,11.8 7.5,12.3 6.4,12.8 L6.4,3.9 C7.2,3.6 8.9,2.7 11,2.7 C13.8,2.7 15.9,4 15.9,4 C16.1,4 18.5,5.5 21.7,5.5 C23.2,5.5 24.3,5.2 25.3,4.8 L23.3,9.2 C23.1,9.5 23.1,9.9 23.3,10 L25.8,13.6 C25,14.1 23.5,14.6 21.7,14.6 C18.9,14.6 16.8,13.3 16.8,13.3 Z M27.8,13.6 L25,9.6 L27.8,3.7 C28,3.4 27.8,3 27.6,2.7 C27.3,2.5 26.9,2.4 26.6,2.5 C26.6,2.5 24.5,3.8 21.7,3.8 C18.9,3.8 16.8,2.5 16.8,2.5 C16.6,2.5 14.2,1 11,1 C7.8,1 5.2,2.5 5.2,2.5 C5,2.7 4.9,3 4.9,3.2 L4.9,22.6 L3.6,22.6 C3.1,22.6 2.8,22.9 2.8,23.4 C2.8,23.9 3.1,24.2 3.6,24.2 L7.7,24.2 C8.2,24.2 8.5,23.9 8.5,23.4 C8.5,22.9 8.2,22.6 7.7,22.6 L6.5,22.6 L6.5,14.5 C7.3,14.2 9,13.3 11.1,13.3 C13.9,13.3 16,14.6 16,14.6 C16.2,14.6 18.6,16.1 21.8,16.1 C24.9,16.1 27.6,14.6 27.6,14.6 C27.8,14.4 27.9,14.3 27.9,14.1 C27.9,13.9 27.9,13.8 27.8,13.6" id="Fill-3" fill="#3C4859"></path>
                </g>
            </g>
        </g>
    </g>
</svg>