<?xml version="1.0" encoding="UTF-8"?>
<svg width="28px" height="26px" viewBox="0 0 28 26" version="1.1" xmlns="http://www.w3.org/2000/svg" xmlns:xlink="http://www.w3.org/1999/xlink">

    <title>5</title>
    <desc>Created with Sketch.</desc>
    <defs>
        <polygon id="path-1" points="0 25.6 27.2 25.6 27.2 0 0 0"></polygon>
    </defs>
    <g id="sid" stroke="none" stroke-width="1" fill="none" fill-rule="evenodd">
        <g id="1_Home-有消息" transform="translate(-33.000000, -279.000000)">
            <g id="Group-4" transform="translate(0.000000, 184.000000)">
                <g id="5" transform="translate(33.000000, 95.000000)">
                    <mask id="mask-2" fill="white">
                        <use xlink:href="#path-1"></use>
                    </mask>
                    <g id="Clip-5"></g>
                    <polygon id="Fill-4" fill="#2095F2" mask="url(#mask-2)" points="0.8 14.4 26.4 14.4 26.4 12.8 0.8 12.8"></polygon>
                    <path d="M7.9999,15.2 L7.9999,12 C7.9999,11.5 8.2999,11.2 8.7999,11.2 C9.2999,11.2 9.5999,11.5 9.5999,12 L9.5999,15.2 C9.5999,15.7 9.2999,16 8.7999,16 C8.2999,16 7.9999,15.7 7.9999,15.2 Z" id="Fill-6" fill="#2095F2" mask="url(#mask-2)"></path>
                    <path d="M17.5999,15.2 L17.5999,12 C17.5999,11.5 17.8999,11.2 18.3999,11.2 C18.8999,11.2 19.1999,11.5 19.1999,12 L19.1999,15.2 C19.1999,15.7 18.8999,16 18.3999,16 C17.8999,16 17.5999,15.7 17.5999,15.2 Z" id="Fill-7" fill="#2095F2" mask="url(#mask-2)"></path>
                    <path d="M7.9999,5.6 L7.9999,2.9 C7.9999,1.3 9.2999,0 10.8999,0 L16.4999,0 C18.0999,0 19.3999,1.3 19.3999,2.9 L19.3999,5.6 L17.7999,5.6 L17.7999,2.9 C17.7999,2.3 17.2999,1.6 16.4999,1.6 L10.8999,1.6 C10.2999,1.6 9.5999,2.1 9.5999,2.9 L9.5999,5.6 L7.9999,5.6 Z" id="Fill-8" fill="#2095F2" mask="url(#mask-2)"></path>
                    <path d="M3.9999,6.4 C2.6999,6.4 1.5999,7.5 1.5999,8.8 L1.5999,21.6 C1.5999,22.9 2.6999,24 3.9999,24 L23.1999,24 C24.4999,24 25.5999,22.9 25.5999,21.6 L25.5999,8.8 C25.5999,7.5 24.4999,6.4 23.1999,6.4 L3.9999,6.4 Z M23.1999,25.6 L3.9999,25.6 C1.7999,25.6 -0.0001,23.8 -0.0001,21.6 L-0.0001,8.8 C-0.0001,6.6 1.7999,4.8 3.9999,4.8 L23.1999,4.8 C25.3999,4.8 27.1999,6.6 27.1999,8.8 L27.1999,21.6 C27.1999,23.8 25.4999,25.6 23.1999,25.6 L23.1999,25.6 Z" id="Fill-1" fill="#3C4859" mask="url(#mask-2)"></path>
                </g>
            </g>
        </g>
    </g>
</svg>