<?xml version="1.0" encoding="UTF-8"?>
<svg width="27px" height="25px" viewBox="0 0 27 25" version="1.1" xmlns="http://www.w3.org/2000/svg" xmlns:xlink="http://www.w3.org/1999/xlink">

    <title>公司</title>
    <desc>Created with Sketch.</desc>
    <defs></defs>
    <g id="sid" stroke="none" stroke-width="1" fill="none" fill-rule="evenodd">
        <g id="1_Home-有消息" transform="translate(-129.000000, -200.000000)">
            <g id="Group-4" transform="translate(0.000000, 184.000000)">
                <g id="公司" transform="translate(129.000000, 15.000000)">
                    <path d="M23.2181321,5.59872381 L19.4855371,5.59872381 C19.5416549,5.39204104 19.5723577,5.17434452 19.5723577,4.94922411 L19.5723577,3.42036424 C19.5723577,2.1012891 18.5411845,1.02817687 17.2736754,1.02817687 L9.72635766,1.02817687 C8.45884851,1.02817687 7.42767533,2.10132394 7.42767533,3.42036424 L7.42767533,4.94922411 C7.42767533,5.17434452 7.45837817,5.39204104 7.51449599,5.59872381 L3.78190095,5.59872381 C1.70250115,5.59872381 0.0108033911,7.35409823 0.0108033911,9.51178954 L0.0108033911,22.0588271 C0.0108033911,24.2164835 1.70253419,25.9718928 3.78190095,25.9718928 L23.2181652,25.9718928 C25.297565,25.9718928 26.9892627,24.2165184 26.9892627,22.0588271 L26.9892627,9.51178958 C26.9892296,7.35409826 25.2975319,5.59872381 23.2181321,5.59872381 Z M9.08014347,4.94922411 L9.08014347,3.42036424 C9.08014347,3.06827163 9.37606748,2.77086454 9.72635766,2.77086454 L17.2736754,2.77086454 C17.6239656,2.77086454 17.9198896,3.06830647 17.9198896,3.42036424 L17.9198896,4.94922411 C17.9198896,5.30131672 17.6239656,5.59872381 17.2736754,5.59872381 L9.72635766,5.59872381 C9.37606744,5.59872381 9.08014347,5.30128188 9.08014347,4.94922411 Z M3.78186791,7.34141148 L9.72635766,7.34141148 L17.2736754,7.34141148 L23.2181321,7.34141148 C24.386361,7.34141148 25.3367615,8.31505109 25.3367615,9.51178954 L25.3367615,11.1592916 L1.6632385,11.1592916 L1.6632385,9.51178954 C1.6632385,8.31505109 2.61367205,7.34141148 3.78186791,7.34141148 Z M23.2181321,24.2291703 L3.78186791,24.2291703 C2.61363901,24.2291703 1.6632385,23.2555307 1.6632385,22.0587922 L1.6632385,12.9019444 L8.78081537,12.9019444 C9.17750686,15.1446789 11.0766224,16.8496548 13.3527651,16.8496548 C15.6289078,16.8496548 17.5280233,15.1446789 17.9247148,12.9019444 L25.3367615,12.9019444 L25.3367615,22.0587922 C25.3367615,23.2555307 24.3863279,24.2291703 23.2181321,24.2291703 Z" id="Shape" fill="#3C4859" fill-rule="nonzero"></path>
                    <path d="M16.2259776,12.9019444 C15.8591627,14.1752218 14.7100033,15.1069672 13.3527651,15.1069672 C11.9954939,15.1069672 10.8463345,14.1752218 10.4795196,12.9019444 L16.2259776,12.9019444 Z" id="Path" fill="#2095F2"></path>
                </g>
            </g>
        </g>
    </g>
</svg>