<?xml version="1.0" encoding="UTF-8"?>
<svg width="26px" height="23px" viewBox="0 0 26 23" version="1.1" xmlns="http://www.w3.org/2000/svg" xmlns:xlink="http://www.w3.org/1999/xlink">
    <!-- Generator: Sketch 43.1 (39012) - http://www.bohemiancoding.com/sketch -->
    <title>10</title>
    <desc>Created with Sketch.</desc>
    <defs></defs>
    <g id="首页、消息、工作台、我的" stroke="none" stroke-width="1" fill="none" fill-rule="evenodd" stroke-linecap="round" stroke-linejoin="round">
        <g id="1_Home-有消息" transform="translate(-129.000000, -358.000000)" stroke-width="1.5">
            <g id="Group-4" transform="translate(0.000000, 184.000000)">
                <g id="10" transform="translate(129.000000, 174.000000)">
                    <polyline id="Stroke-3" stroke="#3C4859" points="12.9897908 8.56884766 4.30751385 10.5545579 4.26819077 13.2200842 7.47200615 21.7901105 4.26819077 13.2200842 12.9897908 11.0860053"></polyline>
                    <path d="M8.60812923,6.20610263 L8.60812923,4.35239211 L12.9897908,4.35239211 M7.27169846,9.90578684 L7.27169846,6.42218158 L12.9897908,6.42218158" id="Stroke-5" stroke="#3C4859"></path>
                    <polyline id="Stroke-7" stroke="#3C4859" points="12.9897538 8.5760498 21.6720308 10.5545579 21.7113538 13.2200842 18.5075385 21.7901105 21.7113538 13.2200842 12.9897538 11.0860053"></polyline>
                    <path d="M17.3714154,6.20610263 L17.3714154,4.35239211 L12.9897538,4.35239211 M18.7078462,9.90578684 L18.7078462,6.42218158 L12.9897538,6.42218158" id="Stroke-9" stroke="#3C4859"></path>
                    <path d="M15.9353108,13.6911842 C15.9353108,14.0268158 15.6626338,14.2990789 15.32608,14.2990789 C14.9897108,14.2990789 14.7168492,14.0268158 14.7168492,13.6911842 C14.7168492,13.3555526 14.9897108,13.0832895 15.32608,13.0832895 C15.6624492,13.0832895 15.9353108,13.3555526 15.9353108,13.6911842 Z M12.9897723,11.0860789 L12.9897723,21.8916842 L12.9897723,11.0860789 Z M12.9897723,1.07921053 L12.9897723,1.07921053 C13.6143262,1.03942105 14.1251569,1.51634211 14.1251569,2.10028947 L14.1251569,4.35226316 L11.8543877,4.35226316 L11.8543877,2.10028947 C11.8543877,1.51597368 12.3654031,1.03942105 12.9897723,1.07921053 L12.9897723,1.07921053 Z" id="Stroke-11" stroke="#3C4859"></path>
                    <path d="M1.02326154,21.8916842 C1.92972308,21.4738947 2.69495385,20.6385 3.74283077,20.6385 C4.79070769,20.6385 5.71193846,21.8916842 6.81409231,21.8916842 C7.91643077,21.8916842 8.78338462,20.6385 9.88775385,20.6385 C10.9921231,20.6385 11.8891692,21.8916842 12.9724923,21.8916842 C14.056,21.8916842 14.8053538,20.6385 15.9108308,20.6385 C17.0163077,20.6385 18.0093538,21.8916842 19.1373538,21.8916842 C20.2653538,21.8916842 21.1697846,20.6385 22.2219077,20.6385 C23.2742154,20.6385 24.0449846,21.4738947 24.9562462,21.8916842" id="Stroke-1" stroke="#2095F2"></path>
                </g>
            </g>
        </g>
    </g>
</svg>