<?xml version="1.0" encoding="UTF-8"?>
<svg width="31px" height="23px" viewBox="0 0 31 23" version="1.1" xmlns="http://www.w3.org/2000/svg" xmlns:xlink="http://www.w3.org/1999/xlink">

    <title>Page 1</title>
    <desc>Created with Sketch.</desc>
    <defs>
        <polygon id="path-1" points="15.0210057 23.3789063 30.0418945 23.3789063 30.0418945 0.818261719 15.0210057 0.818261719 0.000116894531 0.818261719 0.000116894531 23.3789063"></polygon>
    </defs>
    <g id="sid" stroke="none" stroke-width="1" fill="none" fill-rule="evenodd">
        <g id="1_Home-有消息" transform="translate(-43.000000, -102.000000)">
            <g id="Group-2" transform="translate(0.000000, 74.000000)">
                <g id="Group-9" transform="translate(29.000000, 10.000000)">
                    <g id="1">
                        <g id="Page-1" transform="translate(14.000000, 17.000000)">
                            <g id="Group-3" transform="translate(0.000000, 0.350684)">
                                <mask id="mask-2" fill="white">
                                    <use xlink:href="#path-1"></use>
                                </mask>
                                <g id="Clip-2"></g>
                                <path d="M5.14347627,2.80546875 C3.50695283,2.80546875 1.98732393,4.32509766 1.98732393,5.96162109 L1.98732393,18.4693359 C1.98732393,20.1058594 3.50695283,21.6254883 5.14347627,21.6254883 L25.1324411,21.6254883 C26.7689646,21.6254883 28.2885935,20.1058594 28.2885935,18.4693359 L28.2885935,5.96162109 C28.2885935,4.32509766 26.7689646,2.80546875 25.1324411,2.80546875 L5.14347627,2.80546875 Z M24.8986521,23.3789063 L5.02658174,23.3789063 C2.22111299,23.3789063 0.000116894531,21.1579102 0.000116894531,18.3524414 L0.000116894531,5.84472656 C0.000116894531,3.03925781 2.22111299,0.818261719 5.02658174,0.818261719 L25.0155466,0.818261719 C27.8210153,0.818261719 30.0420114,3.03925781 30.0420114,5.84472656 L30.0420114,18.3524414 C30.0420114,21.0410156 27.7041208,23.3789063 24.8986521,23.3789063 L24.8986521,23.3789063 Z" id="Fill-1" fill="#FFFFFF" mask="url(#mask-2)"></path>
                            </g>
                            <path d="M29.5743164,7.59814453 L18.0017578,14.3780273 C17.3003906,14.9625 16.1314453,15.0793945 14.9625,15.0793945 C13.7935547,15.0793945 12.8583984,14.8456055 11.9232422,14.3780273 L0.350683594,7.59814453 L1.28583984,5.96162109 L12.8583984,12.7415039 C14.0273438,13.3259766 15.8976562,13.3259766 16.8328125,12.7415039 L28.4053711,5.96162109 L29.5743164,7.59814453 Z" id="Fill-4" fill="#FFFFFF"></path>
                            <polygon id="Fill-6" fill="#FFFFFF" points="2.15810684 22.1044052 0.708614648 20.9214325 8.76615469 11.0508583 10.2144779 12.233831"></polygon>
                            <polygon id="Fill-8" fill="#FFFFFF" points="27.9360396 22.2362622 19.8784995 12.3668569 21.3268228 11.1838843 29.3843628 21.0532896"></polygon>
                        </g>
                    </g>
                </g>
            </g>
        </g>
    </g>
</svg>