<?xml version="1.0" encoding="UTF-8"?>
<svg width="28px" height="26px" viewBox="0 0 28 26" version="1.1" xmlns="http://www.w3.org/2000/svg" xmlns:xlink="http://www.w3.org/1999/xlink">
    <!-- Generator: Sketch 43.1 (39012) - http://www.bohemiancoding.com/sketch -->
    <title>Page 1</title>
    <desc>Created with Sketch.</desc>
    <defs></defs>
    <g id="首页、消息、工作台、我的" stroke="none" stroke-width="1" fill="none" fill-rule="evenodd">
        <g id="1_Home" transform="translate(-129.000000, -279.000000)">
            <g id="Group-4" transform="translate(0.000000, 184.000000)">
                <g id="Group-17" transform="translate(129.000000, 95.000000)">
                    <g id="Page-1">
                        <path d="M14.4482143,9.37857143 L16.6853571,9.37857143 C17.1514286,9.37857143 17.4310714,9.65714286 17.4310714,10.1214286 C17.4310714,10.5857143 17.1514286,10.8642857 16.7785714,10.8642857 L13.4228571,10.8642857 L13.4228571,13.1857143 L16.6853571,13.1857143 C17.1514286,13.1857143 17.4310714,13.4642857 17.4310714,13.9285714 C17.5242857,14.3928571 17.1514286,14.6714286 16.7785714,14.6714286 L13.4228571,14.6714286 L13.4228571,17.9214286 C13.4228571,18.3857143 13.1432143,18.6642857 12.6771429,18.6642857 C12.2110714,18.6642857 11.9314286,18.3857143 11.9314286,17.9214286 L11.9314286,14.6714286 L8.66892857,14.6714286 C8.20285714,14.6714286 7.92321429,14.3928571 7.92321429,13.9285714 C7.92321429,13.4642857 8.20285714,13.1857143 8.66892857,13.1857143 L11.9314286,13.1857143 L11.9314286,10.8642857 L8.66892857,10.8642857 C8.20285714,10.8642857 7.92321429,10.5857143 7.92321429,10.1214286 C7.92321429,9.65714286 8.20285714,9.37857143 8.66892857,9.37857143 L10.7678571,9.37857143 L9.32142857,7.98571429 C9.04178571,7.70714286 9.04178571,7.24285714 9.32142857,6.96428571 C9.60107143,6.68571429 10.0671429,6.68571429 10.3467857,6.96428571 L12.5839286,9.19285714 L14.8210714,6.96428571 C15.1007143,6.68571429 15.5667857,6.68571429 15.8464286,6.96428571 C16.1260714,7.24285714 16.1260714,7.70714286 15.8464286,7.98571429 L14.4482143,9.37857143 Z" id="Combined-Shape" fill="#2095F2"></path>
                        <path d="M1.49142857,12.6285714 C1.49142857,18.7571429 6.525,23.7714286 12.6771429,23.7714286 C14.9242064,23.7714286 17.0220449,23.1024889 18.7798935,21.9546436 C18.7798935,16.1417372 16.042749,12.9764608 23.8392798,13.3533117 C23.8549163,13.1136524 23.8628571,12.8719908 23.8628571,12.6285714 C23.8628571,6.5 18.8292857,1.48571429 12.6771429,1.48571429 C6.525,1.48571429 1.49142857,6.5 1.49142857,12.6285714 Z M0,12.6285714 C0,5.66428571 5.68607143,0 12.6771429,0 C19.6682143,0 25.3542857,5.66428571 25.3542857,12.6285714 C25.3542857,13.0431426 25.3344669,13.453107 25.2956943,13.8575441 C16.311792,13.2175836 18.5583569,13.8575441 18.5583569,23.6786561 C16.8074626,24.6383527 14.8087297,25.2571429 12.6771429,25.2571429 C5.68607143,25.2571429 0,19.5928571 0,12.6285714 Z" id="Fill-9" fill="#3C4859"></path>
                        <path d="M17.9540161,13.9932564 C17.9540161,13.444696 18.4023196,13 18.9590961,13 L26.5095197,13 C27.06461,13 27.5145996,13.446372 27.5145996,13.9932564 L27.5145996,24.1441677 C27.5145996,24.692728 27.0662961,25.137424 26.5095197,25.137424 L18.9590961,25.137424 C18.4040057,25.137424 17.9540161,24.6910521 17.9540161,24.1441677 L17.9540161,13.9932564 Z M19.2817963,14.3309801 L19.2817963,23.8790012 L26.2210693,23.8790012 L26.2210693,14.3309801 L19.2817963,14.3309801 Z M20.4297424,16.0294615 C20.4297424,15.7513181 20.65144,15.5258382 20.9287427,15.5258382 L24.2807421,15.5258382 C24.5563324,15.5258382 24.7797424,15.7513111 24.7797424,16.0299597 L24.7797424,16.1503771 L24.7797424,16.2423685 C24.7797424,16.516718 24.5580449,16.7391222 24.2807421,16.7391222 L20.9287427,16.7391222 C20.6531525,16.7391222 20.4297424,16.5129449 20.4297424,16.2418478 L20.4297424,16.1497599 L20.4297424,16.0294615 Z M20.4297424,18.9051207 C20.4297424,18.6342838 20.65144,18.4147271 20.9287427,18.4147271 L24.2807421,18.4147271 C24.5563324,18.4147271 24.7797424,18.6361846 24.7797424,18.9210314 L24.7797424,18.9917908 L24.7797424,19.026767 C24.7797424,19.3018571 24.5580449,19.5248617 24.2807421,19.5248617 L20.9287427,19.5248617 C20.6531525,19.5248617 20.4297424,19.3097267 20.4297424,19.0186617 L20.4297424,18.9959344 L20.4297424,18.9051207 Z M20.4297424,21.8028616 C20.4297424,21.5271359 20.65144,21.303616 20.9287427,21.303616 L24.2807421,21.303616 C24.5563324,21.303616 24.7797424,21.5261054 24.7797424,21.8122795 L24.7797424,21.8833686 L24.7797424,21.9185271 C24.7797424,22.1950503 24.5580449,22.4192166 24.2807421,22.4192166 L20.9287427,22.4192166 C20.6531525,22.4192166 20.4297424,22.1939945 20.4297424,21.917826 L20.4297424,21.8953145 L20.4297424,21.8028616 Z" id="Combined-Shape" fill="#3C4859"></path>
                    </g>
                </g>
            </g>
        </g>
    </g>
</svg>