<?xml version="1.0" encoding="UTF-8"?>
<svg width="27px" height="27px" viewBox="0 0 27 27" version="1.1" xmlns="http://www.w3.org/2000/svg" xmlns:xlink="http://www.w3.org/1999/xlink">
    <!-- Generator: Sketch 43.1 (39012) - http://www.bohemiancoding.com/sketch -->
    <title>3</title>
    <desc>Created with Sketch.</desc>
    <defs></defs>
    <g id="首页、消息、工作台、我的" stroke="none" stroke-width="1" fill="none" fill-rule="evenodd">
        <g id="1_Home-有消息" transform="translate(-221.000000, -199.000000)">
            <g id="Group-4" transform="translate(0.000000, 184.000000)">
                <g id="3" transform="translate(221.000000, 15.000000)">
                    <path d="M5.045625,0 L0.381875,6.7023125 L0,7.255625 L0,25.61 L15.8103638,25.61 L26,25.61 L26,7.255625 L25.618125,6.7023125 L20.954375,0 L5.045625,0 Z M5.89875,1.625 L20.10125,1.625 L23.635625,6.7023125 L2.364375,6.7023125 L5.89875,1.625 Z M22.32,8.328125 L24.375,8.328125 L24.375,23.985 L1.625,23.985 L1.625,8.328125 L12.398125,8.328125 L22.32,8.328125 Z M3.68,12.9025 L16.68,12.9025 L16.68,11.2775 L3.68,11.2775 L3.68,12.9025 Z M3.6824375,16.96825 L12.68,16.96825 L12.68,15.34325 L3.6824375,15.34325 L3.6824375,16.96825 Z M3.6824375,21.03075 L11.0024375,21.03075 L11.0024375,19.40575 L3.6824375,19.40575 L3.6824375,21.03075 Z" id="Fill-1" fill="#3C4859"></path>
                    <circle id="Path" fill="#FFFFFF" cx="20" cy="20" r="7"></circle>
                    <path d="M20,26 C16.6862915,26 14,23.3137085 14,20 C14,16.6862915 16.6862915,14 20,14 C23.3137085,14 26,16.6862915 26,20 C26,23.3137085 23.3137085,26 20,26 Z M20,24.9090909 C22.711216,24.9090909 24.9090909,22.711216 24.9090909,20 C24.9090909,17.288784 22.711216,15.0909091 20,15.0909091 C17.288784,15.0909091 15.0909091,17.288784 15.0909091,20 C15.0909091,22.711216 17.288784,24.9090909 20,24.9090909 Z M19.6275084,20.2591261 C18.7284699,20.2591261 18,19.5509905 18,18.6847276 C18,17.8150271 18.7284699,17.1103291 19.6275084,17.1103291 L19.7483278,17.1103291 L19.7483278,16.4125062 C19.7483278,16.1856278 19.9402174,16 20.1747492,16 C20.4092809,16 20.6011706,16.1856278 20.6011706,16.4125062 L20.6011706,17.1103291 L21.5606187,17.1103291 C21.7951505,17.1103291 21.9870401,17.2959569 21.9870401,17.5228352 C21.9870401,17.7497136 21.7951505,17.9353414 21.5606187,17.9353414 L19.6275084,17.9353414 C19.201087,17.9353414 18.8528428,18.2722214 18.8528428,18.6847276 C18.8528428,19.0972338 19.201087,19.4341138 19.6275084,19.4341138 L20.72199,19.4341138 C21.6210284,19.4341138 22.3494983,20.1388118 22.3494983,21.0085123 C22.3494983,21.8679001 21.631689,22.5725982 20.7326505,22.5829108 L20.6011706,22.5829108 L20.6011706,23.2910464 C20.6011706,23.5179248 20.4092809,23.7035525 20.1747492,23.7035525 C19.9402174,23.7035525 19.7483278,23.5179248 19.7483278,23.2910464 L19.7483278,22.5829108 L18.7533445,22.5829108 C18.5188127,22.5829108 18.3269231,22.397283 18.3269231,22.1704046 C18.3269231,21.9435262 18.5188127,21.7578985 18.7533445,21.7578985 L20.72199,21.7578985 C21.1484114,21.7578985 21.4966555,21.4210185 21.4966555,21.0085123 C21.4966555,20.5960061 21.1484114,20.2591261 20.72199,20.2591261 L19.6275084,20.2591261 Z" id="Combined-Shape" fill="#2095F2"></path>
                </g>
            </g>
        </g>
    </g>
</svg>