<?xml version="1.0" encoding="UTF-8"?>
<svg width="26px" height="26px" viewBox="0 0 26 26" version="1.1" xmlns="http://www.w3.org/2000/svg" xmlns:xlink="http://www.w3.org/1999/xlink">

    <title>3</title>
    <desc>Created with Sketch.</desc>
    <defs></defs>
    <g id="sid" stroke="none" stroke-width="1" fill="none" fill-rule="evenodd">
        <g id="1_Home-有消息" transform="translate(-221.000000, -200.000000)">
            <g id="Group-4" transform="translate(0.000000, 184.000000)">
                <g id="3" transform="translate(221.000000, 16.000000)">
                    <path d="M5.045625,0.0001625 L0.381875,6.702475 L0,7.2557875 L0,25.6101625 L26,25.6101625 L26,7.2557875 L25.618125,6.702475 L20.954375,0.0001625 L5.045625,0.0001625 Z M5.89875,1.6251625 L20.10125,1.6251625 L23.635625,6.702475 L2.364375,6.702475 L5.89875,1.6251625 Z M21.32,8.3282875 L24.375,8.3282875 L24.375,23.9851625 L1.625,23.9851625 L1.625,8.3282875 L13.398125,8.3282875 L13.398125,17.4770375 L17.355,15.1370375 L21.32,17.4770375 L21.32,8.3282875 Z M15.023125,8.3282875 L19.695,8.3282875 L19.695,14.6332875 L17.355,13.2520375 L15.023125,14.6332875 L15.023125,8.3282875 Z" id="Fill-1" fill="#3C4859"></path>
                    <polygon id="Fill-1" fill="#2095F2" points="15.023125 8.3282875 19.695 8.3282875 19.695 14.6332875 17.355 13.2520375 15.023125 14.6332875"></polygon>
                    <polygon id="Fill-2" fill="#3C4859" points="4.68 12.9025 10.976875 12.9025 10.976875 11.2775 4.68 11.2775"></polygon>
                    <polygon id="Fill-3" fill="#3C4859" points="4.6824375 16.96825 10.9793125 16.96825 10.9793125 15.34325 4.6824375 15.34325"></polygon>
                    <polygon id="Fill-4" fill="#3C4859" points="4.6824375 21.03075 10.9793125 21.03075 10.9793125 19.40575 4.6824375 19.40575"></polygon>
                    <polygon id="Fill-5" fill="#3C4859" points="14.2081875 21.03075 20.5050625 21.03075 20.5050625 19.40575 14.2081875 19.40575"></polygon>
                </g>
            </g>
        </g>
    </g>
</svg>