<?xml version="1.0" encoding="UTF-8"?>
<svg width="25px" height="24px" viewBox="0 0 25 24" version="1.1" xmlns="http://www.w3.org/2000/svg" xmlns:xlink="http://www.w3.org/1999/xlink">

    <title>9</title>
    <desc>Created with Sketch.</desc>
    <defs></defs>
    <g id="sid" stroke="none" stroke-width="1" fill="none" fill-rule="evenodd">
        <g id="1_Home-有消息" transform="translate(-34.000000, -358.000000)">
            <g id="Group-4" transform="translate(0.000000, 184.000000)">
                <g id="9" transform="translate(34.000000, 174.000000)">
                    <path d="M17.96875,18.5806452 L10.15625,18.5806452 C9.72421875,18.5806452 9.375,18.9267097 9.375,19.3548387 C9.375,19.7829677 9.72421875,20.1290323 10.15625,20.1290323 L17.96875,20.1290323 C18.4007813,20.1290323 18.75,19.7829677 18.75,19.3548387 C18.75,18.9267097 18.4007813,18.5806452 17.96875,18.5806452 M17.96875,15.483871 L10.15625,15.483871 C9.72421875,15.483871 9.375,15.8299355 9.375,16.2580645 C9.375,16.6861935 9.72421875,17.0322581 10.15625,17.0322581 L17.96875,17.0322581 C18.4007813,17.0322581 18.75,16.6861935 18.75,16.2580645 C18.75,15.8299355 18.4007813,15.483871 17.96875,15.483871 M17.96875,12.3870968 L10.15625,12.3870968 C9.72421875,12.3870968 9.375,12.7331613 9.375,13.1612903 C9.375,13.5894194 9.72421875,13.9354839 10.15625,13.9354839 L17.96875,13.9354839 C18.4007813,13.9354839 18.75,13.5894194 18.75,13.1612903 C18.75,12.7331613 18.4007813,12.3870968 17.96875,12.3870968 M10.15625,10.8387097 L17.96875,10.8387097 C18.4007813,10.8387097 18.75,10.4926452 18.75,10.0645161 C18.75,9.6363871 18.4007813,9.29032258 17.96875,9.29032258 L10.15625,9.29032258 C9.72421875,9.29032258 9.375,9.6363871 9.375,10.0645161 C9.375,10.4926452 9.72421875,10.8387097 10.15625,10.8387097 M10.15625,7.74193548 L13.28125,7.74193548 C13.7132813,7.74193548 14.0625,7.39587097 14.0625,6.96774194 C14.0625,6.5396129 13.7132813,6.19354839 13.28125,6.19354839 L10.15625,6.19354839 C9.72421875,6.19354839 9.375,6.5396129 9.375,6.96774194 C9.375,7.39587097 9.72421875,7.74193548 10.15625,7.74193548 M10.15625,4.64516129 L13.28125,4.64516129 C13.7132813,4.64516129 14.0625,4.29909677 14.0625,3.87096774 C14.0625,3.44283871 13.7132813,3.09677419 13.28125,3.09677419 L10.15625,3.09677419 C9.72421875,3.09677419 9.375,3.44283871 9.375,3.87096774 C9.375,4.29909677 9.72421875,4.64516129 10.15625,4.64516129" id="Fill-1" fill="#2095F2"></path>
                    <path d="M21.09375,6.19354839 L14.315625,6.19354839 C14.6539063,5.48903226 14.84375,4.70167742 14.84375,3.87096774 C14.84375,3.04025806 14.6539063,2.25290323 14.315625,1.5483871 L21.09375,1.5483871 C22.3859375,1.5483871 23.4375,2.59045161 23.4375,3.87096774 C23.4375,5.15148387 22.3859375,6.19354839 21.09375,6.19354839 L21.09375,6.19354839 Z M20.3125,20.1290323 C20.3125,20.9837419 19.6109375,21.6774194 18.75,21.6774194 L7.01328125,21.6774194 C7.50703125,21.0301935 7.8125,20.2350968 7.8125,19.3625806 L7.8125,3.09677419 C7.8125,2.24283871 8.5140625,1.5483871 9.375,1.5483871 L12.4820313,1.5483871 C12.9765625,2.19716129 13.28125,2.99535484 13.28125,3.87096774 C13.28125,4.73651613 12.984375,5.52774194 12.5,6.17264516 L12.5,7.74193548 L20.3125,7.74193548 L20.3125,20.1290323 Z M6.25,19.3625806 C6.25,20.6190968 5.240625,21.6363871 3.98203125,21.6774194 L3.90625,21.6774194 C2.6140625,21.6774194 1.5625,20.6353548 1.5625,19.3548387 C1.5625,18.0743226 2.6140625,17.0322581 3.90625,17.0322581 L6.25,17.0322581 L6.25,19.3625806 Z M21.09375,0 L9.375,0 C7.64921875,0 6.25,1.38658065 6.25,3.09677419 L6.25,15.483871 L3.90625,15.483871 C1.7484375,15.483871 0,17.2165161 0,19.3548387 C0,21.36 1.15390625,23.0291613 3.125,23.2258065 L18.75,23.2258065 C20.4757813,23.2258065 21.875,21.8392258 21.875,20.1290323 L21.875,7.66374194 C23.6578125,7.30529032 25,5.74374194 25,3.87096774 C25,1.73264516 23.2515625,0 21.09375,0 L21.09375,0 Z M3.125,23.2258065 C2.9953125,23.2420645 3.25859375,23.2258065 3.125,23.2258065 L3.125,23.2258065 Z" id="Fill-3" fill="#3C4859"></path>
                </g>
            </g>
        </g>
    </g>
</svg>