<?xml version="1.0" encoding="UTF-8"?>
<svg width="23px" height="28px" viewBox="0 0 23 28" version="1.1" xmlns="http://www.w3.org/2000/svg" xmlns:xlink="http://www.w3.org/1999/xlink">

    <title>6</title>
    <desc>Created with Sketch.</desc>
    <defs></defs>
    <g id="sid" stroke="none" stroke-width="1" fill="none" fill-rule="evenodd">
        <g id="1_Home-有消息" transform="translate(-131.000000, -278.000000)">
            <g id="Group-4" transform="translate(0.000000, 184.000000)">
                <g id="6" transform="translate(131.000000, 94.000000)">
                    <path d="M4,1.6 C2.7,1.6 1.6,2.7 1.6,4 L1.6,23.2 C1.6,24.5 2.7,25.6 4,25.6 L18.4,25.6 C19.7,25.6 20.8,24.5 20.8,23.2 L20.8,4 C20.8,2.7 19.7,1.6 18.4,1.6 L4,1.6 Z M18.4,27.2 L4,27.2 C1.8,27.2 0,25.4 0,23.2 L0,4 C0,1.8 1.8,0 4,0 L18.4,0 C20.6,0 22.4,1.8 22.4,4 L22.4,23.2 C22.4,25.4 20.7,27.2 18.4,27.2 L18.4,27.2 Z" id="Fill-1" fill="#3C4859"></path>
                    <path d="M11,20.2 C8.3,20.2 6,18.6 6,16.5 C6,16 6.3,15.7 6.8,15.7 C7.3,15.7 7.6,16 7.6,16.5 C7.6,17.6 9.2,18.6 11,18.6 C12.8,18.6 14.4,17.6 14.4,16.5 C14.4,15.4 12.8,14.4 11,14.4 C8.3,14.4 6,12.8 6,10.7 C6,8.6 8.2,7 11,7 C13.8,7 16,8.6 16,10.7 C16,11.2 15.7,11.5 15.2,11.5 C14.7,11.5 14.4,11.2 14.4,10.7 C14.4,9.6 12.8,8.6 11,8.6 C9.2,8.6 7.6,9.6 7.6,10.7 C7.6,11.8 9.2,12.8 11,12.8 C13.7,12.8 16,14.4 16,16.5 C16,18.6 13.8,20.2 11,20.2" id="Fill-3" fill="#2095F2"></path>
                    <path d="M10.8,22 C10.3,22 10,21.7 10,21.2 L10,6.8 C10,6.3 10.3,6 10.8,6 C11.3,6 11.6,6.3 11.6,6.8 L11.6,21.2 C11.6,21.7 11.3,22 10.8,22" id="Fill-5" fill="#2095F2"></path>
                </g>
            </g>
        </g>
    </g>
</svg>