<?xml version="1.0" encoding="UTF-8"?>
<svg width="21px" height="28px" viewBox="0 0 21 28" version="1.1" xmlns="http://www.w3.org/2000/svg" xmlns:xlink="http://www.w3.org/1999/xlink">

    <title>7</title>
    <desc>Created with Sketch.</desc>
    <defs>
        <polygon id="path-1" points="10.40005 28 20.8 28 20.8 0.8 10.40005 0.8 0.0001 0.8 0.0001 28 10.40005 28"></polygon>
    </defs>
    <g id="sid" stroke="none" stroke-width="1" fill="none" fill-rule="evenodd">
        <g id="1_Home-有消息" transform="translate(-223.000000, -279.000000)">
            <g id="Group-4" transform="translate(0.000000, 184.000000)">
                <g id="7" transform="translate(223.000000, 94.000000)">
                    <g id="Group-3" transform="translate(0.000000, 0.200000)">
                        <mask id="mask-2" fill="white">
                            <use xlink:href="#path-1"></use>
                        </mask>
                        <g id="Clip-2"></g>
                        <path d="M4.0001,2.4 C2.7001,2.4 1.6001,3.5 1.6001,4.8 L1.6001,24 C1.6001,25.3 2.7001,26.4 4.0001,26.4 L16.8001,26.4 C18.1001,26.4 19.2001,25.3 19.2001,24 L19.2001,11.8 C19.2001,11.6 19.0001,11.3 19.0001,11.2 L10.4001,2.6 C10.2001,2.4 10.1001,2.4 9.8001,2.4 L4.0001,2.4 L4.0001,2.4 Z M16.8001,28 L4.0001,28 C1.8001,28 0.0001,26.2 0.0001,24 L0.0001,4.8 C0.0001,2.6 1.8001,0.8 4.0001,0.8 L9.8001,0.8 C10.4001,0.8 11.1001,1.1 11.6001,1.4 L20.2001,10 C20.7001,10.5 20.8001,11.1 20.8001,11.8 L20.8001,24 C20.8001,26.2 19.1001,28 16.8001,28 L16.8001,28 Z" id="Fill-1" fill="#3C4859" mask="url(#mask-2)"></path>
                    </g>
                    <g id="Group-6" transform="translate(9.000000, 0.200000)" fill="#3C4859">
                        <path d="M11.0001,12 L4.6001,12 C2.4001,12 0.6001,10.2 0.6001,8 L0.6001,1.6 C0.6001,1.1 0.9001,0.8 1.4001,0.8 C1.9001,0.8 2.2001,1.1 2.2001,1.6 L2.2001,8 C2.2001,9.3 3.3001,10.4 4.6001,10.4 L11.0001,10.4 C11.5001,10.4 11.8001,10.7 11.8001,11.2 C11.8001,11.7 11.5001,12 11.0001,12" id="Fill-4"></path>
                    </g>
                    <path d="M9.2001,22.3 C8.6001,22.3 8.1001,22.1 7.8001,21.7 L6.0001,19.9 C5.7001,19.6 5.7001,19.1 6.0001,18.8 C6.3001,18.5 6.8001,18.5 7.1001,18.8 L8.9001,20.6 C9.1001,20.8 9.2001,20.8 9.2001,20.8 C9.4001,20.8 9.5001,20.8 9.5001,20.6 L13.8001,16.3 C14.1001,16 14.6001,16 14.9001,16.3 C15.2001,16.6 15.2001,17.1 14.9001,17.4 L10.6001,21.7 C10.3001,21.9 9.8001,22.3 9.2001,22.3" id="Fill-7" fill="#2095F2"></path>
                </g>
            </g>
        </g>
    </g>
</svg>