<?xml version="1.0" encoding="UTF-8"?>
<svg width="30px" height="28px" viewBox="0 0 30 28" version="1.1" xmlns="http://www.w3.org/2000/svg" xmlns:xlink="http://www.w3.org/1999/xlink">

    <title>Page 1</title>
    <desc>Created with Sketch.</desc>
    <defs></defs>
    <g id="sid" stroke="none" stroke-width="1" fill="none" fill-rule="evenodd">
        <g id="1_Home-有消息" transform="translate(-302.000000, -99.000000)">
            <g id="Group-2" transform="translate(0.000000, 74.000000)">
                <g id="Group-10" transform="translate(288.000000, 9.000000)">
                    <g id="4" transform="translate(0.000000, 1.000000)">
                        <g id="Page-1" transform="translate(14.000000, 15.000000)" fill="#FFFFFF">
                            <path d="M4.66515625,3.732125 C3.14898047,3.732125 1.8660625,5.01504297 1.8660625,6.53121875 L1.8660625,23.3257813 C1.8660625,24.841957 3.14898047,26.124875 4.66515625,26.124875 L25.1918437,26.124875 C26.7080195,26.124875 27.9909375,24.841957 27.9909375,23.3257813 L27.9909375,6.53121875 C27.9909375,5.01504297 26.7080195,3.732125 25.1918437,3.732125 L4.66515625,3.732125 Z M25.1918437,27.9909375 L4.66515625,27.9909375 C2.09932031,27.9909375 0,25.8916172 0,23.3257812 L0,6.53121875 C0,3.96538281 2.09932031,1.8660625 4.66515625,1.8660625 L25.1918437,1.8660625 C27.7576797,1.8660625 29.857,3.96538281 29.857,6.53121875 L29.857,23.3257812 C29.857,25.8916172 27.8743086,27.9909375 25.1918437,27.9909375 L25.1918437,27.9909375 Z" id="Fill-1"></path>
                            <path d="M9.3303125,5.5981875 C8.74716797,5.5981875 8.39728125,5.24830078 8.39728125,4.66515625 L8.39728125,0.93303125 C8.39728125,0.349886719 8.74716797,-3.55271368e-15 9.3303125,-3.55271368e-15 C9.91345703,-3.55271368e-15 10.2633438,0.349886719 10.2633438,0.93303125 L10.2633438,4.66515625 C10.2633438,5.24830078 9.91345703,5.5981875 9.3303125,5.5981875" id="Fill-3"></path>
                            <path d="M20.5266875,5.5981875 C19.943543,5.5981875 19.5936563,5.24830078 19.5936563,4.66515625 L19.5936563,0.93303125 C19.5936563,0.349886719 19.943543,-3.55271368e-15 20.5266875,-3.55271368e-15 C21.109832,-3.55271368e-15 21.4597188,0.349886719 21.4597188,0.93303125 L21.4597188,4.66515625 C21.4597188,5.24830078 21.109832,5.5981875 20.5266875,5.5981875" id="Fill-5"></path>
                            <path d="M27.9909375,11.196375 L1.8660625,11.196375 C1.28291797,11.196375 0.93303125,10.8464883 0.93303125,10.2633437 C0.93303125,9.68019922 1.28291797,9.3303125 1.8660625,9.3303125 L27.9909375,9.3303125 C28.574082,9.3303125 28.9239688,9.68019922 28.9239688,10.2633437 C28.9239688,10.8464883 28.574082,11.196375 27.9909375,11.196375" id="Fill-7"></path>
                            <path d="M6.53121875,23.3257812 C5.94807422,23.3257812 5.5981875,23.0925234 5.24830078,22.7426367 C4.89841406,22.39275 4.66515625,21.8096055 4.66515625,21.4597187 C4.66515625,20.8765742 4.89841406,20.5266875 5.24830078,20.1768008 C5.94807422,19.4770273 7.11436328,19.4770273 7.81413672,20.1768008 C8.16402344,20.5266875 8.39728125,21.109832 8.39728125,21.4597187 C8.39728125,21.8096055 8.16402344,22.39275 7.81413672,22.7426367 C7.46425,23.0925234 7.11436328,23.3257812 6.53121875,23.3257812" id="Fill-9"></path>
                            <path d="M6.53121875,17.7275937 C5.94807422,17.7275937 5.5981875,17.4943359 5.24830078,17.1444492 C4.89841406,16.7945625 4.66515625,16.4446758 4.66515625,15.8615312 C4.66515625,15.2783867 4.89841406,14.9285 5.24830078,14.5786133 C5.94807422,13.8788398 7.11436328,13.8788398 7.81413672,14.5786133 C8.16402344,14.9285 8.39728125,15.5116445 8.39728125,15.8615312 C8.39728125,16.211418 8.16402344,16.7945625 7.81413672,17.1444492 C7.46425,17.4943359 7.11436328,17.7275937 6.53121875,17.7275937" id="Fill-11"></path>
                            <path d="M12.1294063,23.3257812 C11.5462617,23.3257812 11.196375,23.0925234 10.8464883,22.7426367 C10.4966016,22.39275 10.2633438,21.8096055 10.2633438,21.4597187 C10.2633438,21.109832 10.4966016,20.5266875 10.8464883,20.1768008 C11.5462617,19.4770273 12.7125508,19.4770273 13.4123242,20.1768008 C13.7622109,20.5266875 13.9954687,21.109832 13.9954687,21.4597187 C13.9954687,21.8096055 13.7622109,22.39275 13.4123242,22.7426367 C13.0624375,23.0925234 12.7125508,23.3257812 12.1294063,23.3257812" id="Fill-13"></path>
                            <path d="M12.1294063,17.7275937 C11.5462617,17.7275937 11.196375,17.4943359 10.8464883,17.1444492 C10.4966016,16.7945625 10.2633438,16.211418 10.2633438,15.8615312 C10.2633438,15.5116445 10.4966016,14.9285 10.8464883,14.5786133 C11.5462617,13.8788398 12.7125508,13.8788398 13.4123242,14.5786133 C13.7622109,14.9285 13.9954687,15.5116445 13.9954687,15.8615312 C13.9954687,16.211418 13.7622109,16.7945625 13.4123242,17.1444492 C13.0624375,17.4943359 12.7125508,17.7275937 12.1294063,17.7275937" id="Fill-15"></path>
                            <path d="M17.7275937,23.3257812 C17.1444492,23.3257812 16.7945625,23.0925234 16.4446758,22.7426367 C16.0947891,22.39275 15.8615312,21.8096055 15.8615312,21.4597187 C15.8615312,21.109832 16.0947891,20.5266875 16.4446758,20.1768008 C17.1444492,19.4770273 18.3107383,19.4770273 19.0105117,20.1768008 C19.3603984,20.5266875 19.5936563,20.8765742 19.5936563,21.4597187 C19.5936563,22.0428633 19.3603984,22.39275 19.0105117,22.7426367 C18.660625,23.0925234 18.3107383,23.3257812 17.7275937,23.3257812" id="Fill-17"></path>
                            <path d="M17.7275937,17.7275937 C17.1444492,17.7275937 16.7945625,17.4943359 16.4446758,17.1444492 C16.0947891,16.7945625 15.8615312,16.211418 15.8615312,15.8615312 C15.8615312,15.5116445 16.0947891,14.9285 16.4446758,14.5786133 C17.1444492,13.8788398 18.3107383,13.8788398 19.0105117,14.5786133 C19.3603984,14.9285 19.5936563,15.5116445 19.5936563,15.8615312 C19.5936563,16.4446758 19.3603984,16.7945625 19.0105117,17.1444492 C18.660625,17.4943359 18.3107383,17.7275937 17.7275937,17.7275937" id="Fill-19"></path>
                            <path d="M23.3257812,23.3257812 C22.7426367,23.3257812 22.39275,23.0925234 22.0428633,22.7426367 C21.6929766,22.39275 21.4597187,21.8096055 21.4597187,21.4597187 C21.4597187,20.8765742 21.6929766,20.5266875 22.0428633,20.1768008 C22.7426367,19.4770273 23.9089258,19.4770273 24.6086992,20.1768008 C24.9585859,20.5266875 25.1918437,21.109832 25.1918437,21.4597187 C25.1918437,21.8096055 24.9585859,22.39275 24.6086992,22.7426367 C24.2588125,23.0925234 23.9089258,23.3257812 23.3257812,23.3257812" id="Fill-21"></path>
                            <path d="M23.3257812,17.7275937 C22.7426367,17.7275937 22.39275,17.4943359 22.0428633,17.1444492 C21.6929766,16.7945625 21.4597187,16.211418 21.4597187,15.8615312 C21.4597187,15.5116445 21.6929766,14.9285 22.0428633,14.5786133 C22.7426367,13.8788398 23.9089258,13.8788398 24.6086992,14.5786133 C24.9585859,14.9285 25.1918437,15.5116445 25.1918437,15.8615312 C25.1918437,16.4446758 24.9585859,16.7945625 24.6086992,17.1444492 C24.2588125,17.4943359 23.9089258,17.7275937 23.3257812,17.7275937" id="Fill-23"></path>
                        </g>
                    </g>
                </g>
            </g>
        </g>
    </g>
</svg>