<?xml version="1.0" encoding="UTF-8"?>
<svg width="26px" height="28px" viewBox="0 0 26 28" version="1.1" xmlns="http://www.w3.org/2000/svg" xmlns:xlink="http://www.w3.org/1999/xlink">

    <title>8</title>
    <desc>Created with Sketch.</desc>
    <defs>
        <polygon id="path-1" points="0 28 26 28 26 0 0 0"></polygon>
    </defs>
    <g id="sid" stroke="none" stroke-width="1" fill="none" fill-rule="evenodd">
        <g id="1_Home-有消息" transform="translate(-314.000000, -278.000000)">
            <g id="Group-4" transform="translate(0.000000, 184.000000)">
                <g id="8" transform="translate(314.000000, 94.000000)">
                    <mask id="mask-2" fill="white">
                        <use xlink:href="#path-1"></use>
                    </mask>
                    <g id="Clip-2"></g>
                    <path d="M23.4000867,26.25 L2.60008667,26.25 C2.12168667,26.25 1.73342,25.857125 1.73342,25.375 C1.73342,24.892875 2.12168667,24.5 2.60008667,24.5 L23.4000867,24.5 C23.8784867,24.5 24.2667533,24.892875 24.2667533,25.375 C24.2667533,25.857125 23.8784867,26.25 23.4000867,26.25 L23.4000867,26.25 Z M5.20008667,22.75 L6.93342,22.75 L6.93342,12.25 L5.20008667,12.25 L5.20008667,22.75 Z M8.66675333,22.75 L10.4000867,22.75 L10.4000867,12.25 L8.66675333,12.25 L8.66675333,22.75 Z M12.13342,22.75 L13.8667533,22.75 L13.8667533,12.25 L12.13342,12.25 L12.13342,22.75 Z M15.6000867,22.75 L17.33342,22.75 L17.33342,12.25 L15.6000867,12.25 L15.6000867,22.75 Z M19.0667533,22.75 L20.8000867,22.75 L20.8000867,12.25 L19.0667533,12.25 L19.0667533,22.75 Z M1.76462,10.474625 L12.28682,1.90575 C12.5095533,1.803375 12.7539533,1.75 13.0000867,1.75 C13.24622,1.75 13.49062,1.803375 13.7133533,1.90575 L24.2667533,10.5 L1.76462,10.474625 Z M23.4000867,22.75 L22.53342,22.75 L22.53342,12.25 L24.2667533,12.25 C25.00862,12.25 25.66902,11.773125 25.90822,11.064375 C26.1465533,10.35475 25.9116867,9.57075 25.3240867,9.11225 L14.6597533,0.427 C14.1423533,0.14175 13.57122,0 13.0000867,0 C12.4289533,0 11.85782,0.14175 11.34042,0.427 L0.676086667,9.11225 C0.0884866667,9.57075 -0.14638,10.35475 0.0919533333,11.064375 C0.331153333,11.773125 0.991553333,12.25 1.73342,12.25 L3.46675333,12.25 L3.46675333,22.75 L2.60008667,22.75 C1.16402,22.75 8.66666667e-05,23.926 8.66666667e-05,25.375 C8.66666667e-05,26.824 1.16402,28 2.60008667,28 L23.4000867,28 C24.8361533,28 26.0000867,26.824 26.0000867,25.375 C26.0000867,23.926 24.8361533,22.75 23.4000867,22.75 L23.4000867,22.75 Z M13.0000867,5.805625 L14.3815533,7 L11.61862,7 L13.0000867,5.805625 Z M13.0000867,3.5 L6.93342,8.75 L19.0667533,8.75 L13.0000867,3.5 Z" id="Fill-1" fill="#3C4859" mask="url(#mask-2)"></path>
                    <polygon id="Path" fill="#2095F2" mask="url(#mask-2)" points="13.0000867 3.5 6.93342 8.75 19.0667533 8.75"></polygon>
                </g>
            </g>
        </g>
    </g>
</svg>