<?xml version="1.0" encoding="UTF-8"?>
<svg width="32px" height="20px" viewBox="0 0 32 20" version="1.1" xmlns="http://www.w3.org/2000/svg" xmlns:xlink="http://www.w3.org/1999/xlink">

    <title>4</title>
    <desc>Created with Sketch.</desc>
    <defs></defs>
    <g id="sid" stroke="none" stroke-width="1" fill="none" fill-rule="evenodd">
        <g id="1_Home-有消息" transform="translate(-312.000000, -205.000000)">
            <g id="Group-4" transform="translate(0.000000, 184.000000)">
                <g id="4" transform="translate(312.000000, 21.000000)">
                    <path d="M15.7793103,12.4443333 C13.1310345,12.4443333 11.0344828,10.111 11.0344828,7.111 C11.0344828,4.111 13.1310345,1.77766667 15.7793103,1.77766667 C18.4275862,1.77766667 20.5241379,4.111 20.5241379,7.111 C20.6344828,10.111 18.4275862,12.4443333 15.7793103,12.4443333" id="Fill-1" fill="#2095F2"></path>
                    <path d="M15.7793103,3.55544444 C14.2344828,3.55544444 12.8,5.111 12.8,7.111 C12.8,9.111 14.0137931,10.6665556 15.7793103,10.6665556 C17.5448276,10.6665556 18.7586207,9.111 18.7586207,7.111 C18.8689655,5.22211111 17.4344828,3.55544444 15.7793103,3.55544444 M15.7793103,12.4443333 C13.1310345,12.4443333 11.0344828,10.111 11.0344828,7.111 C11.0344828,4.111 13.1310345,1.77766667 15.7793103,1.77766667 C18.4275862,1.77766667 20.5241379,4.111 20.5241379,7.111 C20.6344828,10.111 18.4275862,12.4443333 15.7793103,12.4443333" id="Fill-1" fill="#3C4859"></path>
                    <path d="M17.7655172,10.1111111 L18.0965517,10.1111111 C20.9655172,10.1111111 23.1724138,12.4444444 23.1724138,15.2222222 L23.1724138,19 C23.1724138,19.5555556 22.8413793,19.8888889 22.2896552,19.8888889 C21.737931,19.8888889 21.4068966,19.5555556 21.4068966,19 L21.4068966,15.2222222 C21.4068966,13.4444444 19.862069,11.8888889 18.0965517,11.8888889 L17.7655172,11.8888889 L17.7655172,10.1111111 Z" id="Fill-3" fill="#3C4859"></path>
                    <path d="M13.9034483,11.8887778 L13.5724138,11.8887778 C11.8068966,11.8887778 10.262069,13.4443333 10.262069,15.2221111 L10.262069,18.9998889 C10.262069,19.5554444 9.93103448,19.8887778 9.37931034,19.8887778 C8.82758621,19.8887778 8.49655172,19.5554444 8.49655172,18.9998889 L8.49655172,15.2221111 C8.49655172,12.3332222 10.8137931,10.111 13.5724138,10.111 L13.9034483,10.111 L13.9034483,11.8887778 Z" id="Fill-5" fill="#3C4859"></path>
                    <path d="M25.4896552,1.77777778 C24.2758621,1.77777778 23.1724138,3 23.1724138,4.44444444 C23.1724138,5.88888889 24.2758621,7.11111111 25.4896552,7.11111111 C26.7034483,7.11111111 27.8068966,5.88888889 27.8068966,4.44444444 C27.8068966,3 26.8137931,1.77777778 25.4896552,1.77777778 M25.4896552,8.88888889 C23.3931034,8.88888889 21.4068966,6.88888889 21.4068966,4.44444444 C21.4068966,2 23.1724138,0 25.4896552,0 C27.8068966,0 29.5724138,2 29.5724138,4.44444444 C29.5724138,6.88888889 27.6965517,8.88888889 25.4896552,8.88888889" id="Fill-7" fill="#3C4859"></path>
                    <path d="M27.1448276,6.77777778 L27.4758621,6.77777778 C29.7931034,6.77777778 31.6689655,8.77777778 31.6689655,11 L31.6689655,14 C31.6689655,14.5555556 31.337931,14.8888889 30.7862069,14.8888889 C30.2344828,14.8888889 29.9034483,14.5555556 29.9034483,14 L29.9034483,11 C29.9034483,9.55555556 28.8,8.55555556 27.4758621,8.55555556 L27.1448276,8.55555556 L27.1448276,6.77777778 Z" id="Fill-9" fill="#3C4859"></path>
                    <path d="M23.9448276,8.55544444 L23.6137931,8.55544444 C22.1793103,8.55544444 21.1862069,9.66655556 21.1862069,10.9998889 C21.1862069,11.5554444 20.8551724,11.8887778 20.3034483,11.8887778 C19.7517241,11.8887778 19.4206897,11.5554444 19.4206897,10.9998889 C19.4206897,8.66655556 21.4068966,6.77766667 23.6137931,6.77766667 L23.9448276,6.77766667 L23.9448276,8.55544444 Z" id="Fill-11" fill="#3C4859"></path>
                    <path d="M6.06896552,1.77777778 C4.85517241,1.77777778 3.75172414,3 3.75172414,4.44444444 C3.75172414,5.88888889 4.85517241,7.11111111 6.06896552,7.11111111 C7.28275862,7.11111111 8.3862069,5.88888889 8.3862069,4.44444444 C8.3862069,3 7.39310345,1.77777778 6.06896552,1.77777778 M6.06896552,8.88888889 C3.97241379,8.88888889 1.9862069,6.88888889 1.9862069,4.44444444 C1.9862069,2 3.75172414,0 6.06896552,0 C8.3862069,0 10.1517241,2 10.1517241,4.44444444 C10.1517241,6.88888889 8.27586207,8.88888889 6.06896552,8.88888889" id="Fill-13" fill="#3C4859"></path>
                    <path d="M7.72413793,6.77777778 L8.05517241,6.77777778 C10.3724138,6.77777778 12.2482759,8.77777778 12.2482759,11 C12.2482759,11.5555556 11.9172414,11.8888889 11.3655172,11.8888889 C10.8137931,11.8888889 10.4827586,11.5555556 10.4827586,11 C10.4827586,9.55555556 9.37931034,8.55555556 8.05517241,8.55555556 L7.72413793,8.55555556 L7.72413793,6.77777778 Z" id="Fill-15" fill="#3C4859"></path>
                    <path d="M4.52413793,8.55544444 L4.19310345,8.55544444 C2.75862069,8.55544444 1.76551724,9.66655556 1.76551724,10.9998889 L1.76551724,13.9998889 C1.76551724,14.5554444 1.43448276,14.8887778 0.882758621,14.8887778 C0.331034483,14.8887778 0,14.5554444 0,13.9998889 L0,10.9998889 C0,8.66655556 1.9862069,6.77766667 4.19310345,6.77766667 L4.52413793,6.77766667 L4.52413793,8.55544444 Z" id="Fill-17" fill="#3C4859"></path>
                </g>
            </g>
        </g>
    </g>
</svg>