<?xml version="1.0" encoding="UTF-8"?>
<svg width="24px" height="24px" viewBox="0 0 24 24" version="1.1" xmlns="http://www.w3.org/2000/svg" xmlns:xlink="http://www.w3.org/1999/xlink">

    <title>Page 1</title>
    <desc>Created with Sketch.</desc>
    <defs></defs>
    <g id="sid" stroke="none" stroke-width="1" fill="none" fill-rule="evenodd">
        <g id="1_Home-有消息" transform="translate(-175.000000, -101.000000)">
            <g id="Group-2" transform="translate(0.000000, 74.000000)">
                <g id="Group-8" transform="translate(158.000000, 10.000000)">
                    <g id="2">
                        <g id="Page-1" transform="translate(17.000000, 17.000000)" fill="#FFFFFF">
                            <path d="M22.7333203,2.94410156 L9.50003906,2.94410156 C8.89300781,2.94410156 8.52878906,2.57988281 8.52878906,1.97285156 C8.52878906,1.36582031 8.89300781,1.00160156 9.50003906,1.00160156 L22.7333203,1.00160156 C23.3403516,1.00160156 23.7045703,1.36582031 23.7045703,1.97285156 C23.7045703,2.57988281 23.3403516,2.94410156 22.7333203,2.94410156" id="Fill-1"></path>
                            <path d="M22.7333203,12.6566016 L9.50003906,12.6566016 C8.89300781,12.6566016 8.52878906,12.2923828 8.52878906,11.6853516 C8.52878906,11.0783203 8.89300781,10.7141016 9.50003906,10.7141016 L22.7333203,10.7141016 C23.3403516,10.7141016 23.7045703,11.0783203 23.7045703,11.6853516 C23.7045703,12.2923828 23.3403516,12.6566016 22.7333203,12.6566016" id="Fill-3"></path>
                            <path d="M22.7333203,22.3691016 L9.50003906,22.3691016 C8.89300781,22.3691016 8.52878906,22.0048828 8.52878906,21.3978516 C8.52878906,20.7908203 8.89300781,20.4266016 9.50003906,20.4266016 L22.7333203,20.4266016 C23.3403516,20.4266016 23.7045703,20.7908203 23.7045703,21.3978516 C23.7045703,22.0048828 23.3403516,22.3691016 22.7333203,22.3691016" id="Fill-5"></path>
                            <path d="M0.273164062,2.82269531 C-0.0910546875,2.45847656 -0.0910546875,1.85144531 0.273164062,1.48722656 C0.637382813,1.12300781 1.24441406,1.12300781 1.60863281,1.48722656 L1.97285156,1.85144531 L3.30832031,0.273164063 C3.67253906,-0.0910546875 4.27957031,-0.0910546875 4.64378906,0.273164063 C5.00800781,0.637382813 5.00800781,1.24441406 4.64378906,1.60863281 L2.94410156,3.30832031 C2.45847656,3.75183105 2.21566406,3.91535156 2.21566406,3.91535156 C1.60863281,4.40704346 0.273164062,2.82269531 0.273164062,2.82269531 Z" id="Fill-7"></path>
                            <path d="M0.273164062,12.5351953 C-0.0910546875,12.1709766 -0.0910546875,11.5639453 0.273164062,11.1997266 C0.637382813,10.8355078 1.24441406,10.8355078 1.60863281,11.1997266 L1.97285156,11.5639453 L3.30832031,9.98566406 C3.67253906,9.62144531 4.27957031,9.62144531 4.64378906,9.98566406 C5.00800781,10.3498828 5.00800781,10.9569141 4.64378906,11.3211328 L2.94410156,13.0208203 C2.45847656,13.4575806 2.21566406,13.6278516 2.21566406,13.6278516 C1.60863281,14.1179199 0.273164062,12.5351953 0.273164062,12.5351953 Z" id="Fill-9"></path>
                            <path d="M0.273164062,22.2476953 C-0.0910546875,21.8834766 -0.0910546875,21.2764453 0.273164062,20.9122266 C0.637382813,20.5480078 1.24441406,20.5480078 1.60863281,20.9122266 L1.97285156,21.2764453 L3.30832031,19.6981641 C3.67253906,19.3339453 4.27957031,19.3339453 4.64378906,19.6981641 C5.00800781,20.0623828 5.00800781,20.6694141 4.64378906,21.0336328 L2.94410156,22.7333203 C2.45847656,23.1828613 2.21566406,23.3403516 2.21566406,23.3403516 C1.60863281,23.765564 0.273164062,22.2476953 0.273164062,22.2476953 Z" id="Fill-11"></path>
                        </g>
                    </g>
                </g>
            </g>
        </g>
    </g>
</svg>