<?xml version="1.0" encoding="UTF-8"?>
<svg width="17px" height="17px" viewBox="0 0 17 17" version="1.1" xmlns="http://www.w3.org/2000/svg" xmlns:xlink="http://www.w3.org/1999/xlink">

    <title>Group 35</title>
    <desc>Created with Sketch.</desc>
    <defs>
        <polygon id="path-1" points="16.9176333 0.22098 0 0.22098 2.62015525e-20 16.4329467 16.9176333 16.4329467"></polygon>
    </defs>
    <g id="sid" stroke="none" stroke-width="1" fill="none" fill-rule="evenodd">
        <g id="3_ERP" transform="translate(-17.000000, -946.000000)">
            <g id="Group-14" transform="translate(0.000000, 815.000000)">
                <g id="Group-12" transform="translate(0.000000, 117.000000)">
                    <g id="Group-35" transform="translate(15.000000, 11.000000)">
                        <rect id="Rectangle-12" x="0" y="0" width="22" height="22"></rect>
                        <g id="报价icon" transform="translate(2.000000, 2.000000)">
                            <g id="Group-3" transform="translate(0.000000, 0.746170)">
                                <g id="Fill-1-Clipped">
                                    <mask id="mask-2" fill="white">
                                        <use xlink:href="#path-1"></use>
                                    </mask>
                                    <g id="path-1"></g>
                                    <path d="M1.45831333,8.32648 C1.45831333,9.36468 1.69708,10.34198 2.10308,11.22648 L3.28434667,13.6296133 L-0.000386666668,11.9592133 L0.99238,11.4720133 C0.582513333,10.50438 0.352446667,9.44298 0.352446667,8.32648 C0.352446667,3.84984667 3.98228,0.22098 8.45891333,0.22098 C9.89344667,0.22098 11.2390467,0.597013333 12.4087133,1.25048 L11.5880133,2.07118 C10.6455133,1.59848 9.58508,1.32588 8.45891333,1.32588 C4.59224667,1.32588 1.45831333,4.46078 1.45831333,8.32648 Z M13.63348,3.02431333 L16.9182133,4.69471333 L15.9254467,5.18191333 C16.3353133,6.14954667 16.56538,7.20998 16.56538,8.32648 C16.56538,12.80408 12.9355467,16.4329467 8.45891333,16.4329467 C7.02438,16.4329467 5.67878,16.0569133 4.50911333,15.4034467 L5.32981333,14.5827467 C6.27231333,15.0554467 7.33274667,15.3280467 8.45891333,15.3280467 C12.32558,15.3280467 15.4595133,12.1931467 15.4595133,8.32648 C15.4595133,7.28924667 15.2207467,6.31194667 14.8147467,5.42744667 L13.63348,3.02431333 Z" id="Fill-1" fill="#2095F2" fill-rule="nonzero" mask="url(#mask-2)"></path>
                                </g>
                            </g>
                            <path d="M7.61928105,9.63453816 L9.38071895,9.63453816 C10.0669935,9.63453816 10.627451,10.1593039 10.627451,10.8018742 C10.627451,11.4444445 10.0669935,11.9692102 9.38071895,11.9692102 L6.2124183,11.9692102 C5.83496731,11.9692102 5.52614379,12.2583668 5.52614379,12.6117805 C5.52614379,12.9651941 5.83496731,13.2543507 6.2124183,13.2543507 L7.81372549,13.2543507 L7.81372549,14.3574297 C7.81372549,14.7108434 8.12254902,15 8.49999999,15 C8.87745098,15 9.18627451,14.7108434 9.18627451,14.3574297 L9.18627451,13.2543507 L9.3978758,13.2543507 L9.41503268,13.2543507 C10.8447712,13.2382865 12,12.1405623 12,10.8018742 C12,9.44712182 10.8276144,8.3493976 9.38071895,8.3493976 L7.61928105,8.3493976 C6.93300653,8.3493976 6.37254903,7.82463187 6.37254903,7.18206159 C6.37254903,6.53949131 6.93300653,6.01472557 7.61928105,6.01472557 L10.7303922,6.01472557 C11.1078431,6.01472557 11.4166667,5.72556894 11.4166667,5.37215529 C11.4166667,5.01874164 11.1078431,4.72958501 10.7303922,4.72958501 L9.18627451,4.72958501 L9.18627451,3.64257028 C9.18627451,3.28915663 8.87745098,3 8.49999999,3 C8.12254902,3 7.81372549,3.28915663 7.81372549,3.64257028 L7.81372549,4.72958501 L7.61928105,4.72958501 C6.17238562,4.72958501 5,5.82730925 5,7.18206159 C5,8.53145917 6.17238562,9.63453816 7.61928105,9.63453816 Z" id="monitor-path" fill="#2095F2"></path>
                        </g>
                    </g>
                </g>
            </g>
        </g>
    </g>
</svg>