<?xml version="1.0" encoding="UTF-8"?>
<svg width="18px" height="17px" viewBox="0 0 18 17" version="1.1" xmlns="http://www.w3.org/2000/svg" xmlns:xlink="http://www.w3.org/1999/xlink">

    <title>Group 21</title>
    <desc>Created with Sketch.</desc>
    <defs></defs>
    <g id="sid" stroke="none" stroke-width="1" fill="none" fill-rule="evenodd">
        <g id="3_ERP" transform="translate(-17.000000, -169.000000)">
            <g id="Group-4" transform="translate(0.000000, 154.000000)">
                <g id="Group-2">
                    <g id="Group-21" transform="translate(15.000000, 12.000000)">
                        <rect id="Rectangle-12" x="0" y="0" width="22" height="22"></rect>
                        <g id="Page-1" transform="translate(2.000000, 3.000000)" fill="#2095F2">
                            <path d="M6.75,15.6148148 L0.514285714,15.6148148 C0.192857143,15.6148148 0,15.8037037 0,16.1185185 C0,16.4333333 0.192857143,16.6222222 0.514285714,16.6222222 L6.75,16.6222222 C6.94285714,16.6222222 7.26428571,16.4333333 7.26428571,16.1185185 C7.26428571,15.8037037 7.07142857,15.6148148 6.75,15.6148148" id="Fill-1"></path>
                            <path d="M13.95,8.56296296 C12.15,8.56296296 10.8,7.74444444 10.8,7.74444444 C10.6714286,7.74444444 9.12857143,6.8 7.07142857,6.8 C5.91428571,6.8 4.82142857,7.11481481 4.11428571,7.42962963 L4.11428571,1.82592593 C4.62857143,1.63703704 5.72142857,1.07037037 7.07142857,1.07037037 C8.87142857,1.07037037 10.2214286,1.88888889 10.2214286,1.88888889 C10.35,1.88888889 11.8928571,2.83333333 13.95,2.83333333 C14.9142857,2.83333333 15.6214286,2.64444444 16.2642857,2.39259259 L14.9785714,5.16296296 C14.85,5.35185185 14.85,5.6037037 14.9785714,5.66666667 L16.5857143,7.93333333 C16.0714286,8.24814815 15.1071429,8.56296296 13.95,8.56296296 M17.8714286,7.93333333 L16.0714286,5.41481481 L17.8714286,1.7 C18,1.51111111 17.8714286,1.25925926 17.7428571,1.07037037 C17.55,0.944444444 17.2928571,0.881481481 17.1,0.944444444 C17.1,0.944444444 15.75,1.76296296 13.95,1.76296296 C12.15,1.76296296 10.8,0.944444444 10.8,0.944444444 C10.6714286,0.944444444 9.12857143,0 7.07142857,0 C5.01428571,0 3.34285714,0.944444444 3.34285714,0.944444444 C3.21428571,1.07037037 3.15,1.25925926 3.15,1.38518519 L3.15,13.6 L2.31428571,13.6 C1.99285714,13.6 1.8,13.7888889 1.8,14.1037037 C1.8,14.4185185 1.99285714,14.6074074 2.31428571,14.6074074 L4.95,14.6074074 C5.27142857,14.6074074 5.46428571,14.4185185 5.46428571,14.1037037 C5.46428571,13.7888889 5.27142857,13.6 4.95,13.6 L4.17857143,13.6 L4.17857143,8.5 C4.69285714,8.31111111 5.78571429,7.74444444 7.13571429,7.74444444 C8.93571429,7.74444444 10.2857143,8.56296296 10.2857143,8.56296296 C10.4142857,8.56296296 11.9571429,9.50740741 14.0142857,9.50740741 C16.0071429,9.50740741 17.7428571,8.56296296 17.7428571,8.56296296 C17.8714286,8.43703704 17.9357143,8.37407407 17.9357143,8.24814815 C17.9357143,8.12222222 17.9357143,8.05925926 17.8714286,7.93333333" id="Fill-3"></path>
                        </g>
                    </g>
                </g>
            </g>
        </g>
    </g>
</svg>