<?xml version="1.0" encoding="UTF-8"?>
<svg width="22px" height="25px" viewBox="0 0 22 25" version="1.1" xmlns="http://www.w3.org/2000/svg" xmlns:xlink="http://www.w3.org/1999/xlink">
    <!-- Generator: Sketch 43.1 (39012) - http://www.bohemiancoding.com/sketch -->
    <title>Group 16</title>
    <desc>Created with Sketch.</desc>
    <defs></defs>
    <g stroke="none" stroke-width="1" fill="none" fill-rule="evenodd">
        <g id="1_Home-有消息" transform="translate(-318.000000, -624.000000)">
            <g id="tab-bars-01" transform="translate(0.000000, 618.000000)">
                <g id="4" transform="translate(316.000000, 6.000000)">
                    <g id="Group-16">
                        <rect id="Rectangle-11" x="0" y="0" width="27" height="27"></rect>
                        <g id="user-1" transform="translate(3.000000, 1.000000)">
                            <path d="M9.99954545,14.9304 C11.4813636,14.9304 12.375,14.0877333 12.6368182,13.7561778 C12.5359091,13.4326222 12.525,12.9677333 12.7522727,12.2930667 C14.2322727,10.7952889 15.3695455,8.38284444 15.3695455,6.00862222 C15.3695455,2.35795556 12.8859091,0.444177778 10.0013636,0.444177778 C7.11409091,0.444177778 4.645,2.35795556 4.645,6.00862222 C4.645,8.39262222 5.77590909,10.8139556 7.27227273,12.3090667 C7.515,12.9304 7.47045455,13.3828444 7.32772727,13.7126222 C7.54590909,13.9997333 8.45772727,14.9304 9.99954545,14.9304 Z" id="Stroke-1" stroke="#9FACBD"></path>
                            <path d="M9.99954545,22.6387556 C8.15318182,22.6387556 6.36318182,14.5276444 6.36318182,14.5276444 C3.39954545,15.6058667 0.0277272727,17.5036444 0.0277272727,19.3783111 L0.0277272727,20.0992 C0.0277272727,22.7187556 5.22227273,23.3143111 10.0295455,23.3143111 C14.8440909,23.3143111 19.9722727,22.7187556 19.9722727,20.0992 L19.9722727,19.3783111 C19.9722727,17.4752 16.6868182,15.6209778 13.6177273,14.5676444 C13.6177273,14.5676444 11.8468182,22.6387556 9.99954545,22.6387556 Z" id="Stroke-3" stroke="#9FACBD"></path>
                            <path d="M8.22445455,22.9322667 C8.22445455,20.6664889 9.69990909,17.6078222 9.69990909,17.6078222 C9.69990909,17.6078222 8.679,17.1687111 8.679,16.5278222 C8.679,15.5829333 9.99990909,15.2931556 9.99990909,15.2931556 C9.99990909,15.2931556 11.3171818,15.7029333 11.3171818,16.5278222 C11.3171818,17.1971556 10.2999091,17.6078222 10.2999091,17.6078222 C10.2999091,17.6078222 11.7753636,20.6540444 11.7753636,22.9562667 C11.7753636,23.3180444 8.22445455,23.2344889 8.22445455,22.9322667" id="Fill-5" fill="#9FACBD"></path>
                        </g>
                    </g>
                </g>
            </g>
        </g>
    </g>
</svg>