<?xml version="1.0" encoding="UTF-8"?>
<svg width="25px" height="25px" viewBox="0 0 25 25" version="1.1" xmlns="http://www.w3.org/2000/svg" xmlns:xlink="http://www.w3.org/1999/xlink">
    <!-- Generator: Sketch 43.1 (39012) - http://www.bohemiancoding.com/sketch -->
    <title>Group 14</title>
    <desc>Created with Sketch.</desc>
    <defs></defs>
    <g stroke="none" stroke-width="1" fill="none" fill-rule="evenodd">
        <g id="1_Home-有消息" transform="translate(-130.000000, -625.000000)">
            <g id="tab-bars-01" transform="translate(0.000000, 618.000000)">
                <g id="2" transform="translate(128.666667, 5.000000)">
                    <g id="Group-14" transform="translate(0.000000, 1.000000)">
                        <rect id="Rectangle-11" x="0.333333333" y="0" width="27" height="27"></rect>
                        <g id="消息" transform="translate(2.000000, 2.000000)" stroke="#9FACBD" stroke-linecap="round" stroke-linejoin="round">
                            <path d="M12,0.359375 C5.16363636,0.359375 0.363636364,4.528125 0.363636364,9.703125 C0.363636364,13.009375 1.89090909,15.884375 5.30909091,17.5375 L5.30909091,22.85625 L11.2,18.975 L12,18.975 C18.8363636,18.975 23.6363636,14.80625 23.6363636,9.63125 C23.6363636,4.528125 18.8363636,0.359375 12,0.359375 L12,0.359375 Z" id="Stroke-1"></path>
                            <path d="M17.1090909,8.48742812 C17.7112727,8.48742812 18.2,8.97042812 18.2,9.56555312 C18.2,10.1606781 17.7112727,10.6436781 17.1090909,10.6436781 C16.5069091,10.6436781 16.0181818,10.1606781 16.0181818,9.56555312 C16.0181818,8.97042812 16.5069091,8.48742812 17.1090909,8.48742812 L17.1090909,8.48742812 Z" id="Stroke-3"></path>
                            <path d="M11.7272727,8.48742812 C12.3294545,8.48742812 12.8181818,8.97042812 12.8181818,9.56555312 C12.8181818,10.1606781 12.3294545,10.6436781 11.7272727,10.6436781 C11.1250909,10.6436781 10.6363636,10.1606781 10.6363636,9.56555312 C10.6363636,8.97042812 11.1250909,8.48742812 11.7272727,8.48742812 L11.7272727,8.48742812 Z" id="Stroke-5"></path>
                            <path d="M6.34545455,8.48742812 C6.94763636,8.48742812 7.43636364,8.97042812 7.43636364,9.56555312 C7.43636364,10.1606781 6.94763636,10.6436781 6.34545455,10.6436781 C5.74327273,10.6436781 5.25454545,10.1606781 5.25454545,9.56555312 C5.25454545,8.97042812 5.74327273,8.48742812 6.34545455,8.48742812 L6.34545455,8.48742812 Z" id="Stroke-7"></path>
                        </g>
                    </g>
                </g>
            </g>
        </g>
    </g>
</svg>