<?xml version="1.0" encoding="UTF-8"?>
<svg width="24px" height="6px" viewBox="0 0 24 6" version="1.1" xmlns="http://www.w3.org/2000/svg" xmlns:xlink="http://www.w3.org/1999/xlink">
    <!-- Generator: Sketch 43.1 (39012) - http://www.bohemiancoding.com/sketch -->
    <title>Page 1</title>
    <desc>Created with Sketch.</desc>
    <defs>
        <polygon id="path-1" points="24 5.99999 24 9e-05 0.0003 9e-05 0.0003 5.99999"></polygon>
    </defs>
    <g id="app邮件" stroke="none" stroke-width="1" fill="none" fill-rule="evenodd">
        <g id="23-邮件详情" transform="translate(-301.000000, -636.000000)">
            <g id="tab-bars_menu" transform="translate(0.000000, 618.000000)">
                <g id="4" transform="translate(300.333333, 18.000000)">
                    <g id="Page-1" transform="translate(0.666667, 0.000000)">
                        <mask id="mask-2" fill="white">
                            <use xlink:href="#path-1"></use>
                        </mask>
                        <g id="Clip-2"></g>
                        <path d="M21.0003,4.99999 C19.8963,4.99999 19.0003,4.10599 19.0003,2.99999 C19.0003,1.89599 19.8963,0.99999 21.0003,0.99999 C22.1043,0.99999 23.0003,1.89599 23.0003,2.99999 C23.0003,4.10599 22.1043,4.99999 21.0003,4.99999 M21.0003,-1e-05 C19.3433,-1e-05 17.9993,1.34299 17.9993,2.99999 C17.9993,4.65699 19.3433,5.99999 21.0003,5.99999 C22.6573,5.99999 24.0003,4.65699 24.0003,2.99999 C24.0003,1.34299 22.6573,-1e-05 21.0003,-1e-05 M12.0003,4.99999 C10.8943,4.99999 10.0003,4.10599 10.0003,2.99999 C10.0003,1.89599 10.8943,0.99999 12.0003,0.99999 C13.1043,0.99999 14.0003,1.89599 14.0003,2.99999 C14.0003,4.10599 13.1043,4.99999 12.0003,4.99999 M12.0003,-1e-05 C10.3433,-1e-05 9.0003,1.34299 9.0003,2.99999 C9.0003,4.65699 10.3433,5.99999 12.0003,5.99999 C13.6573,5.99999 15.0003,4.65699 15.0003,2.99999 C15.0003,1.34299 13.6573,-1e-05 12.0003,-1e-05 M3.0003,4.99999 C1.8963,4.99999 1.0003,4.10599 1.0003,2.99999 C1.0003,1.89599 1.8963,0.99999 3.0003,0.99999 C4.1043,0.99999 5.0003,1.89599 5.0003,2.99999 C5.0003,4.10599 4.1043,4.99999 3.0003,4.99999 M3.0003,-1e-05 C1.3433,-1e-05 0.0003,1.34299 0.0003,2.99999 C0.0003,4.65699 1.3433,5.99999 3.0003,5.99999 C4.6573,5.99999 6.0003,4.65699 6.0003,2.99999 C6.0003,1.34299 4.6573,-1e-05 3.0003,-1e-05" id="Fill-1" fill="#000033" mask="url(#mask-2)"></path>
                    </g>
                </g>
            </g>
        </g>
    </g>
</svg>