<?xml version="1.0" encoding="UTF-8"?>
<svg width="125px" height="106px" viewBox="0 0 125 106" version="1.1" xmlns="http://www.w3.org/2000/svg" xmlns:xlink="http://www.w3.org/1999/xlink">
    <!-- Generator: Sketch 43.1 (39012) - http://www.bohemiancoding.com/sketch -->
    <title>暂无内容</title>
    <desc>Created with Sketch.</desc>
    <defs></defs>
    <g id="销售订单UI修改版" stroke="none" stroke-width="1" fill="none" fill-rule="evenodd">
        <g id="1销售订单" transform="translate(-125.000000, -216.000000)" fill-rule="nonzero" fill="#E0E0E0">
            <g id="暂无内容" transform="translate(125.000000, 216.000000)">
                <path d="M108.77596,37.6242149 C110.091237,40.0602282 107.201011,33.316032 102.083603,33.316032 C102.083603,33.316032 25.8665926,33.3459645 22.9153285,33.3459645 C19.9640644,33.3459645 17.9076142,34.8079553 16.1933245,37.4898671 C14.4790348,40.1717789 0.000174377593,62.4554357 0.000174377593,67.1760599 L0.000174377593,97.4534184 C0.000174377593,102.17352 3.85933195,106 8.61923288,106 L116.351098,106 C121.110825,106 124.969285,102.17352 124.969285,97.4534184 L124.969285,67.1760599 C124.968936,62.4552617 108.77596,37.6242149 108.77596,37.6242149 C108.77596,37.6242149 106.449898,33.316032 108.77596,37.6242149 Z M80.49698,64.8401114 L80.49698,64.8408075 C77.7888206,64.8408075 76.7782093,66.6379721 76.4037861,67.8246541 C76.4137266,68.0413163 76.4365721,68.2546719 76.4365721,68.4739444 C76.4365721,76.1951215 70.1638061,82.4544819 62.4264821,82.4544819 C54.6888092,82.4544819 48.416392,76.1949475 48.416392,68.4739444 C48.416392,68.1934148 48.4422023,67.9193241 48.4584209,67.6429712 C47.4642025,64.850901 44.4730023,64.8401115 44.4730023,64.8401115 L7.46753703,64.8401115 L19.9987688,41.7971799 C19.9987688,41.7971799 22.2998933,37.6666772 25.531408,37.7907577 L100.1719,37.7907577 C102.772807,37.7907577 103.2135,38.7264944 105.098172,41.7971799 L117.834316,64.8401115 L80.49698,64.8401114 L80.49698,64.8401114 Z" id="Shape"></path>
                <path d="M35.5081212,21.4713132 C35.5081212,21.4713132 35.5082955,21.4714872 35.5081212,21.4713132 L25.9858779,12.4519035 C24.9646285,11.4846681 24.9225997,9.87440723 25.8920541,8.85531215 C26.8613341,7.83639098 28.4749989,7.7944508 29.4960738,8.76151219 L29.4960738,8.76151219 L39.0184914,17.7809219 C40.0395664,18.7481573 40.0817696,20.3584182 39.1123151,21.3775133 C38.1430352,22.3966084 36.5293705,22.4385486 35.5081212,21.4713132 L35.5081212,21.4713132 Z" id="Shape"></path>
                <path d="M61.7458235,17.4861221 C61.2725191,17.0378316 60.9706437,16.4095984 60.952158,15.7070562 L60.610172,2.61039575 C60.5735493,1.20583343 61.6847858,0.0375981172 63.0921427,0.000878744141 C64.4994997,-0.0356667227 65.6705532,1.07322578 65.7071758,2.47778809 L66.0493362,15.5744485 C66.0859589,16.9790109 64.9747224,18.1472462 63.5673655,18.1839655 C62.8635126,18.2024123 62.2189536,17.9342387 61.7458235,17.4861221 L61.7458235,17.4861221 Z" id="Shape"></path>
                <path d="M86.4350845,20.9993553 C85.4140095,20.0321198 85.3718063,18.4218589 86.3410863,17.4027639 L95.3795615,7.90043258 C96.349016,6.88151141 97.9626806,6.83957122 98.9835811,7.80680673 C100.00483,8.77404214 100.047034,10.384303 99.0777537,11.4032241 L90.0392785,20.9055554 C89.0699985,21.9246505 87.4563338,21.9665907 86.4350845,20.9993553 L86.4350845,20.9993553 Z" id="Shape"></path>
            </g>
        </g>
    </g>
</svg>