<?xml version="1.0" encoding="UTF-8"?>
<svg width="78px" height="102px" viewBox="0 0 78 102" version="1.1" xmlns="http://www.w3.org/2000/svg" xmlns:xlink="http://www.w3.org/1999/xlink">
    <!-- Generator: Sketch 43.1 (39012) - http://www.bohemiancoding.com/sketch -->
    <title>无权限</title>
    <desc>Created with Sketch.</desc>
    <defs></defs>
    <g id="app邮件" stroke="none" stroke-width="1" fill="none" fill-rule="evenodd">
        <g id="101-设置-账号-我的分类列表-无数据" transform="translate(-149.000000, -225.000000)" fill-rule="nonzero" fill="#E0E0E0">
            <g id="无权限" transform="translate(149.000000, 225.000000)">
                <path d="M70.6381137,39.7909156 L69.3065015,39.7909156 L69.3065015,29.8553151 C69.3065015,13.419348 55.9940894,0.0485136742 39.6326935,0.0485136742 C23.2700612,0.0485136742 9.95888545,13.419348 9.95888545,29.8553151 L9.95888545,39.7909156 L7.39086464,39.7909156 C3.35275393,39.7909156 0.0676160991,43.0907769 0.0676160991,47.1469858 L0.0676160991,94.5323483 C0.0676160991,98.5885572 3.35275393,101.888419 7.39086464,101.888419 L70.6381137,101.888419 C74.6762244,101.888419 77.9613622,98.5885572 77.9613622,94.5323483 L77.9613622,47.1469858 C77.9613622,43.0907769 74.6762244,39.7909156 70.6381137,39.7909156 Z M14.9045201,29.8553151 C14.9045201,16.1590898 25.9975787,5.01631391 39.6326935,5.01631391 C53.2678083,5.01631391 64.3608669,16.1590898 64.3608669,29.8553151 L64.3608669,39.7909156 L14.9045201,39.7909156 L14.9045201,29.8553151 Z M39.0923829,57.4551713 C42.9994343,57.4551713 46.1658769,60.6358054 46.1658769,64.5591256 C46.1658769,67.3994654 44.5029072,69.8436231 42.1055108,70.9812494 L42.1055108,80.7752675 C42.1055108,82.1463804 40.9976887,83.2591677 39.6326935,83.2591677 C38.2676983,83.2591677 37.1598762,82.1463804 37.1598762,80.7752675 L37.1598762,71.3910929 C34.1937318,70.5453249 32.0188889,67.8105509 32.0188889,64.5603676 C32.0188889,60.6370473 35.1865679,57.4551713 39.0923829,57.4551713 Z" id="Shape"></path>
            </g>
        </g>
    </g>
</svg>