<?xml version="1.0" encoding="UTF-8"?>
<svg width="17px" height="18px" viewBox="0 0 17 18" version="1.1" xmlns="http://www.w3.org/2000/svg" xmlns:xlink="http://www.w3.org/1999/xlink">

    <title>Group 31</title>
    <desc>Created with Sketch.</desc>
    <defs></defs>
    <g id="sid" stroke="none" stroke-width="1" fill="none" fill-rule="evenodd">
        <g id="3_ERP" transform="translate(-17.000000, -720.000000)">
            <g id="Group-12" transform="translate(0.000000, 706.000000)">
                <g id="Group-31" transform="translate(15.000000, 12.000000)">
                    <rect id="Rectangle-12" x="0" y="0" width="22" height="22"></rect>
                    <g id="产品" transform="translate(2.000000, 2.000000)" fill-rule="nonzero" fill="#2095F2">
                        <path d="M16.9800071,13.4643709 C16.9800071,13.4349027 16.9897375,13.4152571 16.9897375,13.3857889 L16.9897375,4.5551307 L16.9897375,4.49619416 L16.9897375,4.44708037 C16.9897375,4.22115697 16.8632428,4.00505632 16.6589053,3.90682876 L8.84542771,0.075953701 C8.68974198,-0.00262835103 8.49513481,-0.00262835103 8.32971873,0.075953701 L0.41893753,3.90682876 C0.292442867,3.9657653 0.204869647,4.05417011 0.146487493,4.17204318 C0.0589142727,4.28009349 0.010262475,4.40778933 0.010262475,4.55513068 L0.010262475,13.4545481 C0.010262475,13.7001171 0.156217849,13.906395 0.360555376,14.0046225 C0.399476818,14.0439135 0.457858952,14.0832046 0.50651075,14.1028501 L8.31998837,17.9337251 C8.40756159,17.9730162 8.49513481,17.9926617 8.58270803,17.9926617 C8.68001161,17.9926617 8.76758483,17.9730162 8.84542769,17.9337251 L16.6589053,14.1028501 C16.9021643,13.984977 17.0286589,13.7197626 16.9800071,13.4643709 Z M1.19736618,5.36059673 L7.91131332,8.61192917 L7.98915618,16.4308434 L1.19736618,13.1009289 L1.19736618,5.36059673 Z M9.09841702,8.69051122 L15.8026338,5.40971052 L15.8026338,13.1893337 L9.17625988,16.4406662 L9.09841702,8.69051122 Z M8.59243841,1.28415276 L15.0436659,4.44708039 L8.59243841,7.610008 L2.05363771,4.44708037 L8.59243841,1.28415276 Z" id="Shape"></path>
                    </g>
                </g>
            </g>
        </g>
    </g>
</svg>