<?xml version="1.0" encoding="UTF-8"?>
<svg width="17px" height="16px" viewBox="0 0 17 16" version="1.1" xmlns="http://www.w3.org/2000/svg" xmlns:xlink="http://www.w3.org/1999/xlink">

    <title>Group 32</title>
    <desc>Created with Sketch.</desc>
    <defs></defs>
    <g id="sid" stroke="none" stroke-width="1" fill="none" fill-rule="evenodd">
        <g id="3_ERP" transform="translate(-17.000000, -775.000000)">
            <g id="Group-12" transform="translate(0.000000, 760.000000)">
                <g id="Group-32" transform="translate(15.000000, 11.000000)">
                    <rect id="Rectangle-12" x="0" y="0" width="22" height="22"></rect>
                    <g id="报价" transform="translate(2.000000, 4.000000)" fill-rule="nonzero" fill="#2095F2">
                        <path d="M16.5735786,0 L0.426421405,0 C0.191889632,0 0,0.193538314 0,0.430085142 L0,11.963535 C0,12.2000819 0.191889632,12.3936202 0.426421405,12.3936202 L8.0735786,12.3936202 L8.0735786,14.5332938 L5.04598662,14.5332938 C4.81145485,14.5332938 4.61956522,14.7268321 4.61956522,14.9633789 C4.61956522,15.1999258 4.81145485,15.393464 5.04598662,15.393464 L11.9540134,15.393464 C12.1885451,15.393464 12.3804348,15.1999258 12.3804348,14.9633789 C12.3804348,14.7268321 12.1885451,14.5332938 11.9540134,14.5332938 L8.9264214,14.5332938 L8.9264214,12.3936202 L16.5735786,12.3936202 C16.8081104,12.3936202 17,12.2000819 17,11.963535 L17,0.430085142 C17,0.193538314 16.8116639,0 16.5735786,0 L16.5735786,0 Z M0.933722602,11.3669531 L0.933722602,0.958710937 L16.0543823,0.958710937 L16.0543823,11.4364062 L0.933722602,11.3669531 Z M7.9811873,6.76308886 L9.0756689,6.76308886 C9.5020903,6.76308886 9.85033445,7.11432507 9.85033445,7.54441021 C9.85033445,7.97449535 9.5020903,8.32573155 9.0756689,8.32573155 L7.10702341,8.32573155 C6.87249163,8.32573155 6.68060201,8.51926986 6.68060201,8.75581669 C6.68060201,8.99236352 6.87249163,9.18590183 7.10702341,9.18590183 L8.10200669,9.18590183 L8.10200669,9.92421466 C8.10200669,10.1607615 8.29389632,10.3542998 8.52842809,10.3542998 C8.76295987,10.3542998 8.9548495,10.1607615 8.9548495,9.92421466 L8.9548495,9.18590183 L9.08632943,9.18590183 L9.09698997,9.18590183 C9.98536789,9.17514971 10.7031773,8.44042092 10.7031773,7.54441021 C10.7031773,6.63764736 9.97470736,5.90291858 9.0756689,5.90291858 L7.9811873,5.90291858 C7.55476588,5.90291858 7.20652174,5.55168238 7.20652174,5.12159724 C7.20652174,4.6915121 7.55476588,4.34027589 7.9811873,4.34027589 L9.91429766,4.34027589 C10.1488294,4.34027589 10.3407191,4.14673758 10.3407191,3.91019075 C10.3407191,3.67364393 10.1488294,3.48010561 9.91429766,3.48010561 L8.9548495,3.48010561 L8.9548495,2.75254491 C8.9548495,2.51599808 8.76295987,2.32245977 8.52842809,2.32245977 C8.29389632,2.32245977 8.10200669,2.51599808 8.10200669,2.75254491 L8.10200669,3.48010561 L7.9811873,3.48010561 C7.08214883,3.48010561 6.35367893,4.2148344 6.35367893,5.12159724 C6.35367893,6.02477603 7.08214883,6.76308886 7.9811873,6.76308886 Z" id="monitor"></path>
                    </g>
                </g>
            </g>
        </g>
    </g>
</svg>