<?xml version="1.0" encoding="UTF-8"?>
<svg width="19px" height="18px" viewBox="0 0 19 18" version="1.1" xmlns="http://www.w3.org/2000/svg" xmlns:xlink="http://www.w3.org/1999/xlink">

    <title>Group 23</title>
    <desc>Created with Sketch.</desc>
    <defs>
        <polygon id="path-1" points="0.0411536779 4.921877 4.48266713 4.921877 4.48266713 0.549830508 0.0411536779 0.549830508 0.0411536779 4.921877"></polygon>
        <polygon id="path-3" points="0.3036526 4.921877 4.74516605 4.921877 4.74516605 0.549830508 0.3036526 0.549830508"></polygon>
    </defs>
    <g id="sid" stroke="none" stroke-width="1" fill="none" fill-rule="evenodd">
        <g id="3_ERP" transform="translate(-16.000000, -266.000000)">
            <g id="Group-7" transform="translate(0.000000, 252.000000)">
                <g id="Group-23" transform="translate(15.000000, 12.000000)">
                    <rect id="Rectangle-12" x="0" y="0" width="22" height="22"></rect>
                    <g id="Page-1" transform="translate(1.000000, 2.000000)">
                        <path d="M3.35535629,4.41927633 L5.36791708,11.6985029 C5.57611302,12.4337783 6.2700995,13.0219987 6.89468733,13.0219987 L14.8061332,13.0219987 C15.5695183,13.0219987 16.2635048,12.4337783 16.3329034,11.6985029 L17.6514777,6.18393732 C17.6514777,6.03688224 17.6514777,5.81629962 17.5126804,5.74277208 C17.3738831,5.66924453 17.3044845,5.52218945 17.0962885,5.52218945 L3.35535629,4.41927633 Z M14.8061332,14.1984393 L6.89468733,14.1984393 C5.64551167,14.1984393 4.53513331,13.3896364 4.25753871,12.0661406 L2.03678199,3.97811108 L1.48159281,1.99286747 L0.371214444,1.62522976 C0.0242212055,1.47817468 -0.0451774422,1.18406451 0.0242212055,0.889954347 C0.163018501,0.52231664 0.440613092,0.448789098 0.718207682,0.52231664 L2.03678199,0.963481888 C2.24497793,0.963481888 2.38377523,1.18406451 2.38377523,1.33111959 L2.93896441,3.24283567 L17.3738831,4.27222125 C17.790275,4.27222125 18.3454642,4.63985896 18.6230588,5.00749666 C18.970052,5.44866191 18.970052,5.9633547 18.8312547,6.55157503 L17.5126804,12.0661406 C17.0962885,13.3896364 15.9859102,14.1984393 14.8061332,14.1984393 L14.8061332,14.1984393 Z" id="Fill-1" fill="#2095F2"></path>
                        <path d="M9.08290519,8.01106435 C8.84513486,8.01106435 8.70247267,7.84669279 8.70247267,7.57274019 C8.70247267,7.29878759 8.84513486,7.13441603 9.08290519,7.13441603 L13.1725548,7.13441603 C13.4103251,7.13441603 13.5529873,7.29878759 13.5529873,7.57274019 C13.5529873,7.84669279 13.4103251,8.01106435 13.2201088,8.01106435 L9.08290519,8.01106435 Z" id="Fill-1" fill="#2095F2"></path>
                        <path d="M9.08290519,10.2574757 C8.84513486,10.2574757 8.70247267,10.0931041 8.70247267,9.8191515 C8.70247267,9.54519891 8.84513486,9.38082735 9.08290519,9.38082735 L13.1725548,9.38082735 C13.4103251,9.38082735 13.5529873,9.54519891 13.5529873,9.8191515 C13.6005413,10.0931041 13.4103251,10.2574757 13.2201088,10.2574757 L9.08290519,10.2574757 Z" id="Fill-3" fill="#2095F2"></path>
                        <path d="M10.7472975,12.1751439 L10.7472975,7.46315915 C10.7472975,7.18920655 10.8899596,7.02483499 11.12773,7.02483499 C11.3655003,7.02483499 11.5081625,7.18920655 11.5081625,7.46315915 L11.5081625,12.1751439 C11.5081625,12.4490965 11.3655003,12.613468 11.12773,12.613468 C10.8899596,12.613468 10.7472975,12.4490965 10.7472975,12.1751439 Z" id="Fill-5" fill="#2095F2"></path>
                        <path d="M10.8424056,7.90148331 L9.41578364,6.31255824 C9.27312145,6.14818668 9.27312145,5.87423408 9.41578364,5.70986252 C9.55844583,5.54549096 9.79621616,5.54549096 9.93887835,5.70986252 L11.0801759,7.02483499 L12.2214735,5.70986252 C12.3641357,5.54549096 12.601906,5.54549096 12.7445682,5.70986252 C12.8872304,5.87423408 12.8872304,6.14818668 12.7445682,6.31255824 L11.3179462,7.95627383 C11.3655003,7.90148331 11.2228381,8.01106435 11.12773,8.01106435 C11.0326218,8.01106435 10.8899596,7.90148331 10.8424056,7.90148331 Z" id="Fill-7" fill="#2095F2"></path>
                        <g id="Group-5" transform="translate(4.285714, 12.555648)">
                            <mask id="mask-2" fill="white">
                                <use xlink:href="#path-1"></use>
                            </mask>
                            <g id="Clip-4"></g>
                            <path d="M2.2619104,1.64285921 C1.56792393,1.64285921 1.15153204,2.05274497 1.15153204,2.73588791 C1.15153204,3.41903085 1.56792393,3.82891661 2.2619104,3.82891661 C2.95589688,3.82891661 3.37228877,3.41903085 3.37228877,2.73588791 C3.37228877,2.05274497 2.81709959,1.64285921 2.2619104,1.64285921 M2.2619104,4.92194531 C1.01273475,4.92194531 0.0411536779,3.9655452 0.0411536779,2.73588791 C0.0411536779,1.50623062 1.01273475,0.549830508 2.2619104,0.549830508 C3.51108606,0.549830508 4.48266713,1.50623062 4.48266713,2.73588791 C4.48266713,3.9655452 3.51108606,4.92194531 2.2619104,4.92194531" id="Fill-3" fill="#2095F2" mask="url(#mask-2)"></path>
                        </g>
                        <g id="Group-8" transform="translate(12.142857, 12.555648)">
                            <mask id="mask-4" fill="white">
                                <use xlink:href="#path-3"></use>
                            </mask>
                            <g id="Clip-7"></g>
                            <path d="M2.52440933,1.64285921 C1.83042285,1.64285921 1.41403096,2.05274497 1.41403096,2.73588791 C1.41403096,3.41903085 1.83042285,3.82891661 2.52440933,3.82891661 C3.2183958,3.82891661 3.63478769,3.41903085 3.63478769,2.73588791 C3.63478769,2.05274497 3.2183958,1.64285921 2.52440933,1.64285921 M2.52440933,4.92194531 C1.27523367,4.92194531 0.3036526,3.9655452 0.3036526,2.73588791 C0.3036526,1.50623062 1.27523367,0.549830508 2.52440933,0.549830508 C3.77358498,0.549830508 4.74516605,1.50623062 4.74516605,2.73588791 C4.74516605,3.9655452 3.77358498,4.92194531 2.52440933,4.92194531" id="Fill-6" fill="#2095F2" mask="url(#mask-4)"></path>
                        </g>
                    </g>
                </g>
            </g>
        </g>
    </g>
</svg>