<?xml version="1.0" encoding="UTF-8"?>
<svg width="20px" height="18px" viewBox="0 0 20 18" version="1.1" xmlns="http://www.w3.org/2000/svg" xmlns:xlink="http://www.w3.org/1999/xlink">

    <title>Group 25</title>
    <desc>Created with Sketch.</desc>
    <defs></defs>
    <g id="sid" stroke="none" stroke-width="1" fill="none" fill-rule="evenodd">
        <g id="3_ERP" transform="translate(-17.000000, -354.000000)">
            <g id="Group-6" transform="translate(0.000000, 341.000000)">
                <g id="Group-25" transform="translate(16.000000, 11.000000)">
                    <rect id="Rectangle-12" x="0" y="0" width="22" height="22"></rect>
                    <g id="Group-17" transform="translate(1.000000, 2.000000)" fill="#2095F2">
                        <g id="Page-1">
                            <path d="M11.5714286,7.52142857 L5.97857143,7.52142857 C5.65714286,7.52142857 5.46428571,7.32857143 5.46428571,7.00714286 C5.46428571,6.68571429 5.65714286,6.49285714 5.97857143,6.49285714 L11.5071429,6.49285714 C11.8285714,6.49285714 12.0214286,6.68571429 12.0214286,7.00714286 C12.0214286,7.32857143 11.8285714,7.52142857 11.5714286,7.52142857" id="Fill-1"></path>
                            <path d="M11.5714286,10.1571429 L5.97857143,10.1571429 C5.65714286,10.1571429 5.46428571,9.96428571 5.46428571,9.64285714 C5.46428571,9.32142857 5.65714286,9.12857143 5.97857143,9.12857143 L11.5071429,9.12857143 C11.8285714,9.12857143 12.0214286,9.32142857 12.0214286,9.64285714 C12.0857143,9.96428571 11.8285714,10.1571429 11.5714286,10.1571429" id="Fill-3"></path>
                            <path d="M8.74285714,12.9214286 C8.42142857,12.9214286 8.22857143,12.7285714 8.22857143,12.4071429 L8.22857143,6.87857143 C8.22857143,6.55714286 8.42142857,6.36428571 8.74285714,6.36428571 C9.06428571,6.36428571 9.25714286,6.55714286 9.25714286,6.87857143 L9.25714286,12.4071429 C9.25714286,12.7285714 9.06428571,12.9214286 8.74285714,12.9214286" id="Fill-5"></path>
                            <path d="M8.74285714,7.52142857 C8.61428571,7.52142857 8.42142857,7.39285714 8.35714286,7.39285714 L6.42857143,5.52857143 C6.23571429,5.33571429 6.23571429,5.01428571 6.42857143,4.82142857 C6.62142857,4.62857143 6.94285714,4.62857143 7.13571429,4.82142857 L8.67857143,6.36428571 L10.2214286,4.82142857 C10.4142857,4.62857143 10.7357143,4.62857143 10.9285714,4.82142857 C11.1214286,5.01428571 11.1214286,5.33571429 10.9285714,5.52857143 L9,7.45714286 C9.06428571,7.39285714 8.87142857,7.52142857 8.74285714,7.52142857" id="Fill-7"></path>
                            <path d="M8.74285714,1.02857143 C4.5,1.02857143 1.02857143,4.5 1.02857143,8.74285714 C1.02857143,12.9857143 4.5,16.4571429 8.74285714,16.4571429 C10.4387372,16.4571429 12.0113723,15.9025406 13.2883478,14.9657505 C12.137146,13.4992676 10.958313,9.92950439 16.4408827,9.24460037 C16.4516664,9.07868241 16.4571429,8.91137827 16.4571429,8.74285714 C16.4571429,4.5 12.9857143,1.02857143 8.74285714,1.02857143 M0,8.74285714 C0,3.92142857 3.92142857,0 8.74285714,0 C13.5642857,0 17.4857143,3.92142857 17.4857143,8.74285714 C17.4857143,9.02986792 17.4720461,9.31368946 17.4453064,9.5936844 C14.6339111,9.01727295 9.65679932,11.4066162 13.9429561,15.7879749 C12.4967643,16.8548073 10.7025526,17.4857143 8.74285714,17.4857143 C3.92142857,17.4857143 0,13.5642857 0,8.74285714 Z" id="Fill-9"></path>
                            <path d="M16,9 C18.209139,9 20,10.790861 20,13 C20,15.209139 18.209139,17 16,17 C13.790861,17 12,15.209139 12,13 C12,10.790861 13.790861,9 16,9 Z M16,9.89318848 C14.3431458,9.89318848 12.9260254,11.3510803 12.9260254,13.0079346 C12.9260254,14.6647888 14.3431458,16.1226807 16,16.1226807 C17.6568542,16.1226807 19.0922241,14.6647888 19.0922241,13.0079346 C19.0922241,11.3510803 17.6568542,9.89318848 16,9.89318848 Z" id="Combined-Shape"></path>
                        </g>
                        <g id="Group-13" transform="translate(15.792893, 12.500000) scale(1, -1) rotate(45.000000) translate(-15.792893, -12.500000) translate(13.792893, 10.500000)">
                            <path d="M0.863937148,0.481661419 C0.839248169,0.539697011 0.825489119,0.60326189 0.825489119,0.669899865 L0.825489119,2.6791219 C0.825489119,2.95875828 1.04934674,3.17451088 1.32548912,3.17451088 C1.59355553,3.17451088 1.82548912,2.95271768 1.82548912,2.6791219 L1.82548912,1.17267665 L3.33193437,1.17267665 C3.61157075,1.17267665 3.82732335,0.948819025 3.82732335,0.67267665 C3.82732335,0.404610244 3.60553015,0.17267665 3.33193437,0.17267665 L1.32271233,0.17267665 C1.11158257,0.17267665 0.936869642,0.300286283 0.863937148,0.481661419 Z" id="Combined-Shape"></path>
                        </g>
                    </g>
                </g>
            </g>
        </g>
    </g>
</svg>