<?xml version="1.0" encoding="UTF-8"?>
<svg width="17px" height="16px" viewBox="0 0 17 16" version="1.1" xmlns="http://www.w3.org/2000/svg" xmlns:xlink="http://www.w3.org/1999/xlink">

    <title>Group 34</title>
    <desc>Created with Sketch.</desc>
    <defs></defs>
    <g id="sid" stroke="none" stroke-width="1" fill="none" fill-rule="evenodd">
        <g id="3_ERP" transform="translate(-17.000000, -902.000000)">
            <g id="Group-14" transform="translate(0.000000, 815.000000)">
                <g id="Group-12" transform="translate(0.000000, 73.000000)">
                    <g id="Group-34" transform="translate(15.000000, 11.000000)">
                        <rect id="Rectangle-12" x="0" y="0" width="22" height="22"></rect>
                        <g id="询盘" transform="translate(2.000000, 3.000000)" fill="#2095F2">
                            <path d="M6.98205375,7.0978467 C6.48861775,7.0978467 6.08719396,7.50556109 6.08719396,8.00670326 C6.08719396,8.51018601 6.48861775,8.9198292 6.98205375,8.9198292 C7.47509042,8.9198292 7.87619896,8.51020768 7.87619896,8.00670326 C7.87619896,7.50556109 7.47509044,7.0978467 6.98205375,7.0978467 Z" id="Shape" fill-rule="nonzero"></path>
                            <path d="M3.9467225,7.0978467 C3.45368583,7.0978467 3.05257728,7.50556109 3.05257728,8.00670326 C3.05257728,8.51018601 3.45368581,8.9198292 3.9467225,8.9198292 C4.43975918,8.9198292 4.84086771,8.51020768 4.84086771,8.00670326 C4.84086769,7.50556109 4.43975917,7.0978467 3.9467225,7.0978467 Z" id="Shape" fill-rule="nonzero"></path>
                            <path d="M10.0174271,7.0978467 C9.52472665,7.0978467 9.12387031,7.50556109 9.12387031,8.00670326 C9.12387031,8.51018601 9.52470561,8.9198292 10.0174271,8.9198292 C10.0174271,8.39367676 10.7748013,7.42858887 10.7747803,7.81286621 C10.7748013,7.50543213 10.5108421,7.0978467 10.0174271,7.0978467 Z" id="Shape" fill-rule="nonzero"></path>
                            <path d="M12.7495468,3.08671548 L1.21458177,3.08671548 C0.553997955,3.08671548 0.0165944959,3.63375885 0.0165944959,4.30615276 L0.0165944959,11.7101144 C0.0165944959,12.38253 0.553997955,12.9295951 1.21458177,12.9295951 L2.4448721,12.9295951 L2.4448721,15.9904546 L5.45674846,12.9295951 L11.1393433,12.9295951 C8.05499268,8.64676264 10.3470068,8.69183434 11.0446167,7.00952148 C11.546335,5.79960873 13.947471,7.18560422 13.947471,6.45245361 L13.947471,4.30615276 C13.947471,3.63375885 13.4100675,3.08671548 12.7495468,3.08671548 Z M3.68644855,12.9424249 L3.68644855,11.6636931 L1.25751941,11.6636931 L1.25751941,4.3511004 L12.7073237,4.3511004 L12.7073237,6.41516113 L10.9275513,7.00952148 C10.9275513,7.00952148 8.38909912,10.2542725 10.0880737,11.6636715 C7.86785889,11.6636931 4.94414499,11.6636715 4.94414499,11.6636715 L3.68644855,12.9424249 Z" id="Shape" fill-rule="nonzero"></path>
                            <path d="M15.7854665,0.00173507312 L4.25060659,0.00173507312 C3.59000176,0.00173507312 3.05257727,0.548475033 3.05257727,1.22050054 L3.05257727,2.43998116 L4.23381405,2.43998116 L4.23381405,1.20598033 L15.8015865,1.20598033 L15.8015865,8.53710938 L16.5524902,9.84393311 C16.5524902,9.84393311 16.9828443,9.29685612 16.9828443,8.62448387 L16.9828443,1.2205222 C16.9828233,0.548475033 16.445693,0.00173507312 15.7854665,0.00173507312 Z" id="Shape" fill-rule="nonzero"></path>
                            <path d="M13,6 C15.209139,6 17,7.790861 17,10 C17,12.209139 15.209139,14 13,14 C10.790861,14 9,12.209139 9,10 C9,7.790861 10.790861,6 13,6 Z M13,6.89318848 C11.3431458,6.89318848 9.92602539,8.35108032 9.92602539,10.0079346 C9.92602539,11.6647888 11.3431458,13.1226807 13,13.1226807 C14.6568542,13.1226807 16.0922241,11.6647888 16.0922241,10.0079346 C16.0922241,8.35108032 14.6568542,6.89318848 13,6.89318848 Z" id="Combined-Shape"></path>
                            <g id="Group-13" transform="translate(12.792893, 9.500000) scale(1, -1) rotate(45.000000) translate(-12.792893, -9.500000) translate(10.792893, 7.500000)">
                                <path d="M0.863937148,0.481661419 C0.839248169,0.539697011 0.825489119,0.60326189 0.825489119,0.669899865 L0.825489119,2.6791219 C0.825489119,2.95875828 1.04934674,3.17451088 1.32548912,3.17451088 C1.59355553,3.17451088 1.82548912,2.95271768 1.82548912,2.6791219 L1.82548912,1.17267665 L3.33193437,1.17267665 C3.61157075,1.17267665 3.82732335,0.948819025 3.82732335,0.67267665 C3.82732335,0.404610244 3.60553015,0.17267665 3.33193437,0.17267665 L1.32271233,0.17267665 C1.11158257,0.17267665 0.936869642,0.300286283 0.863937148,0.481661419 Z" id="Combined-Shape"></path>
                            </g>
                        </g>
                    </g>
                </g>
            </g>
        </g>
    </g>
</svg>