<?xml version="1.0" encoding="UTF-8"?>
<svg width="17px" height="17px" viewBox="0 0 17 17" version="1.1" xmlns="http://www.w3.org/2000/svg" xmlns:xlink="http://www.w3.org/1999/xlink">

    <title>Group 36</title>
    <desc>Created with Sketch.</desc>
    <defs></defs>
    <g id="sid" stroke="none" stroke-width="1" fill="none" fill-rule="evenodd">
        <g id="3_ERP" transform="translate(-17.000000, -990.000000)">
            <g id="Group-14" transform="translate(0.000000, 815.000000)">
                <g id="Group-12" transform="translate(0.000000, 161.000000)">
                    <g id="Group-36" transform="translate(15.000000, 11.000000)">
                        <rect id="Rectangle-12" x="0" y="0" width="22" height="22"></rect>
                        <g id="报价" transform="translate(2.000000, 3.000000)" fill-rule="nonzero" fill="#2095F2">
                            <path d="M13.77,7.14 C13.555375,7.1389375 13.364125,7.0029375 13.294,6.8 L13.26,6.8 L13.26,1.7 C13.26,1.3249375 12.9550625,1.02 12.58,1.02 L12.5789375,1.02 L1.7,1.02 C1.3249375,1.02 1.02,1.3249375 1.02,1.7 L1.02,14.96 C1.02,15.336125 1.3249375,15.64 1.7,15.64 L7.82,15.64 L7.82,15.674 C8.017625,15.744125 8.16,15.929 8.16,16.15 C8.16,16.371 8.0165625,16.555875 7.82,16.6249375 L7.82,16.6589375 L1.36,16.6589375 C0.609875,16.66 0.0010625,16.0533125 0,15.3031875 L0,15.3 L0,1.36 C0,0.6088125 0.6088125,0 1.36,0 L12.92,0 C13.6711875,0.0010625 14.2789375,0.6088125 14.2789375,1.36 L14.2789375,6.8 L14.246,6.8 C14.175875,7.0029375 13.984625,7.1389375 13.77,7.14 M8.33,8.16 L2.89,8.16 C2.6084375,8.16 2.38,7.932625 2.3789375,7.65 C2.3789375,7.3684375 2.607375,7.14 2.8889375,7.14 L8.3289375,7.14 C8.6105,7.14 8.8389375,7.367375 8.8389375,7.6489375 C8.84,7.9315625 8.6115625,8.16 8.33,8.16 M2.38,4.59 C2.38,4.3084375 2.607375,4.0810625 2.8889375,4.08 L11.3889375,4.08 C11.6705,4.08 11.8989375,4.3084375 11.8989375,4.59 C11.8989375,4.8715625 11.6705,5.1 11.3889375,5.1 L2.8889375,5.1 C2.607375,5.0989375 2.38,4.8715625 2.38,4.59 M2.89,10.54 L6.63,10.54 C6.9115625,10.55275 7.129375,10.7918125 7.116625,11.0723125 C7.103875,11.3358125 6.8935,11.54725 6.63,11.5589375 L2.89,11.5589375 C2.6084375,11.5461875 2.390625,11.307125 2.403375,11.026625 C2.416125,10.763125 2.6265,10.5516875 2.89,10.54 M13.5075625,12.5035 L13.8114375,12.5035 C14.0558125,12.5035 14.2035,12.4918125 14.3830625,12.4599375 L14.3830625,13.0804375 C14.1939375,13.0475 14.0026875,13.032625 13.8114375,13.036875 L13.1739375,13.036875 L12.994375,13.3195 L12.994375,13.4778125 L13.79975,13.4778125 C14.044125,13.4778125 14.1811875,13.466125 14.3724375,13.4331875 L14.3724375,14.0536875 C14.1833125,14.0218125 13.9920625,14.0069375 13.79975,14.0111875 L12.994375,14.0111875 L12.994375,14.382 C12.994375,14.6911875 13.0060625,14.860125 13.0379375,15.076875 L12.2325625,15.076875 C12.259125,14.8654375 12.276125,14.647625 12.276125,14.382 L12.276125,14.0111875 L11.4548125,14.0111875 C11.2104375,14.0111875 11.069125,14.0218125 10.88425,14.0536875 L10.88425,13.4331875 C11.0744375,13.466125 11.2040625,13.4778125 11.4548125,13.4778125 L12.276125,13.4778125 L12.276125,13.313125 L12.0965625,13.0358125 L11.464375,13.0358125 C11.2146875,13.0358125 11.0786875,13.0464375 10.8938125,13.079375 L10.8938125,12.458875 C11.073375,12.49075 11.2146875,12.5024375 11.464375,12.5024375 L11.7693125,12.5024375 L11.0128125,11.305 C10.89275,11.11375 10.7663125,10.92675 10.6324375,10.7450625 L11.5685,10.7450625 C11.617375,10.9023125 11.6779375,11.0234375 11.829875,11.2784375 L12.63525,12.66075 L13.440625,11.28375 C13.5946875,11.0276875 13.6584375,10.8916875 13.702,10.7450625 L14.6444375,10.7450625 C14.5105625,10.9278125 14.3809375,11.1148125 14.2576875,11.305 L13.5075625,12.5035 M12.58,9.1810625 C10.7025625,9.148125 9.1534375,10.6430625 9.1205,12.5205 C9.0875625,14.3979375 10.5835625,15.9470625 12.461,15.98 C12.501375,15.9810625 12.5406875,15.9810625 12.5810625,15.98 C14.4585,15.946 15.9534375,14.396875 15.9194375,12.5194375 C15.8875625,10.68875 14.4106875,9.2129375 12.58,9.1810625 M12.58,17 C10.138375,17 8.16,15.021625 8.1589375,12.5810625 C8.1589375,10.1394375 10.1373125,8.16 12.5789375,8.16 L12.58,8.16 C15.021625,8.16 17,10.1394375 16.9989375,12.5810625 C16.9989375,15.021625 15.0205625,17 12.58,17" id="Fill-1"></path>
                        </g>
                    </g>
                </g>
            </g>
        </g>
    </g>
</svg>