<?xml version="1.0" encoding="UTF-8"?>
<svg width="25px" height="19px" viewBox="0 0 25 19" version="1.1" xmlns="http://www.w3.org/2000/svg" xmlns:xlink="http://www.w3.org/1999/xlink">
    <!-- Generator: Sketch 43.1 (39012) - http://www.bohemiancoding.com/sketch -->
    <title>icons_reply</title>
    <desc>Created with Sketch.</desc>
    <defs></defs>
    <g id="app邮件" stroke="none" stroke-width="1" fill="none" fill-rule="evenodd">
        <g id="23-邮件详情" transform="translate(-50.000000, -629.000000)" stroke="#000033">
            <g id="tab-bars_menu" transform="translate(0.000000, 618.000000)">
                <g id="1" transform="translate(39.000000, 8.000000)">
                    <g transform="translate(12.000000, 4.000000)" id="Fill-1">
                        <path d="M21.4347155,5.11779217 L20.9448242,4.7353148 C20.454933,4.35250309 19.9638276,3.96868839 19.4693834,3.59323202 C18.948836,3.19804998 18.4258604,2.77712427 17.9198823,2.3695719 C17.3355944,1.89916485 16.7312738,1.4127098 16.1181509,0.955676091 C16.0361988,0.894493085 15.9518185,0.824617412 15.8640995,0.752401405 C15.4245935,0.391321369 14.8621595,-0.0697243426 14.1637458,0.00884399849 C13.2164406,0.110815675 12.5562711,1.16931511 12.5562711,2.05529853 L12.5562711,4.39095143 C12.5070999,4.3906171 12.4542863,4.39028276 12.3978304,4.39028276 C10.3274784,4.39028276 0,4.96600482 0,16.3326706 C0,16.65898 0.213985959,16.9361423 0.505978146,16.9906387 C0.539669552,16.996991 0.573968011,17 0.607355891,17 C0.861710832,17 1.09451541,16.8228033 1.18102038,16.550656 C1.25720545,16.3102703 3.14483478,10.6573617 11.2963339,10.6573617 C11.7051837,10.6573617 12.1270851,10.6720724 12.5562711,10.700825 L12.5562711,12.8790069 C12.5562711,13.6055133 12.9672456,14.3323541 13.6031329,14.7298764 C13.8244035,14.8682905 14.0611539,14.9385005 14.3070101,14.9385005 C14.9107237,14.9385005 15.3936339,14.5255988 15.7815403,14.1939401 C15.8856498,14.1050074 15.9839923,14.0190837 16.0777819,13.95322 C16.438978,13.6967863 16.7953178,13.420627 17.13982,13.1534946 C17.3143476,13.0184239 17.4885716,12.8833533 17.6621886,12.7516259 C18.6167784,12.0308032 19.5728859,11.2732038 20.4980337,10.5410137 L20.7611909,10.3323897 C20.8813872,10.237439 21.0034048,10.14416 21.1257258,10.050881 C21.2274071,9.97298131 21.3290884,9.89541597 21.4107369,9.83122396 C22.1188635,9.32136558 23,8.68746952 23,7.4668184 C23,6.29163662 22.2706266,5.74466723 21.4347155,5.11779217" transform="translate(23.5, 0) scale(-1, 1)"></path>
                    </g>
                </g>
            </g>
        </g>
    </g>
</svg>