<?xml version="1.0" encoding="UTF-8"?>
<svg width="14px" height="18px" viewBox="0 0 14 18" version="1.1" xmlns="http://www.w3.org/2000/svg" xmlns:xlink="http://www.w3.org/1999/xlink">

    <title>Group 26</title>
    <desc>Created with Sketch.</desc>
    <defs></defs>
    <g id="sid" stroke="none" stroke-width="1" fill="none" fill-rule="evenodd">
        <g id="3_ERP" transform="translate(-19.000000, -452.000000)">
            <g id="Group-7" transform="translate(0.000000, 438.000000)">
                <g id="Group-26" transform="translate(15.000000, 12.000000)">
                    <rect id="Rectangle-12" x="0" y="0" width="22" height="22"></rect>
                    <g id="6" transform="translate(4.000000, 2.000000)" fill="#2095F2">
                        <path d="M2.46428575,1.04529414 C1.66339288,1.04529414 0.985714299,1.76393387 0.985714299,2.61323536 L0.985714299,15.1567651 C0.985714299,16.0060666 1.66339288,16.7247063 2.46428575,16.7247063 L11.3357144,16.7247063 C12.1366073,16.7247063 12.8142859,16.0060666 12.8142859,15.1567651 L12.8142859,2.61323536 C12.8142859,1.76393387 12.1366073,1.04529414 11.3357144,1.04529414 L2.46428575,1.04529414 Z M11.3357144,17.7700005 L2.46428575,17.7700005 C1.10892859,17.7700005 0,16.5940445 0,15.1567651 L0,2.61323536 C0,1.17595591 1.10892859,0 2.46428575,0 L11.3357144,0 C12.6910716,0 13.8000002,1.17595591 13.8000002,2.61323536 L13.8000002,15.1567651 C13.8000002,16.5940445 12.7526787,17.7700005 11.3357144,17.7700005 L11.3357144,17.7700005 Z" id="Fill-1"></path>
                        <path d="M7.17391304,12.9857143 C5.41304348,12.9857143 3.91304348,11.9571429 3.91304348,10.6071429 C3.91304348,10.2857143 4.10869565,10.0928571 4.43478261,10.0928571 C4.76086957,10.0928571 4.95652174,10.2857143 4.95652174,10.6071429 C4.95652174,11.3142857 6,11.9571429 7.17391304,11.9571429 C8.34782609,11.9571429 9.39130435,11.3142857 9.39130435,10.6071429 C9.39130435,9.9 8.34782609,9.25714286 7.17391304,9.25714286 C5.41304348,9.25714286 3.91304348,8.22857143 3.91304348,6.87857143 C3.91304348,5.52857143 5.34782609,4.5 7.17391304,4.5 C9,4.5 10.4347826,5.52857143 10.4347826,6.87857143 C10.4347826,7.2 10.2391304,7.39285714 9.91304348,7.39285714 C9.58695652,7.39285714 9.39130435,7.2 9.39130435,6.87857143 C9.39130435,6.17142857 8.34782609,5.52857143 7.17391304,5.52857143 C6,5.52857143 4.95652174,6.17142857 4.95652174,6.87857143 C4.95652174,7.58571429 6,8.22857143 7.17391304,8.22857143 C8.93478261,8.22857143 10.4347826,9.25714286 10.4347826,10.6071429 C10.4347826,11.9571429 9,12.9857143 7.17391304,12.9857143" id="Fill-3"></path>
                        <path d="M7.04347826,14.1428571 C6.7173913,14.1428571 6.52173913,13.95 6.52173913,13.6285714 L6.52173913,4.37142857 C6.52173913,4.05 6.7173913,3.85714286 7.04347826,3.85714286 C7.36956522,3.85714286 7.56521739,4.05 7.56521739,4.37142857 L7.56521739,13.6285714 C7.56521739,13.95 7.36956522,14.1428571 7.04347826,14.1428571" id="Fill-5"></path>
                    </g>
                </g>
            </g>
        </g>
    </g>
</svg>