<?xml version="1.0" encoding="UTF-8"?>
<svg width="14px" height="19px" viewBox="0 0 14 19" version="1.1" xmlns="http://www.w3.org/2000/svg" xmlns:xlink="http://www.w3.org/1999/xlink">

    <title>Group 27</title>
    <desc>Created with Sketch.</desc>
    <defs></defs>
    <g id="sid" stroke="none" stroke-width="1" fill="none" fill-rule="evenodd">
        <g id="3_ERP" transform="translate(-19.000000, -495.000000)">
            <g id="Group-8" transform="translate(0.000000, 483.000000)">
                <g id="Group-27" transform="translate(15.000000, 11.000000)">
                    <rect id="Rectangle-12" x="0" y="0" width="22" height="22"></rect>
                    <g id="7" transform="translate(4.000000, 1.000000)" fill="#2095F2">
                        <g id="Group-3" transform="translate(0.000000, 0.130672)">
                            <path d="M2.65312755,1.56805808 C1.79088265,1.56805808 1.06129082,2.28675136 1.06129082,3.13611615 L1.06129082,15.6805808 C1.06129082,16.5299456 1.79088265,17.2486388 2.65312755,17.2486388 L11.1429235,17.2486388 C12.0051684,17.2486388 12.7347602,16.5299456 12.7347602,15.6805808 L12.7347602,7.70961887 C12.7347602,7.57894737 12.6021071,7.38294011 12.6021071,7.31760436 L6.89802551,1.69872958 C6.76537245,1.56805808 6.69904592,1.56805808 6.50006633,1.56805808 L2.65312755,1.56805808 L2.65312755,1.56805808 Z M11.1429235,18.2940109 L2.65312755,18.2940109 C1.19394388,18.2940109 6.63265306e-05,17.1179673 6.63265306e-05,15.6805808 L6.63265306e-05,3.13611615 C6.63265306e-05,1.69872958 1.19394388,0.522686025 2.65312755,0.522686025 L6.50006633,0.522686025 C6.89802551,0.522686025 7.36231122,0.718693285 7.69394388,0.914700544 L13.3980255,6.53357532 C13.7296582,6.86025408 13.7959847,7.2522686 13.7959847,7.70961887 L13.7959847,15.6805808 C13.7959847,17.1179673 12.6684337,18.2940109 11.1429235,18.2940109 L11.1429235,18.2940109 Z" id="Fill-1"></path>
                        </g>
                        <g id="Group-6" transform="translate(5.969388, 0.130672)">
                            <path d="M7.29598469,7.84029038 L3.05108673,7.84029038 C1.59190306,7.84029038 0.39802551,6.66424682 0.39802551,5.22686025 L0.39802551,1.04537205 C0.39802551,0.718693285 0.597005102,0.522686025 0.928637755,0.522686025 C1.26027041,0.522686025 1.45925,0.718693285 1.45925,1.04537205 L1.45925,5.22686025 C1.45925,6.07622505 2.18884184,6.79491833 3.05108673,6.79491833 L7.29598469,6.79491833 C7.62761735,6.79491833 7.82659694,6.99092559 7.82659694,7.31760436 C7.82659694,7.64428312 7.62761735,7.84029038 7.29598469,7.84029038" id="Fill-4"></path>
                        </g>
                        <path d="M6.10210714,14.569873 C5.70414796,14.569873 5.37251531,14.4392015 5.17353571,14.1778584 L3.97965816,13.0018149 C3.78067857,12.8058076 3.78067857,12.4791289 3.97965816,12.2831216 C4.17863776,12.0871143 4.51027041,12.0871143 4.70925,12.2831216 L5.90312755,13.4591652 C6.03578061,13.5898367 6.10210714,13.5898367 6.10210714,13.5898367 C6.2347602,13.5898367 6.30108673,13.5898367 6.30108673,13.4591652 L9.15312755,10.6497278 C9.35210714,10.4537205 9.6837398,10.4537205 9.88271939,10.6497278 C10.081699,10.845735 10.081699,11.1724138 9.88271939,11.3684211 L7.03067857,14.1778584 C6.83169898,14.3085299 6.50006633,14.569873 6.10210714,14.569873" id="Fill-7"></path>
                    </g>
                </g>
            </g>
        </g>
    </g>
</svg>