<?xml version="1.0" encoding="UTF-8"?>
<svg width="18px" height="18px" viewBox="0 0 18 18" version="1.1" xmlns="http://www.w3.org/2000/svg" xmlns:xlink="http://www.w3.org/1999/xlink">
    <!-- Generator: Sketch 43.1 (39012) - http://www.bohemiancoding.com/sketch -->
    <title>Group 4</title>
    <desc>Created with Sketch.</desc>
    <defs></defs>
    <g id="app邮件" stroke="none" stroke-width="1" fill="none" fill-rule="evenodd">
        <g id="1-收件箱" transform="translate(-291.000000, -31.000000)">
            <g id="Group">
                <g id="Group-4" transform="translate(289.000000, 29.000000)">
                    <rect id="Rectangle" x="0" y="0" width="22" height="22"></rect>
                    <g id="Page-1" transform="translate(2.000000, 2.000000)" fill="#FFFFFF">
                        <path d="M6.88695652,1.25612912 C3.75652174,1.25612912 1.25217391,3.76823034 1.25217391,6.90835687 C1.25217391,10.0484834 3.75652174,12.5605846 6.88695652,12.5605846 C10.0173913,12.5605846 12.5217391,10.0484834 12.5217391,6.90835687 C12.5217391,3.76823034 10.0173913,1.25612912 6.88695652,1.25612912 M6.88695652,13.8166352 C3.13043478,13.8166352 0,10.6765087 0,6.90835687 C0,3.14020503 3.13043478,7.85031633e-05 6.88695652,7.85031633e-05 C10.6434783,7.85031633e-05 13.773913,3.14020503 13.773913,6.90835687 C13.773913,10.6765087 10.6434783,13.8166352 6.88695652,13.8166352" id="Fill-1"></path>
                        <path d="M11.8956522,11.0690245 L17.373913,16.564246 C17.6086957,16.7997554 17.6086957,17.1922713 17.373913,17.4277808 C17.2173913,17.5847871 16.9826087,17.5847871 16.9043478,17.5847871 C16.7478261,17.5847871 16.5130435,17.5847871 16.4347826,17.4277808 L10.9565217,11.9325593 L11.8956522,11.0690245 Z" id="Fill-3"></path>
                    </g>
                </g>
            </g>
        </g>
    </g>
</svg>