<?xml version="1.0" encoding="UTF-8"?>
<svg width="18px" height="14px" viewBox="0 0 18 14" version="1.1" xmlns="http://www.w3.org/2000/svg" xmlns:xlink="http://www.w3.org/1999/xlink">
    <!-- Generator: Sketch 43.1 (39012) - http://www.bohemiancoding.com/sketch -->
    <title>Group 6</title>
    <desc>Created with Sketch.</desc>
    <defs></defs>
    <g id="app邮件" stroke="none" stroke-width="1" fill="none" fill-rule="evenodd">
        <g id="1-收件箱-copy" transform="translate(-101.000000, -168.000000)">
            <g id="Group-4" transform="translate(80.000000, 0.000000)">
                <g id="line" transform="translate(0.000000, 153.000000)">
                    <g id="Pin" transform="translate(19.000000, 11.000000)">
                        <g id="Group-6">
                            <rect id="Rectangle" x="0" y="0" width="22" height="22"></rect>
                            <g id="发送邮件-(1)" transform="translate(2.000000, 4.000000)" fill-rule="nonzero" fill="#2095F2">
                                <path d="M17.9829787,10.1106383 C18.0212553,10.3212766 17.9829787,10.5319362 17.8297872,10.6851277 L15.3978723,13.4042979 C15.1680851,13.653234 14.8042553,13.653234 14.5744681,13.4042979 C14.3446809,13.1553617 14.3446809,12.7532128 14.5744681,12.5043191 L16.106383,10.8000638 L10.6298085,10.8000638 C10.3042979,10.8000638 10.0361915,10.5319574 10.0361915,10.2064468 C10.0361915,9.88093617 10.3042979,9.61282979 10.6298085,9.61282979 L16.259617,9.61282979 L14.5936596,7.85112766 C14.3638723,7.62134043 14.3638723,7.21921277 14.5936596,6.98942553 C14.8234468,6.7596383 15.1872766,6.7596383 15.4170638,6.98942553 L17.8681277,9.57453191 C17.9830426,9.70857447 18.0213191,9.91923404 17.9830426,10.1107021 L17.9829787,10.1106383 Z M16.4127447,4.80638298 C16.4127447,5.13189362 16.1446383,5.4 15.8191277,5.4 C15.493617,5.4 15.2255106,5.13189362 15.2255106,4.80638298 L16.412766,4.80638298 L16.4127447,4.80638298 Z M15.2255319,4.80638298 L15.2255319,1.97234043 L10.3808511,6.30002128 L11.1468085,7.06597872 L10.2467872,7.88938298 L9.48082979,7.12342553 L8.50423404,8.00429787 L8.23612766,7.73619149 L7.96802128,8.00429787 L6.99142553,7.12342553 L2.08929787,11.9872766 L8.82974468,11.9872766 L8.82974468,12.0255532 C8.88719149,12.0064043 8.96378723,11.9872766 9.02125532,11.9872766 C9.34676596,11.9872766 9.61487234,12.255383 9.61487234,12.5808936 C9.61487234,12.9064043 9.34676596,13.1745106 9.02125532,13.1745106 C8.94465957,13.1745106 8.88721277,13.1553617 8.82974468,13.136234 L8.82974468,13.1745106 L0.825468085,13.1745106 C0.385042553,13.1745106 0.0211914894,12.8106809 0.0211914894,12.370234 L0.0211914894,0.804276596 C0.0211914894,0.363851064 0.385021277,0 0.825468085,0 L15.6084468,0 C16.0488723,0 16.4127234,0.363829787 16.4127234,0.804276596 L16.4127234,4.80638298 L15.2255319,4.80638298 Z M1.22765957,12.0106596 L1.32765957,12.0106596 L1.22765957,11.9106596 L1.22765957,12.0106596 Z M1.22765957,11.1255319 L6.05319149,6.3 L1.22765957,1.97231915 L1.22765957,11.1255319 Z M2.18510638,1.20638298 L8.21702128,6.60640426 L14.2489362,1.20638298 L2.18508511,1.20638298 L2.18510638,1.20638298 Z" id="Shape"></path>
                            </g>
                        </g>
                    </g>
                </g>
            </g>
        </g>
    </g>
</svg>