<?xml version="1.0" encoding="UTF-8"?>
<svg width="18px" height="18px" viewBox="0 0 18 18" version="1.1" xmlns="http://www.w3.org/2000/svg" xmlns:xlink="http://www.w3.org/1999/xlink">
    <!-- Generator: Sketch 43.1 (39012) - http://www.bohemiancoding.com/sketch -->
    <title>Group 14</title>
    <desc>Created with Sketch.</desc>
    <defs></defs>
    <g id="app邮件" stroke="none" stroke-width="1" fill="none" fill-rule="evenodd">
        <g id="1-收件箱-copy" transform="translate(-101.000000, -534.000000)">
            <g id="Group-4" transform="translate(80.000000, 0.000000)">
                <g id="line" transform="translate(0.000000, 521.000000)">
                    <g id="Pin" transform="translate(19.000000, 11.000000)">
                        <g id="Group-14">
                            <rect id="Rectangle" x="0" y="0" width="22" height="22"></rect>
                            <g id="设置" transform="translate(2.000000, 2.000000)" fill-rule="nonzero" fill="#8C949B">
                                <path d="M15.736511,11.2502609 C16.9759766,11.2502609 17.9838582,10.2418234 17.9838582,9.00291371 C17.9838582,7.76344816 16.9759746,6.75552441 15.736511,6.75552441 L15.3469321,6.75552441 C15.2679228,6.53111438 15.177407,6.31165686 15.0764726,6.09930903 L15.350795,5.82443278 C15.7738271,5.40142074 16.0070325,4.8368107 16.0070325,4.23548027 C16.0070325,3.63357391 15.7738271,3.06953779 15.350795,2.64650569 C14.927783,2.22289766 14.3631729,1.99024816 13.7618204,1.99024816 C13.1604077,1.99024816 12.5958378,2.22289766 12.172888,2.64650569 L11.8985656,2.92084816 C11.6856418,2.81985151 11.466698,2.72933579 11.2417542,2.65032642 L11.2417542,2.26076805 C11.2417542,1.02132458 10.2338104,0.0133988227 8.9943649,0.0133988227 C7.75496155,0.0133988227 6.74701774,1.02132257 6.74701774,2.26076805 L6.74701774,2.65032642 C6.52203179,2.72933579 6.30308797,2.81985151 6.09018429,2.92084816 L5.81584182,2.64650569 C5.39289199,2.22289766 4.82830202,1.99024816 4.22688931,1.99024816 C3.62555888,1.99024816 3.06102911,2.22289766 2.63791473,2.64650569 C2.21498496,3.06951773 1.98169934,3.63357391 1.98169934,4.23548027 C1.98169934,4.83683278 2.21498697,5.40142274 2.63791473,5.82443278 L2.9122572,6.09875518 C2.81134282,6.31165886 2.72080704,6.53058261 2.64179767,6.75552642 L2.25221876,6.75552642 C1.01281541,6.75552642 0.00487159866,7.76345017 0.00487159866,9.00291572 C0.00487159866,10.2418254 1.01281541,11.2502629 2.25221876,11.2502629 L2.64179767,11.2502629 C2.72080704,11.4752488 2.81134282,11.6941726 2.9122572,11.9070341 L2.63791473,12.1813766 C2.21498496,12.6044087 1.98169934,13.1684849 1.98169934,13.7703712 C1.98169934,14.3722977 2.21498697,14.9363137 2.63791473,15.3593237 C3.06102911,15.7822936 3.62555687,16.0155813 4.22688931,16.0155813 C4.82832409,16.0155813 5.39289399,15.7822936 5.81584182,15.3593237 L6.09018429,15.0850013 C6.30308797,15.1859559 6.52203179,15.2758756 6.74701774,15.3554809 L6.74701774,15.7451009 C6.74701774,16.9839484 7.75496155,17.9924481 8.9943649,17.9924481 C10.2338084,17.9924481 11.2417542,16.9839484 11.2417542,15.7451009 L11.2417542,15.3554809 C11.466698,15.2758756 11.6856418,15.1859559 11.8985656,15.0844876 L12.172888,15.3593037 C12.5958378,15.7822736 13.1604278,16.0155612 13.7618204,16.0155612 C14.3631729,16.0155612 14.927783,15.7822736 15.350795,15.3593037 C15.7738271,14.9362916 16.0070325,14.3722776 16.0070325,13.7703512 C16.0070325,13.1684649 15.7738271,12.6043886 15.350795,12.1813565 L15.0764726,11.9064803 C15.177407,11.6936187 15.2679228,11.4746528 15.3469321,11.2502428 L15.7365101,11.2502428 L15.736511,11.2502609 Z M14.5562669,12.9758408 C14.7675251,13.1865452 14.883297,13.4685933 14.883297,13.7703692 C14.883297,14.0715893 14.7675271,14.3536595 14.5562669,14.5648355 C14.1338508,14.986798 13.3897906,14.986798 12.9673545,14.5648355 L12.1020983,13.6990455 L11.7311779,13.9069967 C11.3569906,14.1160375 10.9520609,14.2833632 10.5268094,14.4040435 L10.1180589,14.5198756 L10.1180589,15.7451001 C10.1180589,16.3645149 9.61382007,16.8687115 8.99434314,16.8687115 C8.37486622,16.8687115 7.87062742,16.3645129 7.87062742,15.7451001 L7.87062742,14.5198756 L7.46191706,14.4040435 C7.03613177,14.2828074 6.63062809,14.1160154 6.25759064,13.9069967 L5.88665017,13.6995793 L5.02135385,14.5648154 C4.59887759,14.9867779 3.85487759,14.9867779 3.43240134,14.5648154 C3.22116321,14.3536395 3.10543344,14.0715692 3.10543344,13.7703492 C3.10543344,13.4685732 3.22116321,13.1865251 3.43240134,12.9758207 L4.29763746,12.1106067 L4.08976856,11.7396662 C3.88124147,11.3666087 3.71440936,10.9616789 3.59319331,10.5348261 L3.47734114,10.1265692 L2.25217822,10.1265692 C1.63272337,10.1265692 1.12852471,9.62233043 1.12852471,9.00289565 C1.12852471,8.38342074 1.6327033,7.87917993 2.25217822,7.87917993 L3.47734114,7.87917993 L3.59319331,7.47040936 C3.71440936,7.0440903 3.88124147,6.63862676 4.08976856,6.26608294 L4.29763746,5.89518261 L3.43240134,5.02992642 C3.22116321,4.81866823 3.10543344,4.5366602 3.10543344,4.23544013 C3.10543344,3.93364415 3.22116321,3.65161605 3.43240134,3.44095385 C3.85489967,3.0189913 4.59889766,3.0189913 5.02135385,3.44095385 L5.88665017,4.30618997 L6.25759064,4.09828094 C6.63062809,3.88977592 7.03615184,3.72240803 7.46191706,3.60170569 L7.87062742,3.48591572 L7.87062742,2.26071171 C7.87062742,1.64074314 8.37486622,1.13703813 8.99434314,1.13703813 C9.61382007,1.13703813 10.1180589,1.64074314 10.1180589,2.26071171 L10.1180589,3.48591572 L10.5268094,3.60170569 C10.9520609,3.72242809 11.3569886,3.88922007 11.7311779,4.09879465 L12.1020983,4.30618997 L12.9673545,3.44095385 C13.3898107,3.0189913 14.1338729,3.0189913 14.5562669,3.44095385 C14.7675251,3.65161605 14.883297,3.93364415 14.883297,4.23544013 C14.883297,4.5366602 14.7675271,4.81866823 14.5562669,5.02992642 L13.6915666,5.89518261 L13.898408,6.26608294 C14.1080649,6.64080602 14.2753284,7.0463097 14.3954769,7.47040936 L14.5113291,7.87917993 L15.736492,7.87917993 C16.3559469,7.87917993 16.8601857,8.38341873 16.8601857,9.00289565 C16.8601857,9.62233043 16.3559469,10.1265692 15.736492,10.1265692 L14.5113291,10.1265692 L14.3954769,10.5348261 C14.2753084,10.9594615 14.1080649,11.3644314 13.898408,11.7396662 L13.6915666,12.1106067 L14.5562669,12.9758408 Z M8.99434314,5.63182876 C7.13540268,5.63182876 5.62328027,7.14397124 5.62328027,9.00291171 C5.62328027,10.86181 7.13540268,12.3739746 8.99434314,12.3739746 C10.8532836,12.3739746 12.365406,10.86181 12.365406,9.00291171 C12.365406,7.14397124 10.8532836,5.63182876 8.99434314,5.63182876 Z M8.99434314,11.2502609 C7.7549398,11.2502609 6.74699599,10.2418234 6.74699599,9.00291371 C6.74699599,7.76344816 7.7549398,6.75552441 8.99434314,6.75552441 C10.2337866,6.75552441 11.2417324,7.76344816 11.2417324,9.00291371 C11.2417324,10.2418214 10.2338087,11.2502609 8.99434314,11.2502609 Z" id="Shape"></path>
                            </g>
                        </g>
                    </g>
                </g>
            </g>
        </g>
    </g>
</svg>