<?xml version="1.0" encoding="UTF-8"?>
<svg width="18px" height="15px" viewBox="0 0 18 15" version="1.1" xmlns="http://www.w3.org/2000/svg" xmlns:xlink="http://www.w3.org/1999/xlink">
    <!-- Generator: Sketch 43.1 (39012) - http://www.bohemiancoding.com/sketch -->
    <title>Group 13</title>
    <desc>Created with Sketch.</desc>
    <defs></defs>
    <g id="app邮件" stroke="none" stroke-width="1" fill="none" fill-rule="evenodd">
        <g id="1-收件箱-copy" transform="translate(-102.000000, -491.000000)">
            <g id="Group-4" transform="translate(80.000000, 0.000000)">
                <g id="line" transform="translate(0.000000, 477.000000)">
                    <g id="Pin" transform="translate(19.000000, 11.000000)">
                        <g id="Group-13">
                            <rect id="Rectangle" x="0" y="0" width="22" height="22"></rect>
                            <g id="Icons_Share" transform="translate(3.000000, 4.000000)" stroke="#8C949B">
                                <path d="M15.9428303,3.04477049 L15.6475229,2.81722077 C15.3522155,2.58947213 15.0561762,2.36112678 14.7581244,2.1377541 C14.4443374,1.9026459 14.1290866,1.65222186 13.824082,1.4097541 C13.4718722,1.1298918 13.1075865,0.840481967 12.7379948,0.568575956 C12.688594,0.532175956 12.6377294,0.490604372 12.5848521,0.447640437 C12.3199171,0.232820765 11.9808808,-0.0414721311 11.5598756,0.00527103825 C10.9888382,0.0659377049 10.5908868,0.695677596 10.5908868,1.22278142 L10.5908868,2.61234645 C10.5612463,2.61214754 10.5294102,2.61194863 10.4953785,2.61194863 C9.24736619,2.61194863 3.02194215,2.95446667 3.02194215,9.71691038 C3.02194215,9.91104372 3.1509333,10.0759377 3.32694676,10.1083596 C3.347256,10.1121388 3.36793118,10.113929 3.38805746,10.113929 C3.54138311,10.113929 3.68171817,10.0085082 3.73386353,9.84659781 C3.77978803,9.70358361 4.91765467,6.3404623 9.83139421,6.3404623 C10.0778496,6.3404623 10.3321726,6.34921421 10.5908868,6.36632022 L10.5908868,7.6622 C10.5908868,8.09442514 10.838623,8.52684918 11.2219371,8.76334973 C11.3553195,8.84569727 11.4980331,8.88746776 11.6462357,8.88746776 C12.0101554,8.88746776 12.3012546,8.64181749 12.5350853,8.44450164 C12.5978427,8.39159235 12.6571238,8.34047322 12.7136603,8.30128852 C12.9313901,8.14872678 13.1461924,7.98442951 13.353859,7.82550273 C13.4590645,7.74514426 13.5640871,7.66478579 13.6687438,7.58641639 C14.2441724,7.15757268 14.8205158,6.70684918 15.3781967,6.27124262 L15.5368284,6.14712459 C15.609283,6.09063497 15.6828354,6.03513989 15.7565708,5.97964481 C15.8178644,5.93329945 15.8791581,5.88715301 15.928376,5.84896284 C16.3552361,5.54562951 16.8863869,5.16850164 16.8863869,4.4422918 C16.8863869,3.74313333 16.4467192,3.41772131 15.9428303,3.04477049" id="Fill-1"></path>
                                <path d="M11.9550253,13.3371118 L1.81462299,13.3371118 C1.10771024,13.3371118 0.499921839,12.6333176 0.499921839,11.7357184 L0.499921839,3.93828178 C0.499921839,3.03361836 1.10838988,2.32511191 1.81462299,2.32511191 L5.66658851,2.32511191 C5.58356518,2.32511191 5.5573931,2.29356523 5.5573931,2.29617073 C5.5573931,2.2986513 5.58345253,2.26722955 5.66658851,2.26722955 L1.81462299,2.26722955 C0.954068026,2.26722955 0.281531034,3.02940683 0.281531034,3.93828178 L0.281531034,11.7357184 C0.281531034,12.6498636 0.945615005,13.3949942 1.81462299,13.3949942 L11.9550253,13.3949942 C12.8111238,13.3949942 13.3964736,12.6741844 13.3964736,11.7357184 L13.3964736,10.5397001 C13.3964736,10.5372052 13.3703842,10.5686413 13.2872782,10.5686413 C13.2042548,10.5686413 13.1780828,10.5370946 13.1780828,10.5397001 L13.1780828,11.7357184 C13.1780828,12.6769734 12.6368083,13.3371118 11.9550253,13.3371118 Z" id="Fill-3"></path>
                            </g>
                        </g>
                    </g>
                </g>
            </g>
        </g>
    </g>
</svg>