<?xml version="1.0" encoding="UTF-8"?>
<svg width="17px" height="18px" viewBox="0 0 17 18" version="1.1" xmlns="http://www.w3.org/2000/svg" xmlns:xlink="http://www.w3.org/1999/xlink">
    <!-- Generator: Sketch 43.1 (39012) - http://www.bohemiancoding.com/sketch -->
    <title>Group 9</title>
    <desc>Created with Sketch.</desc>
    <defs></defs>
    <g id="app邮件" stroke="none" stroke-width="1" fill="none" fill-rule="evenodd">
        <g id="1-收件箱-copy" transform="translate(-101.000000, -298.000000)">
            <g id="Group-4" transform="translate(80.000000, 0.000000)">
                <g id="line" transform="translate(0.000000, 285.000000)">
                    <g id="Pin" transform="translate(19.000000, 11.000000)">
                        <g id="Group-9">
                            <rect id="Rectangle" x="0" y="0" width="22" height="22"></rect>
                            <g id="垃圾箱" transform="translate(2.000000, 2.000000)" fill-rule="nonzero" fill="#2095F2">
                                <path d="M5.08359375,14.625 C5.39648437,14.625 5.64960937,14.371875 5.64960937,14.0625 L5.64960937,7.875 C5.64960937,7.565625 5.39648437,7.3125 5.08359375,7.3125 C4.77070312,7.3125 4.51757812,7.565625 4.51757812,7.875 L4.51757812,14.0625 C4.52109375,14.371875 4.77070312,14.625 5.08359375,14.625 Z M8.47265625,14.625 C8.78554687,14.625 9.03867187,14.371875 9.03867187,14.0625 L9.03867187,7.875 C9.03867187,7.565625 8.78554687,7.3125 8.47265625,7.3125 C8.15976562,7.3125 7.90664062,7.565625 7.90664062,7.875 L7.90664062,14.0625 C7.90664062,14.371875 8.15976562,14.625 8.47265625,14.625 Z M11.8617187,14.625 C12.1746094,14.625 12.4277344,14.371875 12.4277344,14.0625 L12.4277344,7.875 C12.4277344,7.565625 12.1746094,7.3125 11.8617187,7.3125 C11.5488281,7.3125 11.2957031,7.565625 11.2957031,7.875 L11.2957031,14.0625 C11.2957031,14.371875 11.5488281,14.625 11.8617187,14.625 Z M14.6847656,1.6875 L12.346875,1.6875 C12.09375,0.720703125 11.2148437,0 10.1671875,0 L6.778125,0 C5.73046875,0 4.8515625,0.720703125 4.5984375,1.6875 L2.26054687,1.6875 C1.01601562,1.6875 0.003515625,2.69648438 0.003515625,3.9375 L0.003515625,4.5 L0.56953125,4.5 L0.56953125,5.0625 L1.69804687,5.0625 L1.69804687,15.75 C1.69804687,16.9910156 2.71054687,18 3.95859375,18 L12.99375,18 C14.2382812,18 15.2542969,16.9910156 15.2542969,15.75 L15.2542969,5.0625 L16.3828125,5.0625 L16.3828125,4.5 L16.9488281,4.5 L16.9488281,3.9375 C16.9417969,2.69648438 15.9292969,1.6875 14.6847656,1.6875 Z M6.778125,1.125 L10.1671875,1.125 C10.5820312,1.125 10.9441406,1.35351562 11.1410156,1.6875 L5.8078125,1.6875 C6.00117187,1.35351562 6.36328125,1.125 6.778125,1.125 L6.778125,1.125 Z M14.11875,15.75 C14.11875,16.3722656 13.6125,16.875 12.9902344,16.875 L3.95507812,16.875 C3.3328125,16.875 2.74570312,16.3722656 2.74570312,15.75 L2.82304687,5.0625 L14.11875,5.0625 L14.11875,15.75 Z M1.13203125,3.9375 C1.13203125,3.31523438 1.63828125,2.8125 2.26054687,2.8125 L14.6847656,2.8125 C15.3070312,2.8125 15.8132812,3.31523438 15.8132812,3.9375 L1.13203125,3.9375 Z" id="Shape"></path>
                            </g>
                        </g>
                    </g>
                </g>
            </g>
        </g>
    </g>
</svg>